<?xml version="1.0" encoding="utf-8" standalone="no"?>
<!DOCTYPE svg PUBLIC "-//W3C//DTD SVG 1.1//EN"
  "http://www.w3.org/Graphics/SVG/1.1/DTD/svg11.dtd">
<!-- Created with matplotlib (http://matplotlib.org/) -->
<svg height="345.6pt" version="1.1" viewBox="0 0 460.8 345.6" width="460.8pt" xmlns="http://www.w3.org/2000/svg" xmlns:xlink="http://www.w3.org/1999/xlink">
 <defs>
  <style type="text/css">
*{stroke-linecap:butt;stroke-linejoin:round;}
  </style>
 </defs>
 <g id="figure_1">
  <g id="patch_1">
   <path d="M 0 345.6 
L 460.8 345.6 
L 460.8 0 
L 0 0 
z
" style="fill:#ffffff;"/>
  </g>
  <g id="axes_1">
   <g id="patch_2">
    <path d="M 57.44 297.16 
L 394 297.16 
L 394 13.32 
L 57.44 13.32 
z
" style="fill:#ffffff;"/>
   </g>
   <g id="PolyCollection_1">
    <defs>
     <path d="M 72.738182 -61.341818 
L 72.738182 -268.713508 
L 78.201818 -266.357011 
L 83.665455 -274.604749 
L 89.129091 -266.357011 
L 94.592727 -269.891756 
L 100.056364 -284.030735 
L 105.52 -261.644018 
L 110.983636 -266.357011 
L 116.447273 -271.070004 
L 121.910909 -269.891756 
L 127.374545 -265.178763 
L 132.838182 -271.070004 
L 138.301818 -284.030735 
L 143.765455 -295.813217 
L 149.229091 -271.070004 
L 154.692727 -267.535259 
L 160.156364 -273.426501 
L 165.62 -262.822267 
L 171.083636 -275.782997 
L 176.547273 -292.278472 
L 182.010909 -317.021685 
L 187.474545 -271.070004 
L 192.938182 -269.891756 
L 198.401818 -276.961245 
L 203.865455 -267.535259 
L 209.329091 -271.070004 
L 214.792727 -284.030735 
L 220.256364 -305.239203 
L 225.72 -271.070004 
L 231.183636 -269.891756 
L 236.647273 -273.426501 
L 242.110909 -272.248252 
L 247.574545 -275.782997 
L 253.038182 -272.248252 
L 258.501818 -282.852487 
L 263.965455 -307.595699 
L 269.429091 -275.782997 
L 274.892727 -269.891756 
L 280.356364 -275.782997 
L 285.82 -273.426501 
L 291.283636 -272.248252 
L 296.747273 -268.713508 
L 302.210909 -278.139494 
L 307.674545 -291.100224 
L 313.138182 -271.070004 
L 318.601818 -273.426501 
L 324.065455 -271.070004 
L 329.529091 -273.426501 
L 334.992727 -273.426501 
L 340.456364 -271.070004 
L 345.92 -271.070004 
L 351.383636 -285.208983 
L 356.847273 -319.378182 
L 362.310909 -273.426501 
L 367.774545 -272.248252 
L 373.238182 -275.782997 
L 378.701818 -269.891756 
L 378.701818 -61.341818 
L 378.701818 -61.341818 
L 373.238182 -61.341818 
L 367.774545 -61.341818 
L 362.310909 -61.341818 
L 356.847273 -61.341818 
L 351.383636 -61.341818 
L 345.92 -61.341818 
L 340.456364 -61.341818 
L 334.992727 -61.341818 
L 329.529091 -61.341818 
L 324.065455 -61.341818 
L 318.601818 -61.341818 
L 313.138182 -61.341818 
L 307.674545 -61.341818 
L 302.210909 -61.341818 
L 296.747273 -61.341818 
L 291.283636 -61.341818 
L 285.82 -61.341818 
L 280.356364 -61.341818 
L 274.892727 -61.341818 
L 269.429091 -61.341818 
L 263.965455 -61.341818 
L 258.501818 -61.341818 
L 253.038182 -61.341818 
L 247.574545 -61.341818 
L 242.110909 -61.341818 
L 236.647273 -61.341818 
L 231.183636 -61.341818 
L 225.72 -61.341818 
L 220.256364 -61.341818 
L 214.792727 -61.341818 
L 209.329091 -61.341818 
L 203.865455 -61.341818 
L 198.401818 -61.341818 
L 192.938182 -61.341818 
L 187.474545 -61.341818 
L 182.010909 -61.341818 
L 176.547273 -61.341818 
L 171.083636 -61.341818 
L 165.62 -61.341818 
L 160.156364 -61.341818 
L 154.692727 -61.341818 
L 149.229091 -61.341818 
L 143.765455 -61.341818 
L 138.301818 -61.341818 
L 132.838182 -61.341818 
L 127.374545 -61.341818 
L 121.910909 -61.341818 
L 116.447273 -61.341818 
L 110.983636 -61.341818 
L 105.52 -61.341818 
L 100.056364 -61.341818 
L 94.592727 -61.341818 
L 89.129091 -61.341818 
L 83.665455 -61.341818 
L 78.201818 -61.341818 
L 72.738182 -61.341818 
z
" id="m9930329532" style="stroke:#ffa500;"/>
    </defs>
    <g clip-path="url(#pbb38729011)">
     <use style="fill:#ffa500;stroke:#ffa500;" x="0" xlink:href="#m9930329532" y="345.6"/>
    </g>
   </g>
   <g id="matplotlib.axis_1">
    <g id="xtick_1">
     <g id="line2d_1">
      <defs>
       <path d="M 0 0 
L 0 3.5 
" id="mf287506953" style="stroke:#000000;stroke-width:0.8;"/>
      </defs>
      <g>
       <use style="stroke:#000000;stroke-width:0.8;" x="72.738182" xlink:href="#mf287506953" y="297.16"/>
      </g>
     </g>
     <g id="text_1">
      <!-- 0 -->
      <defs>
       <path d="M 31.78125 66.40625 
Q 24.171875 66.40625 20.328125 58.90625 
Q 16.5 51.421875 16.5 36.375 
Q 16.5 21.390625 20.328125 13.890625 
Q 24.171875 6.390625 31.78125 6.390625 
Q 39.453125 6.390625 43.28125 13.890625 
Q 47.125 21.390625 47.125 36.375 
Q 47.125 51.421875 43.28125 58.90625 
Q 39.453125 66.40625 31.78125 66.40625 
z
M 31.78125 74.21875 
Q 44.046875 74.21875 50.515625 64.515625 
Q 56.984375 54.828125 56.984375 36.375 
Q 56.984375 17.96875 50.515625 8.265625 
Q 44.046875 -1.421875 31.78125 -1.421875 
Q 19.53125 -1.421875 13.0625 8.265625 
Q 6.59375 17.96875 6.59375 36.375 
Q 6.59375 54.828125 13.0625 64.515625 
Q 19.53125 74.21875 31.78125 74.21875 
z
" id="DejaVuSans-30"/>
      </defs>
      <g transform="translate(69.556932 311.758438)scale(0.1 -0.1)">
       <use xlink:href="#DejaVuSans-30"/>
      </g>
     </g>
    </g>
    <g id="xtick_2">
     <g id="line2d_2">
      <g>
       <use style="stroke:#000000;stroke-width:0.8;" x="127.374545" xlink:href="#mf287506953" y="297.16"/>
      </g>
     </g>
     <g id="text_2">
      <!-- 10 -->
      <defs>
       <path d="M 12.40625 8.296875 
L 28.515625 8.296875 
L 28.515625 63.921875 
L 10.984375 60.40625 
L 10.984375 69.390625 
L 28.421875 72.90625 
L 38.28125 72.90625 
L 38.28125 8.296875 
L 54.390625 8.296875 
L 54.390625 0 
L 12.40625 0 
z
" id="DejaVuSans-31"/>
      </defs>
      <g transform="translate(121.012045 311.758438)scale(0.1 -0.1)">
       <use xlink:href="#DejaVuSans-31"/>
       <use x="63.623047" xlink:href="#DejaVuSans-30"/>
      </g>
     </g>
    </g>
    <g id="xtick_3">
     <g id="line2d_3">
      <g>
       <use style="stroke:#000000;stroke-width:0.8;" x="182.010909" xlink:href="#mf287506953" y="297.16"/>
      </g>
     </g>
     <g id="text_3">
      <!-- 20 -->
      <defs>
       <path d="M 19.1875 8.296875 
L 53.609375 8.296875 
L 53.609375 0 
L 7.328125 0 
L 7.328125 8.296875 
Q 12.9375 14.109375 22.625 23.890625 
Q 32.328125 33.6875 34.8125 36.53125 
Q 39.546875 41.84375 41.421875 45.53125 
Q 43.3125 49.21875 43.3125 52.78125 
Q 43.3125 58.59375 39.234375 62.25 
Q 35.15625 65.921875 28.609375 65.921875 
Q 23.96875 65.921875 18.8125 64.3125 
Q 13.671875 62.703125 7.8125 59.421875 
L 7.8125 69.390625 
Q 13.765625 71.78125 18.9375 73 
Q 24.125 74.21875 28.421875 74.21875 
Q 39.75 74.21875 46.484375 68.546875 
Q 53.21875 62.890625 53.21875 53.421875 
Q 53.21875 48.921875 51.53125 44.890625 
Q 49.859375 40.875 45.40625 35.40625 
Q 44.1875 33.984375 37.640625 27.21875 
Q 31.109375 20.453125 19.1875 8.296875 
z
" id="DejaVuSans-32"/>
      </defs>
      <g transform="translate(175.648409 311.758438)scale(0.1 -0.1)">
       <use xlink:href="#DejaVuSans-32"/>
       <use x="63.623047" xlink:href="#DejaVuSans-30"/>
      </g>
     </g>
    </g>
    <g id="xtick_4">
     <g id="line2d_4">
      <g>
       <use style="stroke:#000000;stroke-width:0.8;" x="236.647273" xlink:href="#mf287506953" y="297.16"/>
      </g>
     </g>
     <g id="text_4">
      <!-- 30 -->
      <defs>
       <path d="M 40.578125 39.3125 
Q 47.65625 37.796875 51.625 33 
Q 55.609375 28.21875 55.609375 21.1875 
Q 55.609375 10.40625 48.1875 4.484375 
Q 40.765625 -1.421875 27.09375 -1.421875 
Q 22.515625 -1.421875 17.65625 -0.515625 
Q 12.796875 0.390625 7.625 2.203125 
L 7.625 11.71875 
Q 11.71875 9.328125 16.59375 8.109375 
Q 21.484375 6.890625 26.8125 6.890625 
Q 36.078125 6.890625 40.9375 10.546875 
Q 45.796875 14.203125 45.796875 21.1875 
Q 45.796875 27.640625 41.28125 31.265625 
Q 36.765625 34.90625 28.71875 34.90625 
L 20.21875 34.90625 
L 20.21875 43.015625 
L 29.109375 43.015625 
Q 36.375 43.015625 40.234375 45.921875 
Q 44.09375 48.828125 44.09375 54.296875 
Q 44.09375 59.90625 40.109375 62.90625 
Q 36.140625 65.921875 28.71875 65.921875 
Q 24.65625 65.921875 20.015625 65.03125 
Q 15.375 64.15625 9.8125 62.3125 
L 9.8125 71.09375 
Q 15.4375 72.65625 20.34375 73.4375 
Q 25.25 74.21875 29.59375 74.21875 
Q 40.828125 74.21875 47.359375 69.109375 
Q 53.90625 64.015625 53.90625 55.328125 
Q 53.90625 49.265625 50.4375 45.09375 
Q 46.96875 40.921875 40.578125 39.3125 
z
" id="DejaVuSans-33"/>
      </defs>
      <g transform="translate(230.284773 311.758438)scale(0.1 -0.1)">
       <use xlink:href="#DejaVuSans-33"/>
       <use x="63.623047" xlink:href="#DejaVuSans-30"/>
      </g>
     </g>
    </g>
    <g id="xtick_5">
     <g id="line2d_5">
      <g>
       <use style="stroke:#000000;stroke-width:0.8;" x="291.283636" xlink:href="#mf287506953" y="297.16"/>
      </g>
     </g>
     <g id="text_5">
      <!-- 40 -->
      <defs>
       <path d="M 37.796875 64.3125 
L 12.890625 25.390625 
L 37.796875 25.390625 
z
M 35.203125 72.90625 
L 47.609375 72.90625 
L 47.609375 25.390625 
L 58.015625 25.390625 
L 58.015625 17.1875 
L 47.609375 17.1875 
L 47.609375 0 
L 37.796875 0 
L 37.796875 17.1875 
L 4.890625 17.1875 
L 4.890625 26.703125 
z
" id="DejaVuSans-34"/>
      </defs>
      <g transform="translate(284.921136 311.758438)scale(0.1 -0.1)">
       <use xlink:href="#DejaVuSans-34"/>
       <use x="63.623047" xlink:href="#DejaVuSans-30"/>
      </g>
     </g>
    </g>
    <g id="xtick_6">
     <g id="line2d_6">
      <g>
       <use style="stroke:#000000;stroke-width:0.8;" x="345.92" xlink:href="#mf287506953" y="297.16"/>
      </g>
     </g>
     <g id="text_6">
      <!-- 50 -->
      <defs>
       <path d="M 10.796875 72.90625 
L 49.515625 72.90625 
L 49.515625 64.59375 
L 19.828125 64.59375 
L 19.828125 46.734375 
Q 21.96875 47.46875 24.109375 47.828125 
Q 26.265625 48.1875 28.421875 48.1875 
Q 40.625 48.1875 47.75 41.5 
Q 54.890625 34.8125 54.890625 23.390625 
Q 54.890625 11.625 47.5625 5.09375 
Q 40.234375 -1.421875 26.90625 -1.421875 
Q 22.3125 -1.421875 17.546875 -0.640625 
Q 12.796875 0.140625 7.71875 1.703125 
L 7.71875 11.625 
Q 12.109375 9.234375 16.796875 8.0625 
Q 21.484375 6.890625 26.703125 6.890625 
Q 35.15625 6.890625 40.078125 11.328125 
Q 45.015625 15.765625 45.015625 23.390625 
Q 45.015625 31 40.078125 35.4375 
Q 35.15625 39.890625 26.703125 39.890625 
Q 22.75 39.890625 18.8125 39.015625 
Q 14.890625 38.140625 10.796875 36.28125 
z
" id="DejaVuSans-35"/>
      </defs>
      <g transform="translate(339.5575 311.758438)scale(0.1 -0.1)">
       <use xlink:href="#DejaVuSans-35"/>
       <use x="63.623047" xlink:href="#DejaVuSans-30"/>
      </g>
     </g>
    </g>
    <g id="text_7">
     <!-- Time (secs) -->
     <defs>
      <path d="M -0.296875 72.90625 
L 61.375 72.90625 
L 61.375 64.59375 
L 35.5 64.59375 
L 35.5 0 
L 25.59375 0 
L 25.59375 64.59375 
L -0.296875 64.59375 
z
" id="DejaVuSans-54"/>
      <path d="M 9.421875 54.6875 
L 18.40625 54.6875 
L 18.40625 0 
L 9.421875 0 
z
M 9.421875 75.984375 
L 18.40625 75.984375 
L 18.40625 64.59375 
L 9.421875 64.59375 
z
" id="DejaVuSans-69"/>
      <path d="M 52 44.1875 
Q 55.375 50.25 60.0625 53.125 
Q 64.75 56 71.09375 56 
Q 79.640625 56 84.28125 50.015625 
Q 88.921875 44.046875 88.921875 33.015625 
L 88.921875 0 
L 79.890625 0 
L 79.890625 32.71875 
Q 79.890625 40.578125 77.09375 44.375 
Q 74.3125 48.1875 68.609375 48.1875 
Q 61.625 48.1875 57.5625 43.546875 
Q 53.515625 38.921875 53.515625 30.90625 
L 53.515625 0 
L 44.484375 0 
L 44.484375 32.71875 
Q 44.484375 40.625 41.703125 44.40625 
Q 38.921875 48.1875 33.109375 48.1875 
Q 26.21875 48.1875 22.15625 43.53125 
Q 18.109375 38.875 18.109375 30.90625 
L 18.109375 0 
L 9.078125 0 
L 9.078125 54.6875 
L 18.109375 54.6875 
L 18.109375 46.1875 
Q 21.1875 51.21875 25.484375 53.609375 
Q 29.78125 56 35.6875 56 
Q 41.65625 56 45.828125 52.96875 
Q 50 49.953125 52 44.1875 
z
" id="DejaVuSans-6d"/>
      <path d="M 56.203125 29.59375 
L 56.203125 25.203125 
L 14.890625 25.203125 
Q 15.484375 15.921875 20.484375 11.0625 
Q 25.484375 6.203125 34.421875 6.203125 
Q 39.59375 6.203125 44.453125 7.46875 
Q 49.3125 8.734375 54.109375 11.28125 
L 54.109375 2.78125 
Q 49.265625 0.734375 44.1875 -0.34375 
Q 39.109375 -1.421875 33.890625 -1.421875 
Q 20.796875 -1.421875 13.15625 6.1875 
Q 5.515625 13.8125 5.515625 26.8125 
Q 5.515625 40.234375 12.765625 48.109375 
Q 20.015625 56 32.328125 56 
Q 43.359375 56 49.78125 48.890625 
Q 56.203125 41.796875 56.203125 29.59375 
z
M 47.21875 32.234375 
Q 47.125 39.59375 43.09375 43.984375 
Q 39.0625 48.390625 32.421875 48.390625 
Q 24.90625 48.390625 20.390625 44.140625 
Q 15.875 39.890625 15.1875 32.171875 
z
" id="DejaVuSans-65"/>
      <path id="DejaVuSans-20"/>
      <path d="M 31 75.875 
Q 24.46875 64.65625 21.28125 53.65625 
Q 18.109375 42.671875 18.109375 31.390625 
Q 18.109375 20.125 21.3125 9.0625 
Q 24.515625 -2 31 -13.1875 
L 23.1875 -13.1875 
Q 15.875 -1.703125 12.234375 9.375 
Q 8.59375 20.453125 8.59375 31.390625 
Q 8.59375 42.28125 12.203125 53.3125 
Q 15.828125 64.359375 23.1875 75.875 
z
" id="DejaVuSans-28"/>
      <path d="M 44.28125 53.078125 
L 44.28125 44.578125 
Q 40.484375 46.53125 36.375 47.5 
Q 32.28125 48.484375 27.875 48.484375 
Q 21.1875 48.484375 17.84375 46.4375 
Q 14.5 44.390625 14.5 40.28125 
Q 14.5 37.15625 16.890625 35.375 
Q 19.28125 33.59375 26.515625 31.984375 
L 29.59375 31.296875 
Q 39.15625 29.25 43.1875 25.515625 
Q 47.21875 21.78125 47.21875 15.09375 
Q 47.21875 7.46875 41.1875 3.015625 
Q 35.15625 -1.421875 24.609375 -1.421875 
Q 20.21875 -1.421875 15.453125 -0.5625 
Q 10.6875 0.296875 5.421875 2 
L 5.421875 11.28125 
Q 10.40625 8.6875 15.234375 7.390625 
Q 20.0625 6.109375 24.8125 6.109375 
Q 31.15625 6.109375 34.5625 8.28125 
Q 37.984375 10.453125 37.984375 14.40625 
Q 37.984375 18.0625 35.515625 20.015625 
Q 33.0625 21.96875 24.703125 23.78125 
L 21.578125 24.515625 
Q 13.234375 26.265625 9.515625 29.90625 
Q 5.8125 33.546875 5.8125 39.890625 
Q 5.8125 47.609375 11.28125 51.796875 
Q 16.75 56 26.8125 56 
Q 31.78125 56 36.171875 55.265625 
Q 40.578125 54.546875 44.28125 53.078125 
z
" id="DejaVuSans-73"/>
      <path d="M 48.78125 52.59375 
L 48.78125 44.1875 
Q 44.96875 46.296875 41.140625 47.34375 
Q 37.3125 48.390625 33.40625 48.390625 
Q 24.65625 48.390625 19.8125 42.84375 
Q 14.984375 37.3125 14.984375 27.296875 
Q 14.984375 17.28125 19.8125 11.734375 
Q 24.65625 6.203125 33.40625 6.203125 
Q 37.3125 6.203125 41.140625 7.25 
Q 44.96875 8.296875 48.78125 10.40625 
L 48.78125 2.09375 
Q 45.015625 0.34375 40.984375 -0.53125 
Q 36.96875 -1.421875 32.421875 -1.421875 
Q 20.0625 -1.421875 12.78125 6.34375 
Q 5.515625 14.109375 5.515625 27.296875 
Q 5.515625 40.671875 12.859375 48.328125 
Q 20.21875 56 33.015625 56 
Q 37.15625 56 41.109375 55.140625 
Q 45.0625 54.296875 48.78125 52.59375 
z
" id="DejaVuSans-63"/>
      <path d="M 8.015625 75.875 
L 15.828125 75.875 
Q 23.140625 64.359375 26.78125 53.3125 
Q 30.421875 42.28125 30.421875 31.390625 
Q 30.421875 20.453125 26.78125 9.375 
Q 23.140625 -1.703125 15.828125 -13.1875 
L 8.015625 -13.1875 
Q 14.5 -2 17.703125 9.0625 
Q 20.90625 20.125 20.90625 31.390625 
Q 20.90625 42.671875 17.703125 53.65625 
Q 14.5 64.65625 8.015625 75.875 
z
" id="DejaVuSans-29"/>
     </defs>
     <g transform="translate(179.45875 329.995625)scale(0.16 -0.16)">
      <use xlink:href="#DejaVuSans-54"/>
      <use x="61.037109" xlink:href="#DejaVuSans-69"/>
      <use x="88.820312" xlink:href="#DejaVuSans-6d"/>
      <use x="186.232422" xlink:href="#DejaVuSans-65"/>
      <use x="247.755859" xlink:href="#DejaVuSans-20"/>
      <use x="279.542969" xlink:href="#DejaVuSans-28"/>
      <use x="318.556641" xlink:href="#DejaVuSans-73"/>
      <use x="370.65625" xlink:href="#DejaVuSans-65"/>
      <use x="432.179688" xlink:href="#DejaVuSans-63"/>
      <use x="487.160156" xlink:href="#DejaVuSans-73"/>
      <use x="539.259766" xlink:href="#DejaVuSans-29"/>
     </g>
    </g>
   </g>
   <g id="matplotlib.axis_2">
    <g id="ytick_1">
     <g id="line2d_7">
      <defs>
       <path d="M 0 0 
L -3.5 0 
" id="mb39c6a81e0" style="stroke:#000000;stroke-width:0.8;"/>
      </defs>
      <g>
       <use style="stroke:#000000;stroke-width:0.8;" x="57.44" xlink:href="#mb39c6a81e0" y="284.258182"/>
      </g>
     </g>
     <g id="text_8">
      <!-- 0 -->
      <g transform="translate(44.0775 288.057401)scale(0.1 -0.1)">
       <use xlink:href="#DejaVuSans-30"/>
      </g>
     </g>
    </g>
    <g id="ytick_2">
     <g id="line2d_8">
      <g>
       <use style="stroke:#000000;stroke-width:0.8;" x="57.44" xlink:href="#mb39c6a81e0" y="225.34577"/>
      </g>
     </g>
     <g id="text_9">
      <!-- 50 -->
      <g transform="translate(37.715 229.144989)scale(0.1 -0.1)">
       <use xlink:href="#DejaVuSans-35"/>
       <use x="63.623047" xlink:href="#DejaVuSans-30"/>
      </g>
     </g>
    </g>
    <g id="ytick_3">
     <g id="line2d_9">
      <g>
       <use style="stroke:#000000;stroke-width:0.8;" x="57.44" xlink:href="#mb39c6a81e0" y="166.433358"/>
      </g>
     </g>
     <g id="text_10">
      <!-- 100 -->
      <g transform="translate(31.3525 170.232577)scale(0.1 -0.1)">
       <use xlink:href="#DejaVuSans-31"/>
       <use x="63.623047" xlink:href="#DejaVuSans-30"/>
       <use x="127.246094" xlink:href="#DejaVuSans-30"/>
      </g>
     </g>
    </g>
    <g id="ytick_4">
     <g id="line2d_10">
      <g>
       <use style="stroke:#000000;stroke-width:0.8;" x="57.44" xlink:href="#mb39c6a81e0" y="107.520946"/>
      </g>
     </g>
     <g id="text_11">
      <!-- 150 -->
      <g transform="translate(31.3525 111.320165)scale(0.1 -0.1)">
       <use xlink:href="#DejaVuSans-31"/>
       <use x="63.623047" xlink:href="#DejaVuSans-35"/>
       <use x="127.246094" xlink:href="#DejaVuSans-30"/>
      </g>
     </g>
    </g>
    <g id="ytick_5">
     <g id="line2d_11">
      <g>
       <use style="stroke:#000000;stroke-width:0.8;" x="57.44" xlink:href="#mb39c6a81e0" y="48.608535"/>
      </g>
     </g>
     <g id="text_12">
      <!-- 200 -->
      <g transform="translate(31.3525 52.407753)scale(0.1 -0.1)">
       <use xlink:href="#DejaVuSans-32"/>
       <use x="63.623047" xlink:href="#DejaVuSans-30"/>
       <use x="127.246094" xlink:href="#DejaVuSans-30"/>
      </g>
     </g>
    </g>
    <g id="text_13">
     <!-- Power Consumption (watts) -->
     <defs>
      <path d="M 19.671875 64.796875 
L 19.671875 37.40625 
L 32.078125 37.40625 
Q 38.96875 37.40625 42.71875 40.96875 
Q 46.484375 44.53125 46.484375 51.125 
Q 46.484375 57.671875 42.71875 61.234375 
Q 38.96875 64.796875 32.078125 64.796875 
z
M 9.8125 72.90625 
L 32.078125 72.90625 
Q 44.34375 72.90625 50.609375 67.359375 
Q 56.890625 61.8125 56.890625 51.125 
Q 56.890625 40.328125 50.609375 34.8125 
Q 44.34375 29.296875 32.078125 29.296875 
L 19.671875 29.296875 
L 19.671875 0 
L 9.8125 0 
z
" id="DejaVuSans-50"/>
      <path d="M 30.609375 48.390625 
Q 23.390625 48.390625 19.1875 42.75 
Q 14.984375 37.109375 14.984375 27.296875 
Q 14.984375 17.484375 19.15625 11.84375 
Q 23.34375 6.203125 30.609375 6.203125 
Q 37.796875 6.203125 41.984375 11.859375 
Q 46.1875 17.53125 46.1875 27.296875 
Q 46.1875 37.015625 41.984375 42.703125 
Q 37.796875 48.390625 30.609375 48.390625 
z
M 30.609375 56 
Q 42.328125 56 49.015625 48.375 
Q 55.71875 40.765625 55.71875 27.296875 
Q 55.71875 13.875 49.015625 6.21875 
Q 42.328125 -1.421875 30.609375 -1.421875 
Q 18.84375 -1.421875 12.171875 6.21875 
Q 5.515625 13.875 5.515625 27.296875 
Q 5.515625 40.765625 12.171875 48.375 
Q 18.84375 56 30.609375 56 
z
" id="DejaVuSans-6f"/>
      <path d="M 4.203125 54.6875 
L 13.1875 54.6875 
L 24.421875 12.015625 
L 35.59375 54.6875 
L 46.1875 54.6875 
L 57.421875 12.015625 
L 68.609375 54.6875 
L 77.59375 54.6875 
L 63.28125 0 
L 52.6875 0 
L 40.921875 44.828125 
L 29.109375 0 
L 18.5 0 
z
" id="DejaVuSans-77"/>
      <path d="M 41.109375 46.296875 
Q 39.59375 47.171875 37.8125 47.578125 
Q 36.03125 48 33.890625 48 
Q 26.265625 48 22.1875 43.046875 
Q 18.109375 38.09375 18.109375 28.8125 
L 18.109375 0 
L 9.078125 0 
L 9.078125 54.6875 
L 18.109375 54.6875 
L 18.109375 46.1875 
Q 20.953125 51.171875 25.484375 53.578125 
Q 30.03125 56 36.53125 56 
Q 37.453125 56 38.578125 55.875 
Q 39.703125 55.765625 41.0625 55.515625 
z
" id="DejaVuSans-72"/>
      <path d="M 64.40625 67.28125 
L 64.40625 56.890625 
Q 59.421875 61.53125 53.78125 63.8125 
Q 48.140625 66.109375 41.796875 66.109375 
Q 29.296875 66.109375 22.65625 58.46875 
Q 16.015625 50.828125 16.015625 36.375 
Q 16.015625 21.96875 22.65625 14.328125 
Q 29.296875 6.6875 41.796875 6.6875 
Q 48.140625 6.6875 53.78125 8.984375 
Q 59.421875 11.28125 64.40625 15.921875 
L 64.40625 5.609375 
Q 59.234375 2.09375 53.4375 0.328125 
Q 47.65625 -1.421875 41.21875 -1.421875 
Q 24.65625 -1.421875 15.125 8.703125 
Q 5.609375 18.84375 5.609375 36.375 
Q 5.609375 53.953125 15.125 64.078125 
Q 24.65625 74.21875 41.21875 74.21875 
Q 47.75 74.21875 53.53125 72.484375 
Q 59.328125 70.75 64.40625 67.28125 
z
" id="DejaVuSans-43"/>
      <path d="M 54.890625 33.015625 
L 54.890625 0 
L 45.90625 0 
L 45.90625 32.71875 
Q 45.90625 40.484375 42.875 44.328125 
Q 39.84375 48.1875 33.796875 48.1875 
Q 26.515625 48.1875 22.3125 43.546875 
Q 18.109375 38.921875 18.109375 30.90625 
L 18.109375 0 
L 9.078125 0 
L 9.078125 54.6875 
L 18.109375 54.6875 
L 18.109375 46.1875 
Q 21.34375 51.125 25.703125 53.5625 
Q 30.078125 56 35.796875 56 
Q 45.21875 56 50.046875 50.171875 
Q 54.890625 44.34375 54.890625 33.015625 
z
" id="DejaVuSans-6e"/>
      <path d="M 8.5 21.578125 
L 8.5 54.6875 
L 17.484375 54.6875 
L 17.484375 21.921875 
Q 17.484375 14.15625 20.5 10.265625 
Q 23.53125 6.390625 29.59375 6.390625 
Q 36.859375 6.390625 41.078125 11.03125 
Q 45.3125 15.671875 45.3125 23.6875 
L 45.3125 54.6875 
L 54.296875 54.6875 
L 54.296875 0 
L 45.3125 0 
L 45.3125 8.40625 
Q 42.046875 3.421875 37.71875 1 
Q 33.40625 -1.421875 27.6875 -1.421875 
Q 18.265625 -1.421875 13.375 4.4375 
Q 8.5 10.296875 8.5 21.578125 
z
M 31.109375 56 
z
" id="DejaVuSans-75"/>
      <path d="M 18.109375 8.203125 
L 18.109375 -20.796875 
L 9.078125 -20.796875 
L 9.078125 54.6875 
L 18.109375 54.6875 
L 18.109375 46.390625 
Q 20.953125 51.265625 25.265625 53.625 
Q 29.59375 56 35.59375 56 
Q 45.5625 56 51.78125 48.09375 
Q 58.015625 40.1875 58.015625 27.296875 
Q 58.015625 14.40625 51.78125 6.484375 
Q 45.5625 -1.421875 35.59375 -1.421875 
Q 29.59375 -1.421875 25.265625 0.953125 
Q 20.953125 3.328125 18.109375 8.203125 
z
M 48.6875 27.296875 
Q 48.6875 37.203125 44.609375 42.84375 
Q 40.53125 48.484375 33.40625 48.484375 
Q 26.265625 48.484375 22.1875 42.84375 
Q 18.109375 37.203125 18.109375 27.296875 
Q 18.109375 17.390625 22.1875 11.75 
Q 26.265625 6.109375 33.40625 6.109375 
Q 40.53125 6.109375 44.609375 11.75 
Q 48.6875 17.390625 48.6875 27.296875 
z
" id="DejaVuSans-70"/>
      <path d="M 18.3125 70.21875 
L 18.3125 54.6875 
L 36.8125 54.6875 
L 36.8125 47.703125 
L 18.3125 47.703125 
L 18.3125 18.015625 
Q 18.3125 11.328125 20.140625 9.421875 
Q 21.96875 7.515625 27.59375 7.515625 
L 36.8125 7.515625 
L 36.8125 0 
L 27.59375 0 
Q 17.1875 0 13.234375 3.875 
Q 9.28125 7.765625 9.28125 18.015625 
L 9.28125 47.703125 
L 2.6875 47.703125 
L 2.6875 54.6875 
L 9.28125 54.6875 
L 9.28125 70.21875 
z
" id="DejaVuSans-74"/>
      <path d="M 34.28125 27.484375 
Q 23.390625 27.484375 19.1875 25 
Q 14.984375 22.515625 14.984375 16.5 
Q 14.984375 11.71875 18.140625 8.90625 
Q 21.296875 6.109375 26.703125 6.109375 
Q 34.1875 6.109375 38.703125 11.40625 
Q 43.21875 16.703125 43.21875 25.484375 
L 43.21875 27.484375 
z
M 52.203125 31.203125 
L 52.203125 0 
L 43.21875 0 
L 43.21875 8.296875 
Q 40.140625 3.328125 35.546875 0.953125 
Q 30.953125 -1.421875 24.3125 -1.421875 
Q 15.921875 -1.421875 10.953125 3.296875 
Q 6 8.015625 6 15.921875 
Q 6 25.140625 12.171875 29.828125 
Q 18.359375 34.515625 30.609375 34.515625 
L 43.21875 34.515625 
L 43.21875 35.40625 
Q 43.21875 41.609375 39.140625 45 
Q 35.0625 48.390625 27.6875 48.390625 
Q 23 48.390625 18.546875 47.265625 
Q 14.109375 46.140625 10.015625 43.890625 
L 10.015625 52.203125 
Q 14.9375 54.109375 19.578125 55.046875 
Q 24.21875 56 28.609375 56 
Q 40.484375 56 46.34375 49.84375 
Q 52.203125 43.703125 52.203125 31.203125 
z
" id="DejaVuSans-61"/>
     </defs>
     <g style="fill:#ff0000;" transform="translate(24.025 265.905)rotate(-90)scale(0.16 -0.16)">
      <use xlink:href="#DejaVuSans-50"/>
      <use x="60.255859" xlink:href="#DejaVuSans-6f"/>
      <use x="121.4375" xlink:href="#DejaVuSans-77"/>
      <use x="203.224609" xlink:href="#DejaVuSans-65"/>
      <use x="264.748047" xlink:href="#DejaVuSans-72"/>
      <use x="305.861328" xlink:href="#DejaVuSans-20"/>
      <use x="337.648438" xlink:href="#DejaVuSans-43"/>
      <use x="407.472656" xlink:href="#DejaVuSans-6f"/>
      <use x="468.654297" xlink:href="#DejaVuSans-6e"/>
      <use x="532.033203" xlink:href="#DejaVuSans-73"/>
      <use x="584.132812" xlink:href="#DejaVuSans-75"/>
      <use x="647.511719" xlink:href="#DejaVuSans-6d"/>
      <use x="744.923828" xlink:href="#DejaVuSans-70"/>
      <use x="808.400391" xlink:href="#DejaVuSans-74"/>
      <use x="847.609375" xlink:href="#DejaVuSans-69"/>
      <use x="875.392578" xlink:href="#DejaVuSans-6f"/>
      <use x="936.574219" xlink:href="#DejaVuSans-6e"/>
      <use x="999.953125" xlink:href="#DejaVuSans-20"/>
      <use x="1031.740234" xlink:href="#DejaVuSans-28"/>
      <use x="1070.753906" xlink:href="#DejaVuSans-77"/>
      <use x="1152.541016" xlink:href="#DejaVuSans-61"/>
      <use x="1213.820312" xlink:href="#DejaVuSans-74"/>
      <use x="1253.029297" xlink:href="#DejaVuSans-74"/>
      <use x="1292.238281" xlink:href="#DejaVuSans-73"/>
      <use x="1344.337891" xlink:href="#DejaVuSans-29"/>
     </g>
    </g>
   </g>
   <g id="line2d_12">
    <path clip-path="url(#pbb38729011)" d="M 72.738182 76.886492 
L 78.201818 79.242989 
L 83.665455 70.995251 
L 89.129091 79.242989 
L 94.592727 75.708244 
L 100.056364 61.569265 
L 105.52 83.955982 
L 110.983636 79.242989 
L 116.447273 74.529996 
L 121.910909 75.708244 
L 127.374545 80.421237 
L 132.838182 74.529996 
L 138.301818 61.569265 
L 143.765455 49.786783 
L 149.229091 74.529996 
L 154.692727 78.064741 
L 160.156364 72.173499 
L 165.62 82.777733 
L 171.083636 69.817003 
L 176.547273 53.321528 
L 182.010909 28.578315 
L 187.474545 74.529996 
L 192.938182 75.708244 
L 198.401818 68.638755 
L 203.865455 78.064741 
L 209.329091 74.529996 
L 214.792727 61.569265 
L 220.256364 40.360797 
L 225.72 74.529996 
L 231.183636 75.708244 
L 236.647273 72.173499 
L 242.110909 73.351748 
L 247.574545 69.817003 
L 253.038182 73.351748 
L 258.501818 62.747513 
L 263.965455 38.004301 
L 269.429091 69.817003 
L 274.892727 75.708244 
L 280.356364 69.817003 
L 285.82 72.173499 
L 291.283636 73.351748 
L 296.747273 76.886492 
L 302.210909 67.460506 
L 307.674545 54.499776 
L 313.138182 74.529996 
L 318.601818 72.173499 
L 324.065455 74.529996 
L 329.529091 72.173499 
L 334.992727 72.173499 
L 340.456364 74.529996 
L 345.92 74.529996 
L 351.383636 60.391017 
L 356.847273 26.221818 
L 362.310909 72.173499 
L 367.774545 73.351748 
L 373.238182 69.817003 
L 378.701818 75.708244 
" style="fill:none;stroke:#ff0000;stroke-linecap:square;stroke-width:1.5;"/>
    <defs>
     <path d="M 0 3 
C 0.795609 3 1.55874 2.683901 2.12132 2.12132 
C 2.683901 1.55874 3 0.795609 3 0 
C 3 -0.795609 2.683901 -1.55874 2.12132 -2.12132 
C 1.55874 -2.683901 0.795609 -3 0 -3 
C -0.795609 -3 -1.55874 -2.683901 -2.12132 -2.12132 
C -2.683901 -1.55874 -3 -0.795609 -3 0 
C -3 0.795609 -2.683901 1.55874 -2.12132 2.12132 
C -1.55874 2.683901 -0.795609 3 0 3 
z
" id="m8626c0c24c" style="stroke:#ff0000;"/>
    </defs>
    <g clip-path="url(#pbb38729011)">
     <use style="fill:#ff0000;stroke:#ff0000;" x="72.738182" xlink:href="#m8626c0c24c" y="76.886492"/>
     <use style="fill:#ff0000;stroke:#ff0000;" x="78.201818" xlink:href="#m8626c0c24c" y="79.242989"/>
     <use style="fill:#ff0000;stroke:#ff0000;" x="83.665455" xlink:href="#m8626c0c24c" y="70.995251"/>
     <use style="fill:#ff0000;stroke:#ff0000;" x="89.129091" xlink:href="#m8626c0c24c" y="79.242989"/>
     <use style="fill:#ff0000;stroke:#ff0000;" x="94.592727" xlink:href="#m8626c0c24c" y="75.708244"/>
     <use style="fill:#ff0000;stroke:#ff0000;" x="100.056364" xlink:href="#m8626c0c24c" y="61.569265"/>
     <use style="fill:#ff0000;stroke:#ff0000;" x="105.52" xlink:href="#m8626c0c24c" y="83.955982"/>
     <use style="fill:#ff0000;stroke:#ff0000;" x="110.983636" xlink:href="#m8626c0c24c" y="79.242989"/>
     <use style="fill:#ff0000;stroke:#ff0000;" x="116.447273" xlink:href="#m8626c0c24c" y="74.529996"/>
     <use style="fill:#ff0000;stroke:#ff0000;" x="121.910909" xlink:href="#m8626c0c24c" y="75.708244"/>
     <use style="fill:#ff0000;stroke:#ff0000;" x="127.374545" xlink:href="#m8626c0c24c" y="80.421237"/>
     <use style="fill:#ff0000;stroke:#ff0000;" x="132.838182" xlink:href="#m8626c0c24c" y="74.529996"/>
     <use style="fill:#ff0000;stroke:#ff0000;" x="138.301818" xlink:href="#m8626c0c24c" y="61.569265"/>
     <use style="fill:#ff0000;stroke:#ff0000;" x="143.765455" xlink:href="#m8626c0c24c" y="49.786783"/>
     <use style="fill:#ff0000;stroke:#ff0000;" x="149.229091" xlink:href="#m8626c0c24c" y="74.529996"/>
     <use style="fill:#ff0000;stroke:#ff0000;" x="154.692727" xlink:href="#m8626c0c24c" y="78.064741"/>
     <use style="fill:#ff0000;stroke:#ff0000;" x="160.156364" xlink:href="#m8626c0c24c" y="72.173499"/>
     <use style="fill:#ff0000;stroke:#ff0000;" x="165.62" xlink:href="#m8626c0c24c" y="82.777733"/>
     <use style="fill:#ff0000;stroke:#ff0000;" x="171.083636" xlink:href="#m8626c0c24c" y="69.817003"/>
     <use style="fill:#ff0000;stroke:#ff0000;" x="176.547273" xlink:href="#m8626c0c24c" y="53.321528"/>
     <use style="fill:#ff0000;stroke:#ff0000;" x="182.010909" xlink:href="#m8626c0c24c" y="28.578315"/>
     <use style="fill:#ff0000;stroke:#ff0000;" x="187.474545" xlink:href="#m8626c0c24c" y="74.529996"/>
     <use style="fill:#ff0000;stroke:#ff0000;" x="192.938182" xlink:href="#m8626c0c24c" y="75.708244"/>
     <use style="fill:#ff0000;stroke:#ff0000;" x="198.401818" xlink:href="#m8626c0c24c" y="68.638755"/>
     <use style="fill:#ff0000;stroke:#ff0000;" x="203.865455" xlink:href="#m8626c0c24c" y="78.064741"/>
     <use style="fill:#ff0000;stroke:#ff0000;" x="209.329091" xlink:href="#m8626c0c24c" y="74.529996"/>
     <use style="fill:#ff0000;stroke:#ff0000;" x="214.792727" xlink:href="#m8626c0c24c" y="61.569265"/>
     <use style="fill:#ff0000;stroke:#ff0000;" x="220.256364" xlink:href="#m8626c0c24c" y="40.360797"/>
     <use style="fill:#ff0000;stroke:#ff0000;" x="225.72" xlink:href="#m8626c0c24c" y="74.529996"/>
     <use style="fill:#ff0000;stroke:#ff0000;" x="231.183636" xlink:href="#m8626c0c24c" y="75.708244"/>
     <use style="fill:#ff0000;stroke:#ff0000;" x="236.647273" xlink:href="#m8626c0c24c" y="72.173499"/>
     <use style="fill:#ff0000;stroke:#ff0000;" x="242.110909" xlink:href="#m8626c0c24c" y="73.351748"/>
     <use style="fill:#ff0000;stroke:#ff0000;" x="247.574545" xlink:href="#m8626c0c24c" y="69.817003"/>
     <use style="fill:#ff0000;stroke:#ff0000;" x="253.038182" xlink:href="#m8626c0c24c" y="73.351748"/>
     <use style="fill:#ff0000;stroke:#ff0000;" x="258.501818" xlink:href="#m8626c0c24c" y="62.747513"/>
     <use style="fill:#ff0000;stroke:#ff0000;" x="263.965455" xlink:href="#m8626c0c24c" y="38.004301"/>
     <use style="fill:#ff0000;stroke:#ff0000;" x="269.429091" xlink:href="#m8626c0c24c" y="69.817003"/>
     <use style="fill:#ff0000;stroke:#ff0000;" x="274.892727" xlink:href="#m8626c0c24c" y="75.708244"/>
     <use style="fill:#ff0000;stroke:#ff0000;" x="280.356364" xlink:href="#m8626c0c24c" y="69.817003"/>
     <use style="fill:#ff0000;stroke:#ff0000;" x="285.82" xlink:href="#m8626c0c24c" y="72.173499"/>
     <use style="fill:#ff0000;stroke:#ff0000;" x="291.283636" xlink:href="#m8626c0c24c" y="73.351748"/>
     <use style="fill:#ff0000;stroke:#ff0000;" x="296.747273" xlink:href="#m8626c0c24c" y="76.886492"/>
     <use style="fill:#ff0000;stroke:#ff0000;" x="302.210909" xlink:href="#m8626c0c24c" y="67.460506"/>
     <use style="fill:#ff0000;stroke:#ff0000;" x="307.674545" xlink:href="#m8626c0c24c" y="54.499776"/>
     <use style="fill:#ff0000;stroke:#ff0000;" x="313.138182" xlink:href="#m8626c0c24c" y="74.529996"/>
     <use style="fill:#ff0000;stroke:#ff0000;" x="318.601818" xlink:href="#m8626c0c24c" y="72.173499"/>
     <use style="fill:#ff0000;stroke:#ff0000;" x="324.065455" xlink:href="#m8626c0c24c" y="74.529996"/>
     <use style="fill:#ff0000;stroke:#ff0000;" x="329.529091" xlink:href="#m8626c0c24c" y="72.173499"/>
     <use style="fill:#ff0000;stroke:#ff0000;" x="334.992727" xlink:href="#m8626c0c24c" y="72.173499"/>
     <use style="fill:#ff0000;stroke:#ff0000;" x="340.456364" xlink:href="#m8626c0c24c" y="74.529996"/>
     <use style="fill:#ff0000;stroke:#ff0000;" x="345.92" xlink:href="#m8626c0c24c" y="74.529996"/>
     <use style="fill:#ff0000;stroke:#ff0000;" x="351.383636" xlink:href="#m8626c0c24c" y="60.391017"/>
     <use style="fill:#ff0000;stroke:#ff0000;" x="356.847273" xlink:href="#m8626c0c24c" y="26.221818"/>
     <use style="fill:#ff0000;stroke:#ff0000;" x="362.310909" xlink:href="#m8626c0c24c" y="72.173499"/>
     <use style="fill:#ff0000;stroke:#ff0000;" x="367.774545" xlink:href="#m8626c0c24c" y="73.351748"/>
     <use style="fill:#ff0000;stroke:#ff0000;" x="373.238182" xlink:href="#m8626c0c24c" y="69.817003"/>
     <use style="fill:#ff0000;stroke:#ff0000;" x="378.701818" xlink:href="#m8626c0c24c" y="75.708244"/>
    </g>
   </g>
   <g id="patch_3">
    <path d="M 57.44 297.16 
L 57.44 13.32 
" style="fill:none;stroke:#000000;stroke-linecap:square;stroke-linejoin:miter;stroke-width:0.8;"/>
   </g>
   <g id="patch_4">
    <path d="M 394 297.16 
L 394 13.32 
" style="fill:none;stroke:#000000;stroke-linecap:square;stroke-linejoin:miter;stroke-width:0.8;"/>
   </g>
   <g id="patch_5">
    <path d="M 57.44 297.16 
L 394 297.16 
" style="fill:none;stroke:#000000;stroke-linecap:square;stroke-linejoin:miter;stroke-width:0.8;"/>
   </g>
   <g id="patch_6">
    <path d="M 57.44 13.32 
L 394 13.32 
" style="fill:none;stroke:#000000;stroke-linecap:square;stroke-linejoin:miter;stroke-width:0.8;"/>
   </g>
  </g>
  <g id="axes_2">
   <g id="matplotlib.axis_3">
    <g id="ytick_6">
     <g id="line2d_13">
      <defs>
       <path d="M 0 0 
L 3.5 0 
" id="m132ce11e51" style="stroke:#000000;stroke-width:0.8;"/>
      </defs>
      <g>
       <use style="stroke:#000000;stroke-width:0.8;" x="394" xlink:href="#m132ce11e51" y="284.258182"/>
      </g>
     </g>
     <g id="text_14">
      <!-- 96.0 -->
      <defs>
       <path d="M 10.984375 1.515625 
L 10.984375 10.5 
Q 14.703125 8.734375 18.5 7.8125 
Q 22.3125 6.890625 25.984375 6.890625 
Q 35.75 6.890625 40.890625 13.453125 
Q 46.046875 20.015625 46.78125 33.40625 
Q 43.953125 29.203125 39.59375 26.953125 
Q 35.25 24.703125 29.984375 24.703125 
Q 19.046875 24.703125 12.671875 31.3125 
Q 6.296875 37.9375 6.296875 49.421875 
Q 6.296875 60.640625 12.9375 67.421875 
Q 19.578125 74.21875 30.609375 74.21875 
Q 43.265625 74.21875 49.921875 64.515625 
Q 56.59375 54.828125 56.59375 36.375 
Q 56.59375 19.140625 48.40625 8.859375 
Q 40.234375 -1.421875 26.421875 -1.421875 
Q 22.703125 -1.421875 18.890625 -0.6875 
Q 15.09375 0.046875 10.984375 1.515625 
z
M 30.609375 32.421875 
Q 37.25 32.421875 41.125 36.953125 
Q 45.015625 41.5 45.015625 49.421875 
Q 45.015625 57.28125 41.125 61.84375 
Q 37.25 66.40625 30.609375 66.40625 
Q 23.96875 66.40625 20.09375 61.84375 
Q 16.21875 57.28125 16.21875 49.421875 
Q 16.21875 41.5 20.09375 36.953125 
Q 23.96875 32.421875 30.609375 32.421875 
z
" id="DejaVuSans-39"/>
       <path d="M 33.015625 40.375 
Q 26.375 40.375 22.484375 35.828125 
Q 18.609375 31.296875 18.609375 23.390625 
Q 18.609375 15.53125 22.484375 10.953125 
Q 26.375 6.390625 33.015625 6.390625 
Q 39.65625 6.390625 43.53125 10.953125 
Q 47.40625 15.53125 47.40625 23.390625 
Q 47.40625 31.296875 43.53125 35.828125 
Q 39.65625 40.375 33.015625 40.375 
z
M 52.59375 71.296875 
L 52.59375 62.3125 
Q 48.875 64.0625 45.09375 64.984375 
Q 41.3125 65.921875 37.59375 65.921875 
Q 27.828125 65.921875 22.671875 59.328125 
Q 17.53125 52.734375 16.796875 39.40625 
Q 19.671875 43.65625 24.015625 45.921875 
Q 28.375 48.1875 33.59375 48.1875 
Q 44.578125 48.1875 50.953125 41.515625 
Q 57.328125 34.859375 57.328125 23.390625 
Q 57.328125 12.15625 50.6875 5.359375 
Q 44.046875 -1.421875 33.015625 -1.421875 
Q 20.359375 -1.421875 13.671875 8.265625 
Q 6.984375 17.96875 6.984375 36.375 
Q 6.984375 53.65625 15.1875 63.9375 
Q 23.390625 74.21875 37.203125 74.21875 
Q 40.921875 74.21875 44.703125 73.484375 
Q 48.484375 72.75 52.59375 71.296875 
z
" id="DejaVuSans-36"/>
       <path d="M 10.6875 12.40625 
L 21 12.40625 
L 21 0 
L 10.6875 0 
z
" id="DejaVuSans-2e"/>
      </defs>
      <g transform="translate(401 288.057401)scale(0.1 -0.1)">
       <use xlink:href="#DejaVuSans-39"/>
       <use x="63.623047" xlink:href="#DejaVuSans-36"/>
       <use x="127.246094" xlink:href="#DejaVuSans-2e"/>
       <use x="159.033203" xlink:href="#DejaVuSans-30"/>
      </g>
     </g>
    </g>
    <g id="ytick_7">
     <g id="line2d_14">
      <g>
       <use style="stroke:#000000;stroke-width:0.8;" x="394" xlink:href="#m132ce11e51" y="252.003636"/>
      </g>
     </g>
     <g id="text_15">
      <!-- 96.5 -->
      <g transform="translate(401 255.802855)scale(0.1 -0.1)">
       <use xlink:href="#DejaVuSans-39"/>
       <use x="63.623047" xlink:href="#DejaVuSans-36"/>
       <use x="127.246094" xlink:href="#DejaVuSans-2e"/>
       <use x="159.033203" xlink:href="#DejaVuSans-35"/>
      </g>
     </g>
    </g>
    <g id="ytick_8">
     <g id="line2d_15">
      <g>
       <use style="stroke:#000000;stroke-width:0.8;" x="394" xlink:href="#m132ce11e51" y="219.749091"/>
      </g>
     </g>
     <g id="text_16">
      <!-- 97.0 -->
      <defs>
       <path d="M 8.203125 72.90625 
L 55.078125 72.90625 
L 55.078125 68.703125 
L 28.609375 0 
L 18.3125 0 
L 43.21875 64.59375 
L 8.203125 64.59375 
z
" id="DejaVuSans-37"/>
      </defs>
      <g transform="translate(401 223.54831)scale(0.1 -0.1)">
       <use xlink:href="#DejaVuSans-39"/>
       <use x="63.623047" xlink:href="#DejaVuSans-37"/>
       <use x="127.246094" xlink:href="#DejaVuSans-2e"/>
       <use x="159.033203" xlink:href="#DejaVuSans-30"/>
      </g>
     </g>
    </g>
    <g id="ytick_9">
     <g id="line2d_16">
      <g>
       <use style="stroke:#000000;stroke-width:0.8;" x="394" xlink:href="#m132ce11e51" y="187.494545"/>
      </g>
     </g>
     <g id="text_17">
      <!-- 97.5 -->
      <g transform="translate(401 191.293764)scale(0.1 -0.1)">
       <use xlink:href="#DejaVuSans-39"/>
       <use x="63.623047" xlink:href="#DejaVuSans-37"/>
       <use x="127.246094" xlink:href="#DejaVuSans-2e"/>
       <use x="159.033203" xlink:href="#DejaVuSans-35"/>
      </g>
     </g>
    </g>
    <g id="ytick_10">
     <g id="line2d_17">
      <g>
       <use style="stroke:#000000;stroke-width:0.8;" x="394" xlink:href="#m132ce11e51" y="155.24"/>
      </g>
     </g>
     <g id="text_18">
      <!-- 98.0 -->
      <defs>
       <path d="M 31.78125 34.625 
Q 24.75 34.625 20.71875 30.859375 
Q 16.703125 27.09375 16.703125 20.515625 
Q 16.703125 13.921875 20.71875 10.15625 
Q 24.75 6.390625 31.78125 6.390625 
Q 38.8125 6.390625 42.859375 10.171875 
Q 46.921875 13.96875 46.921875 20.515625 
Q 46.921875 27.09375 42.890625 30.859375 
Q 38.875 34.625 31.78125 34.625 
z
M 21.921875 38.8125 
Q 15.578125 40.375 12.03125 44.71875 
Q 8.5 49.078125 8.5 55.328125 
Q 8.5 64.0625 14.71875 69.140625 
Q 20.953125 74.21875 31.78125 74.21875 
Q 42.671875 74.21875 48.875 69.140625 
Q 55.078125 64.0625 55.078125 55.328125 
Q 55.078125 49.078125 51.53125 44.71875 
Q 48 40.375 41.703125 38.8125 
Q 48.828125 37.15625 52.796875 32.3125 
Q 56.78125 27.484375 56.78125 20.515625 
Q 56.78125 9.90625 50.3125 4.234375 
Q 43.84375 -1.421875 31.78125 -1.421875 
Q 19.734375 -1.421875 13.25 4.234375 
Q 6.78125 9.90625 6.78125 20.515625 
Q 6.78125 27.484375 10.78125 32.3125 
Q 14.796875 37.15625 21.921875 38.8125 
z
M 18.3125 54.390625 
Q 18.3125 48.734375 21.84375 45.5625 
Q 25.390625 42.390625 31.78125 42.390625 
Q 38.140625 42.390625 41.71875 45.5625 
Q 45.3125 48.734375 45.3125 54.390625 
Q 45.3125 60.0625 41.71875 63.234375 
Q 38.140625 66.40625 31.78125 66.40625 
Q 25.390625 66.40625 21.84375 63.234375 
Q 18.3125 60.0625 18.3125 54.390625 
z
" id="DejaVuSans-38"/>
      </defs>
      <g transform="translate(401 159.039219)scale(0.1 -0.1)">
       <use xlink:href="#DejaVuSans-39"/>
       <use x="63.623047" xlink:href="#DejaVuSans-38"/>
       <use x="127.246094" xlink:href="#DejaVuSans-2e"/>
       <use x="159.033203" xlink:href="#DejaVuSans-30"/>
      </g>
     </g>
    </g>
    <g id="ytick_11">
     <g id="line2d_18">
      <g>
       <use style="stroke:#000000;stroke-width:0.8;" x="394" xlink:href="#m132ce11e51" y="122.985455"/>
      </g>
     </g>
     <g id="text_19">
      <!-- 98.5 -->
      <g transform="translate(401 126.784673)scale(0.1 -0.1)">
       <use xlink:href="#DejaVuSans-39"/>
       <use x="63.623047" xlink:href="#DejaVuSans-38"/>
       <use x="127.246094" xlink:href="#DejaVuSans-2e"/>
       <use x="159.033203" xlink:href="#DejaVuSans-35"/>
      </g>
     </g>
    </g>
    <g id="ytick_12">
     <g id="line2d_19">
      <g>
       <use style="stroke:#000000;stroke-width:0.8;" x="394" xlink:href="#m132ce11e51" y="90.730909"/>
      </g>
     </g>
     <g id="text_20">
      <!-- 99.0 -->
      <g transform="translate(401 94.530128)scale(0.1 -0.1)">
       <use xlink:href="#DejaVuSans-39"/>
       <use x="63.623047" xlink:href="#DejaVuSans-39"/>
       <use x="127.246094" xlink:href="#DejaVuSans-2e"/>
       <use x="159.033203" xlink:href="#DejaVuSans-30"/>
      </g>
     </g>
    </g>
    <g id="ytick_13">
     <g id="line2d_20">
      <g>
       <use style="stroke:#000000;stroke-width:0.8;" x="394" xlink:href="#m132ce11e51" y="58.476364"/>
      </g>
     </g>
     <g id="text_21">
      <!-- 99.5 -->
      <g transform="translate(401 62.275582)scale(0.1 -0.1)">
       <use xlink:href="#DejaVuSans-39"/>
       <use x="63.623047" xlink:href="#DejaVuSans-39"/>
       <use x="127.246094" xlink:href="#DejaVuSans-2e"/>
       <use x="159.033203" xlink:href="#DejaVuSans-35"/>
      </g>
     </g>
    </g>
    <g id="ytick_14">
     <g id="line2d_21">
      <g>
       <use style="stroke:#000000;stroke-width:0.8;" x="394" xlink:href="#m132ce11e51" y="26.221818"/>
      </g>
     </g>
     <g id="text_22">
      <!-- 100.0 -->
      <g transform="translate(401 30.021037)scale(0.1 -0.1)">
       <use xlink:href="#DejaVuSans-31"/>
       <use x="63.623047" xlink:href="#DejaVuSans-30"/>
       <use x="127.246094" xlink:href="#DejaVuSans-30"/>
       <use x="190.869141" xlink:href="#DejaVuSans-2e"/>
       <use x="222.65625" xlink:href="#DejaVuSans-30"/>
      </g>
     </g>
    </g>
    <g id="text_23">
     <!-- GPU Utilization (%) -->
     <defs>
      <path d="M 59.515625 10.40625 
L 59.515625 29.984375 
L 43.40625 29.984375 
L 43.40625 38.09375 
L 69.28125 38.09375 
L 69.28125 6.78125 
Q 63.578125 2.734375 56.6875 0.65625 
Q 49.8125 -1.421875 42 -1.421875 
Q 24.90625 -1.421875 15.25 8.5625 
Q 5.609375 18.5625 5.609375 36.375 
Q 5.609375 54.25 15.25 64.234375 
Q 24.90625 74.21875 42 74.21875 
Q 49.125 74.21875 55.546875 72.453125 
Q 61.96875 70.703125 67.390625 67.28125 
L 67.390625 56.78125 
Q 61.921875 61.421875 55.765625 63.765625 
Q 49.609375 66.109375 42.828125 66.109375 
Q 29.4375 66.109375 22.71875 58.640625 
Q 16.015625 51.171875 16.015625 36.375 
Q 16.015625 21.625 22.71875 14.15625 
Q 29.4375 6.6875 42.828125 6.6875 
Q 48.046875 6.6875 52.140625 7.59375 
Q 56.25 8.5 59.515625 10.40625 
z
" id="DejaVuSans-47"/>
      <path d="M 8.6875 72.90625 
L 18.609375 72.90625 
L 18.609375 28.609375 
Q 18.609375 16.890625 22.84375 11.734375 
Q 27.09375 6.59375 36.625 6.59375 
Q 46.09375 6.59375 50.34375 11.734375 
Q 54.59375 16.890625 54.59375 28.609375 
L 54.59375 72.90625 
L 64.5 72.90625 
L 64.5 27.390625 
Q 64.5 13.140625 57.4375 5.859375 
Q 50.390625 -1.421875 36.625 -1.421875 
Q 22.796875 -1.421875 15.734375 5.859375 
Q 8.6875 13.140625 8.6875 27.390625 
z
" id="DejaVuSans-55"/>
      <path d="M 9.421875 75.984375 
L 18.40625 75.984375 
L 18.40625 0 
L 9.421875 0 
z
" id="DejaVuSans-6c"/>
      <path d="M 5.515625 54.6875 
L 48.1875 54.6875 
L 48.1875 46.484375 
L 14.40625 7.171875 
L 48.1875 7.171875 
L 48.1875 0 
L 4.296875 0 
L 4.296875 8.203125 
L 38.09375 47.515625 
L 5.515625 47.515625 
z
" id="DejaVuSans-7a"/>
      <path d="M 72.703125 32.078125 
Q 68.453125 32.078125 66.03125 28.46875 
Q 63.625 24.859375 63.625 18.40625 
Q 63.625 12.0625 66.03125 8.421875 
Q 68.453125 4.78125 72.703125 4.78125 
Q 76.859375 4.78125 79.265625 8.421875 
Q 81.6875 12.0625 81.6875 18.40625 
Q 81.6875 24.8125 79.265625 28.4375 
Q 76.859375 32.078125 72.703125 32.078125 
z
M 72.703125 38.28125 
Q 80.421875 38.28125 84.953125 32.90625 
Q 89.5 27.546875 89.5 18.40625 
Q 89.5 9.28125 84.9375 3.921875 
Q 80.375 -1.421875 72.703125 -1.421875 
Q 64.890625 -1.421875 60.34375 3.921875 
Q 55.8125 9.28125 55.8125 18.40625 
Q 55.8125 27.59375 60.375 32.9375 
Q 64.9375 38.28125 72.703125 38.28125 
z
M 22.3125 68.015625 
Q 18.109375 68.015625 15.6875 64.375 
Q 13.28125 60.75 13.28125 54.390625 
Q 13.28125 47.953125 15.671875 44.328125 
Q 18.0625 40.71875 22.3125 40.71875 
Q 26.5625 40.71875 28.96875 44.328125 
Q 31.390625 47.953125 31.390625 54.390625 
Q 31.390625 60.6875 28.953125 64.34375 
Q 26.515625 68.015625 22.3125 68.015625 
z
M 66.40625 74.21875 
L 74.21875 74.21875 
L 28.609375 -1.421875 
L 20.796875 -1.421875 
z
M 22.3125 74.21875 
Q 30.03125 74.21875 34.609375 68.875 
Q 39.203125 63.53125 39.203125 54.390625 
Q 39.203125 45.171875 34.640625 39.84375 
Q 30.078125 34.515625 22.3125 34.515625 
Q 14.546875 34.515625 10.03125 39.859375 
Q 5.515625 45.21875 5.515625 54.390625 
Q 5.515625 63.484375 10.046875 68.84375 
Q 14.59375 74.21875 22.3125 74.21875 
z
" id="DejaVuSans-25"/>
     </defs>
     <g style="fill:#008000;" transform="translate(445.785625 231.13)rotate(-90)scale(0.16 -0.16)">
      <use xlink:href="#DejaVuSans-47"/>
      <use x="77.490234" xlink:href="#DejaVuSans-50"/>
      <use x="137.792969" xlink:href="#DejaVuSans-55"/>
      <use x="210.986328" xlink:href="#DejaVuSans-20"/>
      <use x="242.773438" xlink:href="#DejaVuSans-55"/>
      <use x="315.966797" xlink:href="#DejaVuSans-74"/>
      <use x="355.175781" xlink:href="#DejaVuSans-69"/>
      <use x="382.958984" xlink:href="#DejaVuSans-6c"/>
      <use x="410.742188" xlink:href="#DejaVuSans-69"/>
      <use x="438.525391" xlink:href="#DejaVuSans-7a"/>
      <use x="491.015625" xlink:href="#DejaVuSans-61"/>
      <use x="552.294922" xlink:href="#DejaVuSans-74"/>
      <use x="591.503906" xlink:href="#DejaVuSans-69"/>
      <use x="619.287109" xlink:href="#DejaVuSans-6f"/>
      <use x="680.46875" xlink:href="#DejaVuSans-6e"/>
      <use x="743.847656" xlink:href="#DejaVuSans-20"/>
      <use x="775.634766" xlink:href="#DejaVuSans-28"/>
      <use x="814.648438" xlink:href="#DejaVuSans-25"/>
      <use x="909.667969" xlink:href="#DejaVuSans-29"/>
     </g>
    </g>
   </g>
   <g id="line2d_22">
    <path clip-path="url(#pbb38729011)" d="M 72.738182 284.258182 
L 78.201818 26.221818 
L 83.665455 26.221818 
L 89.129091 26.221818 
L 94.592727 90.730909 
L 100.056364 26.221818 
L 105.52 26.221818 
L 110.983636 26.221818 
L 116.447273 26.221818 
L 121.910909 90.730909 
L 127.374545 26.221818 
L 132.838182 90.730909 
L 138.301818 26.221818 
L 143.765455 26.221818 
L 149.229091 26.221818 
L 154.692727 26.221818 
L 160.156364 90.730909 
L 165.62 26.221818 
L 171.083636 90.730909 
L 176.547273 26.221818 
L 182.010909 26.221818 
L 187.474545 26.221818 
L 192.938182 26.221818 
L 198.401818 26.221818 
L 203.865455 26.221818 
L 209.329091 90.730909 
L 214.792727 26.221818 
L 220.256364 26.221818 
L 225.72 26.221818 
L 231.183636 26.221818 
L 236.647273 26.221818 
L 242.110909 26.221818 
L 247.574545 26.221818 
L 253.038182 26.221818 
L 258.501818 26.221818 
L 263.965455 90.730909 
L 269.429091 26.221818 
L 274.892727 26.221818 
L 280.356364 26.221818 
L 285.82 26.221818 
L 291.283636 26.221818 
L 296.747273 26.221818 
L 302.210909 26.221818 
L 307.674545 26.221818 
L 313.138182 26.221818 
L 318.601818 26.221818 
L 324.065455 26.221818 
L 329.529091 26.221818 
L 334.992727 26.221818 
L 340.456364 26.221818 
L 345.92 26.221818 
L 351.383636 26.221818 
L 356.847273 26.221818 
L 362.310909 26.221818 
L 367.774545 90.730909 
L 373.238182 26.221818 
L 378.701818 26.221818 
" style="fill:none;stroke:#008000;stroke-linecap:square;stroke-width:1.5;"/>
    <defs>
     <path d="M 0 3 
C 0.795609 3 1.55874 2.683901 2.12132 2.12132 
C 2.683901 1.55874 3 0.795609 3 0 
C 3 -0.795609 2.683901 -1.55874 2.12132 -2.12132 
C 1.55874 -2.683901 0.795609 -3 0 -3 
C -0.795609 -3 -1.55874 -2.683901 -2.12132 -2.12132 
C -2.683901 -1.55874 -3 -0.795609 -3 0 
C -3 0.795609 -2.683901 1.55874 -2.12132 2.12132 
C -1.55874 2.683901 -0.795609 3 0 3 
z
" id="mcd3b07a1ae" style="stroke:#008000;"/>
    </defs>
    <g clip-path="url(#pbb38729011)">
     <use style="fill:#008000;stroke:#008000;" x="72.738182" xlink:href="#mcd3b07a1ae" y="284.258182"/>
     <use style="fill:#008000;stroke:#008000;" x="78.201818" xlink:href="#mcd3b07a1ae" y="26.221818"/>
     <use style="fill:#008000;stroke:#008000;" x="83.665455" xlink:href="#mcd3b07a1ae" y="26.221818"/>
     <use style="fill:#008000;stroke:#008000;" x="89.129091" xlink:href="#mcd3b07a1ae" y="26.221818"/>
     <use style="fill:#008000;stroke:#008000;" x="94.592727" xlink:href="#mcd3b07a1ae" y="90.730909"/>
     <use style="fill:#008000;stroke:#008000;" x="100.056364" xlink:href="#mcd3b07a1ae" y="26.221818"/>
     <use style="fill:#008000;stroke:#008000;" x="105.52" xlink:href="#mcd3b07a1ae" y="26.221818"/>
     <use style="fill:#008000;stroke:#008000;" x="110.983636" xlink:href="#mcd3b07a1ae" y="26.221818"/>
     <use style="fill:#008000;stroke:#008000;" x="116.447273" xlink:href="#mcd3b07a1ae" y="26.221818"/>
     <use style="fill:#008000;stroke:#008000;" x="121.910909" xlink:href="#mcd3b07a1ae" y="90.730909"/>
     <use style="fill:#008000;stroke:#008000;" x="127.374545" xlink:href="#mcd3b07a1ae" y="26.221818"/>
     <use style="fill:#008000;stroke:#008000;" x="132.838182" xlink:href="#mcd3b07a1ae" y="90.730909"/>
     <use style="fill:#008000;stroke:#008000;" x="138.301818" xlink:href="#mcd3b07a1ae" y="26.221818"/>
     <use style="fill:#008000;stroke:#008000;" x="143.765455" xlink:href="#mcd3b07a1ae" y="26.221818"/>
     <use style="fill:#008000;stroke:#008000;" x="149.229091" xlink:href="#mcd3b07a1ae" y="26.221818"/>
     <use style="fill:#008000;stroke:#008000;" x="154.692727" xlink:href="#mcd3b07a1ae" y="26.221818"/>
     <use style="fill:#008000;stroke:#008000;" x="160.156364" xlink:href="#mcd3b07a1ae" y="90.730909"/>
     <use style="fill:#008000;stroke:#008000;" x="165.62" xlink:href="#mcd3b07a1ae" y="26.221818"/>
     <use style="fill:#008000;stroke:#008000;" x="171.083636" xlink:href="#mcd3b07a1ae" y="90.730909"/>
     <use style="fill:#008000;stroke:#008000;" x="176.547273" xlink:href="#mcd3b07a1ae" y="26.221818"/>
     <use style="fill:#008000;stroke:#008000;" x="182.010909" xlink:href="#mcd3b07a1ae" y="26.221818"/>
     <use style="fill:#008000;stroke:#008000;" x="187.474545" xlink:href="#mcd3b07a1ae" y="26.221818"/>
     <use style="fill:#008000;stroke:#008000;" x="192.938182" xlink:href="#mcd3b07a1ae" y="26.221818"/>
     <use style="fill:#008000;stroke:#008000;" x="198.401818" xlink:href="#mcd3b07a1ae" y="26.221818"/>
     <use style="fill:#008000;stroke:#008000;" x="203.865455" xlink:href="#mcd3b07a1ae" y="26.221818"/>
     <use style="fill:#008000;stroke:#008000;" x="209.329091" xlink:href="#mcd3b07a1ae" y="90.730909"/>
     <use style="fill:#008000;stroke:#008000;" x="214.792727" xlink:href="#mcd3b07a1ae" y="26.221818"/>
     <use style="fill:#008000;stroke:#008000;" x="220.256364" xlink:href="#mcd3b07a1ae" y="26.221818"/>
     <use style="fill:#008000;stroke:#008000;" x="225.72" xlink:href="#mcd3b07a1ae" y="26.221818"/>
     <use style="fill:#008000;stroke:#008000;" x="231.183636" xlink:href="#mcd3b07a1ae" y="26.221818"/>
     <use style="fill:#008000;stroke:#008000;" x="236.647273" xlink:href="#mcd3b07a1ae" y="26.221818"/>
     <use style="fill:#008000;stroke:#008000;" x="242.110909" xlink:href="#mcd3b07a1ae" y="26.221818"/>
     <use style="fill:#008000;stroke:#008000;" x="247.574545" xlink:href="#mcd3b07a1ae" y="26.221818"/>
     <use style="fill:#008000;stroke:#008000;" x="253.038182" xlink:href="#mcd3b07a1ae" y="26.221818"/>
     <use style="fill:#008000;stroke:#008000;" x="258.501818" xlink:href="#mcd3b07a1ae" y="26.221818"/>
     <use style="fill:#008000;stroke:#008000;" x="263.965455" xlink:href="#mcd3b07a1ae" y="90.730909"/>
     <use style="fill:#008000;stroke:#008000;" x="269.429091" xlink:href="#mcd3b07a1ae" y="26.221818"/>
     <use style="fill:#008000;stroke:#008000;" x="274.892727" xlink:href="#mcd3b07a1ae" y="26.221818"/>
     <use style="fill:#008000;stroke:#008000;" x="280.356364" xlink:href="#mcd3b07a1ae" y="26.221818"/>
     <use style="fill:#008000;stroke:#008000;" x="285.82" xlink:href="#mcd3b07a1ae" y="26.221818"/>
     <use style="fill:#008000;stroke:#008000;" x="291.283636" xlink:href="#mcd3b07a1ae" y="26.221818"/>
     <use style="fill:#008000;stroke:#008000;" x="296.747273" xlink:href="#mcd3b07a1ae" y="26.221818"/>
     <use style="fill:#008000;stroke:#008000;" x="302.210909" xlink:href="#mcd3b07a1ae" y="26.221818"/>
     <use style="fill:#008000;stroke:#008000;" x="307.674545" xlink:href="#mcd3b07a1ae" y="26.221818"/>
     <use style="fill:#008000;stroke:#008000;" x="313.138182" xlink:href="#mcd3b07a1ae" y="26.221818"/>
     <use style="fill:#008000;stroke:#008000;" x="318.601818" xlink:href="#mcd3b07a1ae" y="26.221818"/>
     <use style="fill:#008000;stroke:#008000;" x="324.065455" xlink:href="#mcd3b07a1ae" y="26.221818"/>
     <use style="fill:#008000;stroke:#008000;" x="329.529091" xlink:href="#mcd3b07a1ae" y="26.221818"/>
     <use style="fill:#008000;stroke:#008000;" x="334.992727" xlink:href="#mcd3b07a1ae" y="26.221818"/>
     <use style="fill:#008000;stroke:#008000;" x="340.456364" xlink:href="#mcd3b07a1ae" y="26.221818"/>
     <use style="fill:#008000;stroke:#008000;" x="345.92" xlink:href="#mcd3b07a1ae" y="26.221818"/>
     <use style="fill:#008000;stroke:#008000;" x="351.383636" xlink:href="#mcd3b07a1ae" y="26.221818"/>
     <use style="fill:#008000;stroke:#008000;" x="356.847273" xlink:href="#mcd3b07a1ae" y="26.221818"/>
     <use style="fill:#008000;stroke:#008000;" x="362.310909" xlink:href="#mcd3b07a1ae" y="26.221818"/>
     <use style="fill:#008000;stroke:#008000;" x="367.774545" xlink:href="#mcd3b07a1ae" y="90.730909"/>
     <use style="fill:#008000;stroke:#008000;" x="373.238182" xlink:href="#mcd3b07a1ae" y="26.221818"/>
     <use style="fill:#008000;stroke:#008000;" x="378.701818" xlink:href="#mcd3b07a1ae" y="26.221818"/>
    </g>
   </g>
   <g id="patch_7">
    <path d="M 57.44 297.16 
L 57.44 13.32 
" style="fill:none;stroke:#000000;stroke-linecap:square;stroke-linejoin:miter;stroke-width:0.8;"/>
   </g>
   <g id="patch_8">
    <path d="M 394 297.16 
L 394 13.32 
" style="fill:none;stroke:#000000;stroke-linecap:square;stroke-linejoin:miter;stroke-width:0.8;"/>
   </g>
   <g id="patch_9">
    <path d="M 57.44 297.16 
L 394 297.16 
" style="fill:none;stroke:#000000;stroke-linecap:square;stroke-linejoin:miter;stroke-width:0.8;"/>
   </g>
   <g id="patch_10">
    <path d="M 57.44 13.32 
L 394 13.32 
" style="fill:none;stroke:#000000;stroke-linecap:square;stroke-linejoin:miter;stroke-width:0.8;"/>
   </g>
  </g>
 </g>
 <defs>
  <clipPath id="pbb38729011">
   <rect height="283.84" width="336.56" x="57.44" y="13.32"/>
  </clipPath>
 </defs>
</svg>
