<?xml version="1.0" encoding="utf-8" standalone="no"?>
<!DOCTYPE svg PUBLIC "-//W3C//DTD SVG 1.1//EN"
  "http://www.w3.org/Graphics/SVG/1.1/DTD/svg11.dtd">
<!-- Created with matplotlib (http://matplotlib.org/) -->
<svg height="432pt" version="1.1" viewBox="0 0 576 432" width="576pt" xmlns="http://www.w3.org/2000/svg" xmlns:xlink="http://www.w3.org/1999/xlink">
 <defs>
  <style type="text/css">
*{stroke-linecap:butt;stroke-linejoin:round;}
  </style>
 </defs>
 <g id="figure_1">
  <g id="patch_1">
   <path d="
M0 432
L576 432
L576 0
L0 0
z
" style="fill:#ffffff;"/>
  </g>
  <g id="axes_1">
   <g id="patch_2">
    <path d="
M59.3241 381.24
L505.595 381.24
L505.595 19.26
L59.3241 19.26
z
" style="fill:#ffffff;"/>
   </g>
   <g id="PolyCollection_1">
    <defs>
     <path d="
M59.3241 -50.76
L59.3241 -305.594
L66.7619 -302.698
L74.1998 -312.834
L81.6376 -302.698
L89.0754 -307.042
L96.5133 -324.417
L103.951 -296.906
L111.389 -302.698
L118.827 -308.49
L126.265 -307.042
L133.703 -301.25
L141.14 -308.49
L148.578 -324.417
L156.016 -338.896
L163.454 -308.49
L170.892 -304.146
L178.33 -311.386
L185.767 -298.354
L193.205 -314.281
L200.643 -334.552
L208.081 -364.959
L215.519 -308.49
L222.957 -307.042
L230.394 -315.729
L237.832 -304.146
L245.27 -308.49
L252.708 -324.417
L260.146 -350.479
L267.584 -308.49
L275.022 -307.042
L282.459 -311.386
L289.897 -309.938
L297.335 -314.281
L304.773 -309.938
L312.211 -322.969
L319.649 -353.375
L327.086 -314.281
L334.524 -307.042
L341.962 -314.281
L349.4 -311.386
L356.838 -309.938
L364.276 -305.594
L371.714 -317.177
L379.151 -333.104
L386.589 -308.49
L394.027 -311.386
L401.465 -308.49
L408.903 -311.386
L416.341 -311.386
L423.778 -308.49
L431.216 -308.49
L438.654 -325.865
L446.092 -367.854
L453.53 -311.386
L460.968 -309.938
L468.405 -314.281
L475.843 -307.042
L475.843 -50.76
L475.843 -50.76
L468.405 -50.76
L460.968 -50.76
L453.53 -50.76
L446.092 -50.76
L438.654 -50.76
L431.216 -50.76
L423.778 -50.76
L416.341 -50.76
L408.903 -50.76
L401.465 -50.76
L394.027 -50.76
L386.589 -50.76
L379.151 -50.76
L371.714 -50.76
L364.276 -50.76
L356.838 -50.76
L349.4 -50.76
L341.962 -50.76
L334.524 -50.76
L327.086 -50.76
L319.649 -50.76
L312.211 -50.76
L304.773 -50.76
L297.335 -50.76
L289.897 -50.76
L282.459 -50.76
L275.022 -50.76
L267.584 -50.76
L260.146 -50.76
L252.708 -50.76
L245.27 -50.76
L237.832 -50.76
L230.394 -50.76
L222.957 -50.76
L215.519 -50.76
L208.081 -50.76
L200.643 -50.76
L193.205 -50.76
L185.767 -50.76
L178.33 -50.76
L170.892 -50.76
L163.454 -50.76
L156.016 -50.76
L148.578 -50.76
L141.14 -50.76
L133.703 -50.76
L126.265 -50.76
L118.827 -50.76
L111.389 -50.76
L103.951 -50.76
L96.5133 -50.76
L89.0754 -50.76
L81.6376 -50.76
L74.1998 -50.76
L66.7619 -50.76
L59.3241 -50.76
z
" id="C0_0_857e9996f0"/>
    </defs>
    <g clip-path="url(#p938fe646c7)">
     <use style="fill:#ffa500;stroke:#ffa500;" x="0.0" xlink:href="#C0_0_857e9996f0" y="432.0"/>
    </g>
   </g>
   <g id="line2d_1">
    <path clip-path="url(#p938fe646c7)" d="
M59.3241 126.406
L66.7619 129.302
L74.1998 119.166
L81.6376 129.302
L89.0754 124.958
L96.5133 107.583
L103.951 135.094
L111.389 129.302
L118.827 123.51
L126.265 124.958
L133.703 130.75
L141.14 123.51
L148.578 107.583
L156.016 93.1039
L163.454 123.51
L170.892 127.854
L178.33 120.614
L185.767 133.646
L193.205 117.719
L200.643 97.4477
L208.081 67.0414
L215.519 123.51
L222.957 124.958
L230.394 116.271
L237.832 127.854
L245.27 123.51
L252.708 107.583
L260.146 81.5206
L267.584 123.51
L275.022 124.958
L282.459 120.614
L289.897 122.062
L297.335 117.719
L304.773 122.062
L312.211 109.031
L319.649 78.6247
L327.086 117.719
L334.524 124.958
L341.962 117.719
L349.4 120.614
L356.838 122.062
L364.276 126.406
L371.714 114.823
L379.151 98.8956
L386.589 123.51
L394.027 120.614
L401.465 123.51
L408.903 120.614
L416.341 120.614
L423.778 123.51
L431.216 123.51
L438.654 106.135
L446.092 64.1455
L453.53 120.614
L460.968 122.062
L468.405 117.719
L475.843 124.958" style="fill:none;stroke:#ff0000;stroke-linecap:square;"/>
    <defs>
     <path d="
M0 3
C0.795609 3 1.55874 2.6839 2.12132 2.12132
C2.6839 1.55874 3 0.795609 3 0
C3 -0.795609 2.6839 -1.55874 2.12132 -2.12132
C1.55874 -2.6839 0.795609 -3 0 -3
C-0.795609 -3 -1.55874 -2.6839 -2.12132 -2.12132
C-2.6839 -1.55874 -3 -0.795609 -3 0
C-3 0.795609 -2.6839 1.55874 -2.12132 2.12132
C-1.55874 2.6839 -0.795609 3 0 3
z
" id="md175be6dbf" style="stroke:#000000;stroke-width:0.5;"/>
    </defs>
    <g clip-path="url(#p938fe646c7)">
     <use style="fill:#ff0000;stroke:#000000;stroke-width:0.5;" x="59.3240625" xlink:href="#md175be6dbf" y="126.40608"/>
     <use style="fill:#ff0000;stroke:#000000;stroke-width:0.5;" x="66.76190625" xlink:href="#md175be6dbf" y="129.30192"/>
     <use style="fill:#ff0000;stroke:#000000;stroke-width:0.5;" x="74.19975" xlink:href="#md175be6dbf" y="119.16648"/>
     <use style="fill:#ff0000;stroke:#000000;stroke-width:0.5;" x="81.63759375" xlink:href="#md175be6dbf" y="129.30192"/>
     <use style="fill:#ff0000;stroke:#000000;stroke-width:0.5;" x="89.0754375" xlink:href="#md175be6dbf" y="124.95816"/>
     <use style="fill:#ff0000;stroke:#000000;stroke-width:0.5;" x="96.51328125" xlink:href="#md175be6dbf" y="107.58312"/>
     <use style="fill:#ff0000;stroke:#000000;stroke-width:0.5;" x="103.951125" xlink:href="#md175be6dbf" y="135.0936"/>
     <use style="fill:#ff0000;stroke:#000000;stroke-width:0.5;" x="111.38896875" xlink:href="#md175be6dbf" y="129.30192"/>
     <use style="fill:#ff0000;stroke:#000000;stroke-width:0.5;" x="118.8268125" xlink:href="#md175be6dbf" y="123.51024"/>
     <use style="fill:#ff0000;stroke:#000000;stroke-width:0.5;" x="126.26465625" xlink:href="#md175be6dbf" y="124.95816"/>
     <use style="fill:#ff0000;stroke:#000000;stroke-width:0.5;" x="133.7025" xlink:href="#md175be6dbf" y="130.74984"/>
     <use style="fill:#ff0000;stroke:#000000;stroke-width:0.5;" x="141.14034375" xlink:href="#md175be6dbf" y="123.51024"/>
     <use style="fill:#ff0000;stroke:#000000;stroke-width:0.5;" x="148.5781875" xlink:href="#md175be6dbf" y="107.58312"/>
     <use style="fill:#ff0000;stroke:#000000;stroke-width:0.5;" x="156.01603125" xlink:href="#md175be6dbf" y="93.10392"/>
     <use style="fill:#ff0000;stroke:#000000;stroke-width:0.5;" x="163.453875" xlink:href="#md175be6dbf" y="123.51024"/>
     <use style="fill:#ff0000;stroke:#000000;stroke-width:0.5;" x="170.89171875" xlink:href="#md175be6dbf" y="127.854"/>
     <use style="fill:#ff0000;stroke:#000000;stroke-width:0.5;" x="178.3295625" xlink:href="#md175be6dbf" y="120.6144"/>
     <use style="fill:#ff0000;stroke:#000000;stroke-width:0.5;" x="185.76740625" xlink:href="#md175be6dbf" y="133.64568"/>
     <use style="fill:#ff0000;stroke:#000000;stroke-width:0.5;" x="193.20525" xlink:href="#md175be6dbf" y="117.71856"/>
     <use style="fill:#ff0000;stroke:#000000;stroke-width:0.5;" x="200.64309375" xlink:href="#md175be6dbf" y="97.44768"/>
     <use style="fill:#ff0000;stroke:#000000;stroke-width:0.5;" x="208.0809375" xlink:href="#md175be6dbf" y="67.04136"/>
     <use style="fill:#ff0000;stroke:#000000;stroke-width:0.5;" x="215.51878125" xlink:href="#md175be6dbf" y="123.51024"/>
     <use style="fill:#ff0000;stroke:#000000;stroke-width:0.5;" x="222.956625" xlink:href="#md175be6dbf" y="124.95816"/>
     <use style="fill:#ff0000;stroke:#000000;stroke-width:0.5;" x="230.39446875" xlink:href="#md175be6dbf" y="116.27064"/>
     <use style="fill:#ff0000;stroke:#000000;stroke-width:0.5;" x="237.8323125" xlink:href="#md175be6dbf" y="127.854"/>
     <use style="fill:#ff0000;stroke:#000000;stroke-width:0.5;" x="245.27015625" xlink:href="#md175be6dbf" y="123.51024"/>
     <use style="fill:#ff0000;stroke:#000000;stroke-width:0.5;" x="252.708" xlink:href="#md175be6dbf" y="107.58312"/>
     <use style="fill:#ff0000;stroke:#000000;stroke-width:0.5;" x="260.14584375" xlink:href="#md175be6dbf" y="81.52056"/>
     <use style="fill:#ff0000;stroke:#000000;stroke-width:0.5;" x="267.5836875" xlink:href="#md175be6dbf" y="123.51024"/>
     <use style="fill:#ff0000;stroke:#000000;stroke-width:0.5;" x="275.02153125" xlink:href="#md175be6dbf" y="124.95816"/>
     <use style="fill:#ff0000;stroke:#000000;stroke-width:0.5;" x="282.459375" xlink:href="#md175be6dbf" y="120.6144"/>
     <use style="fill:#ff0000;stroke:#000000;stroke-width:0.5;" x="289.89721875" xlink:href="#md175be6dbf" y="122.06232"/>
     <use style="fill:#ff0000;stroke:#000000;stroke-width:0.5;" x="297.3350625" xlink:href="#md175be6dbf" y="117.71856"/>
     <use style="fill:#ff0000;stroke:#000000;stroke-width:0.5;" x="304.77290625" xlink:href="#md175be6dbf" y="122.06232"/>
     <use style="fill:#ff0000;stroke:#000000;stroke-width:0.5;" x="312.21075" xlink:href="#md175be6dbf" y="109.03104"/>
     <use style="fill:#ff0000;stroke:#000000;stroke-width:0.5;" x="319.64859375" xlink:href="#md175be6dbf" y="78.62472"/>
     <use style="fill:#ff0000;stroke:#000000;stroke-width:0.5;" x="327.0864375" xlink:href="#md175be6dbf" y="117.71856"/>
     <use style="fill:#ff0000;stroke:#000000;stroke-width:0.5;" x="334.52428125" xlink:href="#md175be6dbf" y="124.95816"/>
     <use style="fill:#ff0000;stroke:#000000;stroke-width:0.5;" x="341.962125" xlink:href="#md175be6dbf" y="117.71856"/>
     <use style="fill:#ff0000;stroke:#000000;stroke-width:0.5;" x="349.39996875" xlink:href="#md175be6dbf" y="120.6144"/>
     <use style="fill:#ff0000;stroke:#000000;stroke-width:0.5;" x="356.8378125" xlink:href="#md175be6dbf" y="122.06232"/>
     <use style="fill:#ff0000;stroke:#000000;stroke-width:0.5;" x="364.27565625" xlink:href="#md175be6dbf" y="126.40608"/>
     <use style="fill:#ff0000;stroke:#000000;stroke-width:0.5;" x="371.7135" xlink:href="#md175be6dbf" y="114.82272"/>
     <use style="fill:#ff0000;stroke:#000000;stroke-width:0.5;" x="379.15134375" xlink:href="#md175be6dbf" y="98.8956"/>
     <use style="fill:#ff0000;stroke:#000000;stroke-width:0.5;" x="386.5891875" xlink:href="#md175be6dbf" y="123.51024"/>
     <use style="fill:#ff0000;stroke:#000000;stroke-width:0.5;" x="394.02703125" xlink:href="#md175be6dbf" y="120.6144"/>
     <use style="fill:#ff0000;stroke:#000000;stroke-width:0.5;" x="401.464875" xlink:href="#md175be6dbf" y="123.51024"/>
     <use style="fill:#ff0000;stroke:#000000;stroke-width:0.5;" x="408.90271875" xlink:href="#md175be6dbf" y="120.6144"/>
     <use style="fill:#ff0000;stroke:#000000;stroke-width:0.5;" x="416.3405625" xlink:href="#md175be6dbf" y="120.6144"/>
     <use style="fill:#ff0000;stroke:#000000;stroke-width:0.5;" x="423.77840625" xlink:href="#md175be6dbf" y="123.51024"/>
     <use style="fill:#ff0000;stroke:#000000;stroke-width:0.5;" x="431.21625" xlink:href="#md175be6dbf" y="123.51024"/>
     <use style="fill:#ff0000;stroke:#000000;stroke-width:0.5;" x="438.65409375" xlink:href="#md175be6dbf" y="106.1352"/>
     <use style="fill:#ff0000;stroke:#000000;stroke-width:0.5;" x="446.0919375" xlink:href="#md175be6dbf" y="64.14552"/>
     <use style="fill:#ff0000;stroke:#000000;stroke-width:0.5;" x="453.52978125" xlink:href="#md175be6dbf" y="120.6144"/>
     <use style="fill:#ff0000;stroke:#000000;stroke-width:0.5;" x="460.967625" xlink:href="#md175be6dbf" y="122.06232"/>
     <use style="fill:#ff0000;stroke:#000000;stroke-width:0.5;" x="468.40546875" xlink:href="#md175be6dbf" y="117.71856"/>
     <use style="fill:#ff0000;stroke:#000000;stroke-width:0.5;" x="475.8433125" xlink:href="#md175be6dbf" y="124.95816"/>
    </g>
   </g>
   <g id="matplotlib.axis_1">
    <g id="xtick_1">
     <g id="line2d_2">
      <defs>
       <path d="
M0 0
L0 -4" id="m93b0483c22" style="stroke:#000000;stroke-width:0.5;"/>
      </defs>
      <g>
       <use style="stroke:#000000;stroke-width:0.5;" x="59.3240625" xlink:href="#m93b0483c22" y="381.24"/>
      </g>
     </g>
     <g id="line2d_3">
      <defs>
       <path d="
M0 0
L0 4" id="m741efc42ff" style="stroke:#000000;stroke-width:0.5;"/>
      </defs>
      <g>
       <use style="stroke:#000000;stroke-width:0.5;" x="59.3240625" xlink:href="#m741efc42ff" y="19.26"/>
      </g>
     </g>
     <g id="text_1">
      <!-- 0 -->
      <defs>
       <path d="
M31.7812 66.4062
Q24.1719 66.4062 20.3281 58.9062
Q16.5 51.4219 16.5 36.375
Q16.5 21.3906 20.3281 13.8906
Q24.1719 6.39062 31.7812 6.39062
Q39.4531 6.39062 43.2812 13.8906
Q47.125 21.3906 47.125 36.375
Q47.125 51.4219 43.2812 58.9062
Q39.4531 66.4062 31.7812 66.4062
M31.7812 74.2188
Q44.0469 74.2188 50.5156 64.5156
Q56.9844 54.8281 56.9844 36.375
Q56.9844 17.9688 50.5156 8.26562
Q44.0469 -1.42188 31.7812 -1.42188
Q19.5312 -1.42188 13.0625 8.26562
Q6.59375 17.9688 6.59375 36.375
Q6.59375 54.8281 13.0625 64.5156
Q19.5312 74.2188 31.7812 74.2188" id="BitstreamVeraSans-Roman-30"/>
      </defs>
      <g transform="translate(56.300625 394.358125)scale(0.12 -0.12)">
       <use xlink:href="#BitstreamVeraSans-Roman-30"/>
      </g>
     </g>
    </g>
    <g id="xtick_2">
     <g id="line2d_4">
      <g>
       <use style="stroke:#000000;stroke-width:0.5;" x="133.7025" xlink:href="#m93b0483c22" y="381.24"/>
      </g>
     </g>
     <g id="line2d_5">
      <g>
       <use style="stroke:#000000;stroke-width:0.5;" x="133.7025" xlink:href="#m741efc42ff" y="19.26"/>
      </g>
     </g>
     <g id="text_2">
      <!-- 10 -->
      <defs>
       <path d="
M12.4062 8.29688
L28.5156 8.29688
L28.5156 63.9219
L10.9844 60.4062
L10.9844 69.3906
L28.4219 72.9062
L38.2812 72.9062
L38.2812 8.29688
L54.3906 8.29688
L54.3906 0
L12.4062 0
z
" id="BitstreamVeraSans-Roman-31"/>
      </defs>
      <g transform="translate(127.125 394.358125)scale(0.12 -0.12)">
       <use xlink:href="#BitstreamVeraSans-Roman-31"/>
       <use x="63.623046875" xlink:href="#BitstreamVeraSans-Roman-30"/>
      </g>
     </g>
    </g>
    <g id="xtick_3">
     <g id="line2d_6">
      <g>
       <use style="stroke:#000000;stroke-width:0.5;" x="208.0809375" xlink:href="#m93b0483c22" y="381.24"/>
      </g>
     </g>
     <g id="line2d_7">
      <g>
       <use style="stroke:#000000;stroke-width:0.5;" x="208.0809375" xlink:href="#m741efc42ff" y="19.26"/>
      </g>
     </g>
     <g id="text_3">
      <!-- 20 -->
      <defs>
       <path d="
M19.1875 8.29688
L53.6094 8.29688
L53.6094 0
L7.32812 0
L7.32812 8.29688
Q12.9375 14.1094 22.625 23.8906
Q32.3281 33.6875 34.8125 36.5312
Q39.5469 41.8438 41.4219 45.5312
Q43.3125 49.2188 43.3125 52.7812
Q43.3125 58.5938 39.2344 62.25
Q35.1562 65.9219 28.6094 65.9219
Q23.9688 65.9219 18.8125 64.3125
Q13.6719 62.7031 7.8125 59.4219
L7.8125 69.3906
Q13.7656 71.7812 18.9375 73
Q24.125 74.2188 28.4219 74.2188
Q39.75 74.2188 46.4844 68.5469
Q53.2188 62.8906 53.2188 53.4219
Q53.2188 48.9219 51.5312 44.8906
Q49.8594 40.875 45.4062 35.4062
Q44.1875 33.9844 37.6406 27.2188
Q31.1094 20.4531 19.1875 8.29688" id="BitstreamVeraSans-Roman-32"/>
      </defs>
      <g transform="translate(201.2840625 394.358125)scale(0.12 -0.12)">
       <use xlink:href="#BitstreamVeraSans-Roman-32"/>
       <use x="63.623046875" xlink:href="#BitstreamVeraSans-Roman-30"/>
      </g>
     </g>
    </g>
    <g id="xtick_4">
     <g id="line2d_8">
      <g>
       <use style="stroke:#000000;stroke-width:0.5;" x="282.459375" xlink:href="#m93b0483c22" y="381.24"/>
      </g>
     </g>
     <g id="line2d_9">
      <g>
       <use style="stroke:#000000;stroke-width:0.5;" x="282.459375" xlink:href="#m741efc42ff" y="19.26"/>
      </g>
     </g>
     <g id="text_4">
      <!-- 30 -->
      <defs>
       <path d="
M40.5781 39.3125
Q47.6562 37.7969 51.625 33
Q55.6094 28.2188 55.6094 21.1875
Q55.6094 10.4062 48.1875 4.48438
Q40.7656 -1.42188 27.0938 -1.42188
Q22.5156 -1.42188 17.6562 -0.515625
Q12.7969 0.390625 7.625 2.20312
L7.625 11.7188
Q11.7188 9.32812 16.5938 8.10938
Q21.4844 6.89062 26.8125 6.89062
Q36.0781 6.89062 40.9375 10.5469
Q45.7969 14.2031 45.7969 21.1875
Q45.7969 27.6406 41.2812 31.2656
Q36.7656 34.9062 28.7188 34.9062
L20.2188 34.9062
L20.2188 43.0156
L29.1094 43.0156
Q36.375 43.0156 40.2344 45.9219
Q44.0938 48.8281 44.0938 54.2969
Q44.0938 59.9062 40.1094 62.9062
Q36.1406 65.9219 28.7188 65.9219
Q24.6562 65.9219 20.0156 65.0312
Q15.375 64.1562 9.8125 62.3125
L9.8125 71.0938
Q15.4375 72.6562 20.3438 73.4375
Q25.25 74.2188 29.5938 74.2188
Q40.8281 74.2188 47.3594 69.1094
Q53.9062 64.0156 53.9062 55.3281
Q53.9062 49.2656 50.4375 45.0938
Q46.9688 40.9219 40.5781 39.3125" id="BitstreamVeraSans-Roman-33"/>
      </defs>
      <g transform="translate(275.6803125 394.358125)scale(0.12 -0.12)">
       <use xlink:href="#BitstreamVeraSans-Roman-33"/>
       <use x="63.623046875" xlink:href="#BitstreamVeraSans-Roman-30"/>
      </g>
     </g>
    </g>
    <g id="xtick_5">
     <g id="line2d_10">
      <g>
       <use style="stroke:#000000;stroke-width:0.5;" x="356.8378125" xlink:href="#m93b0483c22" y="381.24"/>
      </g>
     </g>
     <g id="line2d_11">
      <g>
       <use style="stroke:#000000;stroke-width:0.5;" x="356.8378125" xlink:href="#m741efc42ff" y="19.26"/>
      </g>
     </g>
     <g id="text_5">
      <!-- 40 -->
      <defs>
       <path d="
M37.7969 64.3125
L12.8906 25.3906
L37.7969 25.3906
z

M35.2031 72.9062
L47.6094 72.9062
L47.6094 25.3906
L58.0156 25.3906
L58.0156 17.1875
L47.6094 17.1875
L47.6094 0
L37.7969 0
L37.7969 17.1875
L4.89062 17.1875
L4.89062 26.7031
z
" id="BitstreamVeraSans-Roman-34"/>
      </defs>
      <g transform="translate(349.8946875 394.358125)scale(0.12 -0.12)">
       <use xlink:href="#BitstreamVeraSans-Roman-34"/>
       <use x="63.623046875" xlink:href="#BitstreamVeraSans-Roman-30"/>
      </g>
     </g>
    </g>
    <g id="xtick_6">
     <g id="line2d_12">
      <g>
       <use style="stroke:#000000;stroke-width:0.5;" x="431.21625" xlink:href="#m93b0483c22" y="381.24"/>
      </g>
     </g>
     <g id="line2d_13">
      <g>
       <use style="stroke:#000000;stroke-width:0.5;" x="431.21625" xlink:href="#m741efc42ff" y="19.26"/>
      </g>
     </g>
     <g id="text_6">
      <!-- 50 -->
      <defs>
       <path d="
M10.7969 72.9062
L49.5156 72.9062
L49.5156 64.5938
L19.8281 64.5938
L19.8281 46.7344
Q21.9688 47.4688 24.1094 47.8281
Q26.2656 48.1875 28.4219 48.1875
Q40.625 48.1875 47.75 41.5
Q54.8906 34.8125 54.8906 23.3906
Q54.8906 11.625 47.5625 5.09375
Q40.2344 -1.42188 26.9062 -1.42188
Q22.3125 -1.42188 17.5469 -0.640625
Q12.7969 0.140625 7.71875 1.70312
L7.71875 11.625
Q12.1094 9.23438 16.7969 8.0625
Q21.4844 6.89062 26.7031 6.89062
Q35.1562 6.89062 40.0781 11.3281
Q45.0156 15.7656 45.0156 23.3906
Q45.0156 31 40.0781 35.4375
Q35.1562 39.8906 26.7031 39.8906
Q22.75 39.8906 18.8125 39.0156
Q14.8906 38.1406 10.7969 36.2812
z
" id="BitstreamVeraSans-Roman-35"/>
      </defs>
      <g transform="translate(424.4428125 394.358125)scale(0.12 -0.12)">
       <use xlink:href="#BitstreamVeraSans-Roman-35"/>
       <use x="63.623046875" xlink:href="#BitstreamVeraSans-Roman-30"/>
      </g>
     </g>
    </g>
    <g id="xtick_7">
     <g id="line2d_14">
      <g>
       <use style="stroke:#000000;stroke-width:0.5;" x="505.5946875" xlink:href="#m93b0483c22" y="381.24"/>
      </g>
     </g>
     <g id="line2d_15">
      <g>
       <use style="stroke:#000000;stroke-width:0.5;" x="505.5946875" xlink:href="#m741efc42ff" y="19.26"/>
      </g>
     </g>
     <g id="text_7">
      <!-- 60 -->
      <defs>
       <path d="
M33.0156 40.375
Q26.375 40.375 22.4844 35.8281
Q18.6094 31.2969 18.6094 23.3906
Q18.6094 15.5312 22.4844 10.9531
Q26.375 6.39062 33.0156 6.39062
Q39.6562 6.39062 43.5312 10.9531
Q47.4062 15.5312 47.4062 23.3906
Q47.4062 31.2969 43.5312 35.8281
Q39.6562 40.375 33.0156 40.375
M52.5938 71.2969
L52.5938 62.3125
Q48.875 64.0625 45.0938 64.9844
Q41.3125 65.9219 37.5938 65.9219
Q27.8281 65.9219 22.6719 59.3281
Q17.5312 52.7344 16.7969 39.4062
Q19.6719 43.6562 24.0156 45.9219
Q28.375 48.1875 33.5938 48.1875
Q44.5781 48.1875 50.9531 41.5156
Q57.3281 34.8594 57.3281 23.3906
Q57.3281 12.1562 50.6875 5.35938
Q44.0469 -1.42188 33.0156 -1.42188
Q20.3594 -1.42188 13.6719 8.26562
Q6.98438 17.9688 6.98438 36.375
Q6.98438 53.6562 15.1875 63.9375
Q23.3906 74.2188 37.2031 74.2188
Q40.9219 74.2188 44.7031 73.4844
Q48.4844 72.75 52.5938 71.2969" id="BitstreamVeraSans-Roman-36"/>
      </defs>
      <g transform="translate(498.7771875 394.358125)scale(0.12 -0.12)">
       <use xlink:href="#BitstreamVeraSans-Roman-36"/>
       <use x="63.623046875" xlink:href="#BitstreamVeraSans-Roman-30"/>
      </g>
     </g>
    </g>
    <g id="text_8">
     <!-- Time (secs) -->
     <defs>
      <path id="BitstreamVeraSans-Roman-20"/>
      <path d="
M8.01562 75.875
L15.8281 75.875
Q23.1406 64.3594 26.7812 53.3125
Q30.4219 42.2812 30.4219 31.3906
Q30.4219 20.4531 26.7812 9.375
Q23.1406 -1.70312 15.8281 -13.1875
L8.01562 -13.1875
Q14.5 -2 17.7031 9.0625
Q20.9062 20.125 20.9062 31.3906
Q20.9062 42.6719 17.7031 53.6562
Q14.5 64.6562 8.01562 75.875" id="BitstreamVeraSans-Roman-29"/>
      <path d="
M31 75.875
Q24.4688 64.6562 21.2812 53.6562
Q18.1094 42.6719 18.1094 31.3906
Q18.1094 20.125 21.3125 9.0625
Q24.5156 -2 31 -13.1875
L23.1875 -13.1875
Q15.875 -1.70312 12.2344 9.375
Q8.59375 20.4531 8.59375 31.3906
Q8.59375 42.2812 12.2031 53.3125
Q15.8281 64.3594 23.1875 75.875
z
" id="BitstreamVeraSans-Roman-28"/>
      <path d="
M9.42188 54.6875
L18.4062 54.6875
L18.4062 0
L9.42188 0
z

M9.42188 75.9844
L18.4062 75.9844
L18.4062 64.5938
L9.42188 64.5938
z
" id="BitstreamVeraSans-Roman-69"/>
      <path d="
M52 44.1875
Q55.375 50.25 60.0625 53.125
Q64.75 56 71.0938 56
Q79.6406 56 84.2812 50.0156
Q88.9219 44.0469 88.9219 33.0156
L88.9219 0
L79.8906 0
L79.8906 32.7188
Q79.8906 40.5781 77.0938 44.375
Q74.3125 48.1875 68.6094 48.1875
Q61.625 48.1875 57.5625 43.5469
Q53.5156 38.9219 53.5156 30.9062
L53.5156 0
L44.4844 0
L44.4844 32.7188
Q44.4844 40.625 41.7031 44.4062
Q38.9219 48.1875 33.1094 48.1875
Q26.2188 48.1875 22.1562 43.5312
Q18.1094 38.875 18.1094 30.9062
L18.1094 0
L9.07812 0
L9.07812 54.6875
L18.1094 54.6875
L18.1094 46.1875
Q21.1875 51.2188 25.4844 53.6094
Q29.7812 56 35.6875 56
Q41.6562 56 45.8281 52.9688
Q50 49.9531 52 44.1875" id="BitstreamVeraSans-Roman-6d"/>
      <path d="
M56.2031 29.5938
L56.2031 25.2031
L14.8906 25.2031
Q15.4844 15.9219 20.4844 11.0625
Q25.4844 6.20312 34.4219 6.20312
Q39.5938 6.20312 44.4531 7.46875
Q49.3125 8.73438 54.1094 11.2812
L54.1094 2.78125
Q49.2656 0.734375 44.1875 -0.34375
Q39.1094 -1.42188 33.8906 -1.42188
Q20.7969 -1.42188 13.1562 6.1875
Q5.51562 13.8125 5.51562 26.8125
Q5.51562 40.2344 12.7656 48.1094
Q20.0156 56 32.3281 56
Q43.3594 56 49.7812 48.8906
Q56.2031 41.7969 56.2031 29.5938
M47.2188 32.2344
Q47.125 39.5938 43.0938 43.9844
Q39.0625 48.3906 32.4219 48.3906
Q24.9062 48.3906 20.3906 44.1406
Q15.875 39.8906 15.1875 32.1719
z
" id="BitstreamVeraSans-Roman-65"/>
      <path d="
M-0.296875 72.9062
L61.375 72.9062
L61.375 64.5938
L35.5 64.5938
L35.5 0
L25.5938 0
L25.5938 64.5938
L-0.296875 64.5938
z
" id="BitstreamVeraSans-Roman-54"/>
      <path d="
M44.2812 53.0781
L44.2812 44.5781
Q40.4844 46.5312 36.375 47.5
Q32.2812 48.4844 27.875 48.4844
Q21.1875 48.4844 17.8438 46.4375
Q14.5 44.3906 14.5 40.2812
Q14.5 37.1562 16.8906 35.375
Q19.2812 33.5938 26.5156 31.9844
L29.5938 31.2969
Q39.1562 29.25 43.1875 25.5156
Q47.2188 21.7812 47.2188 15.0938
Q47.2188 7.46875 41.1875 3.01562
Q35.1562 -1.42188 24.6094 -1.42188
Q20.2188 -1.42188 15.4531 -0.5625
Q10.6875 0.296875 5.42188 2
L5.42188 11.2812
Q10.4062 8.6875 15.2344 7.39062
Q20.0625 6.10938 24.8125 6.10938
Q31.1562 6.10938 34.5625 8.28125
Q37.9844 10.4531 37.9844 14.4062
Q37.9844 18.0625 35.5156 20.0156
Q33.0625 21.9688 24.7031 23.7812
L21.5781 24.5156
Q13.2344 26.2656 9.51562 29.9062
Q5.8125 33.5469 5.8125 39.8906
Q5.8125 47.6094 11.2812 51.7969
Q16.75 56 26.8125 56
Q31.7812 56 36.1719 55.2656
Q40.5781 54.5469 44.2812 53.0781" id="BitstreamVeraSans-Roman-73"/>
      <path d="
M48.7812 52.5938
L48.7812 44.1875
Q44.9688 46.2969 41.1406 47.3438
Q37.3125 48.3906 33.4062 48.3906
Q24.6562 48.3906 19.8125 42.8438
Q14.9844 37.3125 14.9844 27.2969
Q14.9844 17.2812 19.8125 11.7344
Q24.6562 6.20312 33.4062 6.20312
Q37.3125 6.20312 41.1406 7.25
Q44.9688 8.29688 48.7812 10.4062
L48.7812 2.09375
Q45.0156 0.34375 40.9844 -0.53125
Q36.9688 -1.42188 32.4219 -1.42188
Q20.0625 -1.42188 12.7812 6.34375
Q5.51562 14.1094 5.51562 27.2969
Q5.51562 40.6719 12.8594 48.3281
Q20.2188 56 33.0156 56
Q37.1562 56 41.1094 55.1406
Q45.0625 54.2969 48.7812 52.5938" id="BitstreamVeraSans-Roman-63"/>
     </defs>
     <g transform="translate(237.108125 414.01125)scale(0.16 -0.16)">
      <use xlink:href="#BitstreamVeraSans-Roman-54"/>
      <use x="57.958984375" xlink:href="#BitstreamVeraSans-Roman-69"/>
      <use x="85.7421875" xlink:href="#BitstreamVeraSans-Roman-6d"/>
      <use x="183.154296875" xlink:href="#BitstreamVeraSans-Roman-65"/>
      <use x="244.677734375" xlink:href="#BitstreamVeraSans-Roman-20"/>
      <use x="276.46484375" xlink:href="#BitstreamVeraSans-Roman-28"/>
      <use x="315.478515625" xlink:href="#BitstreamVeraSans-Roman-73"/>
      <use x="367.578125" xlink:href="#BitstreamVeraSans-Roman-65"/>
      <use x="429.1015625" xlink:href="#BitstreamVeraSans-Roman-63"/>
      <use x="484.08203125" xlink:href="#BitstreamVeraSans-Roman-73"/>
      <use x="536.181640625" xlink:href="#BitstreamVeraSans-Roman-29"/>
     </g>
    </g>
   </g>
   <g id="matplotlib.axis_2">
    <g id="ytick_1">
     <g id="line2d_16">
      <defs>
       <path d="
M0 0
L4 0" id="m728421d6d4" style="stroke:#000000;stroke-width:0.5;"/>
      </defs>
      <g>
       <use style="stroke:#000000;stroke-width:0.5;" x="59.3240625" xlink:href="#m728421d6d4" y="381.24"/>
      </g>
     </g>
     <g id="text_9">
      <!-- 0 -->
      <g transform="translate(49.2771875 384.55125)scale(0.12 -0.12)">
       <use xlink:href="#BitstreamVeraSans-Roman-30"/>
      </g>
     </g>
    </g>
    <g id="ytick_2">
     <g id="line2d_17">
      <g>
       <use style="stroke:#000000;stroke-width:0.5;" x="59.3240625" xlink:href="#m728421d6d4" y="308.844"/>
      </g>
     </g>
     <g id="text_10">
      <!-- 50 -->
      <g transform="translate(41.7771875 312.15525)scale(0.12 -0.12)">
       <use xlink:href="#BitstreamVeraSans-Roman-35"/>
       <use x="63.623046875" xlink:href="#BitstreamVeraSans-Roman-30"/>
      </g>
     </g>
    </g>
    <g id="ytick_3">
     <g id="line2d_18">
      <g>
       <use style="stroke:#000000;stroke-width:0.5;" x="59.3240625" xlink:href="#m728421d6d4" y="236.448"/>
      </g>
     </g>
     <g id="text_11">
      <!-- 100 -->
      <g transform="translate(34.5340625 239.75925)scale(0.12 -0.12)">
       <use xlink:href="#BitstreamVeraSans-Roman-31"/>
       <use x="63.623046875" xlink:href="#BitstreamVeraSans-Roman-30"/>
       <use x="127.24609375" xlink:href="#BitstreamVeraSans-Roman-30"/>
      </g>
     </g>
    </g>
    <g id="ytick_4">
     <g id="line2d_19">
      <g>
       <use style="stroke:#000000;stroke-width:0.5;" x="59.3240625" xlink:href="#m728421d6d4" y="164.052"/>
      </g>
     </g>
     <g id="text_12">
      <!-- 150 -->
      <g transform="translate(34.5340625 167.36325)scale(0.12 -0.12)">
       <use xlink:href="#BitstreamVeraSans-Roman-31"/>
       <use x="63.623046875" xlink:href="#BitstreamVeraSans-Roman-35"/>
       <use x="127.24609375" xlink:href="#BitstreamVeraSans-Roman-30"/>
      </g>
     </g>
    </g>
    <g id="ytick_5">
     <g id="line2d_20">
      <g>
       <use style="stroke:#000000;stroke-width:0.5;" x="59.3240625" xlink:href="#m728421d6d4" y="91.656"/>
      </g>
     </g>
     <g id="text_13">
      <!-- 200 -->
      <g transform="translate(34.0953125 94.96725)scale(0.12 -0.12)">
       <use xlink:href="#BitstreamVeraSans-Roman-32"/>
       <use x="63.623046875" xlink:href="#BitstreamVeraSans-Roman-30"/>
       <use x="127.24609375" xlink:href="#BitstreamVeraSans-Roman-30"/>
      </g>
     </g>
    </g>
    <g id="ytick_6">
     <g id="line2d_21">
      <g>
       <use style="stroke:#000000;stroke-width:0.5;" x="59.3240625" xlink:href="#m728421d6d4" y="19.26"/>
      </g>
     </g>
     <g id="text_14">
      <!-- 250 -->
      <g transform="translate(34.0953125 22.57125)scale(0.12 -0.12)">
       <use xlink:href="#BitstreamVeraSans-Roman-32"/>
       <use x="63.623046875" xlink:href="#BitstreamVeraSans-Roman-35"/>
       <use x="127.24609375" xlink:href="#BitstreamVeraSans-Roman-30"/>
      </g>
     </g>
    </g>
    <g id="text_15">
     <!-- Power Consumption (watts) -->
     <defs>
      <path d="
M54.8906 33.0156
L54.8906 0
L45.9062 0
L45.9062 32.7188
Q45.9062 40.4844 42.875 44.3281
Q39.8438 48.1875 33.7969 48.1875
Q26.5156 48.1875 22.3125 43.5469
Q18.1094 38.9219 18.1094 30.9062
L18.1094 0
L9.07812 0
L9.07812 54.6875
L18.1094 54.6875
L18.1094 46.1875
Q21.3438 51.125 25.7031 53.5625
Q30.0781 56 35.7969 56
Q45.2188 56 50.0469 50.1719
Q54.8906 44.3438 54.8906 33.0156" id="BitstreamVeraSans-Roman-6e"/>
      <path d="
M34.2812 27.4844
Q23.3906 27.4844 19.1875 25
Q14.9844 22.5156 14.9844 16.5
Q14.9844 11.7188 18.1406 8.90625
Q21.2969 6.10938 26.7031 6.10938
Q34.1875 6.10938 38.7031 11.4062
Q43.2188 16.7031 43.2188 25.4844
L43.2188 27.4844
z

M52.2031 31.2031
L52.2031 0
L43.2188 0
L43.2188 8.29688
Q40.1406 3.32812 35.5469 0.953125
Q30.9531 -1.42188 24.3125 -1.42188
Q15.9219 -1.42188 10.9531 3.29688
Q6 8.01562 6 15.9219
Q6 25.1406 12.1719 29.8281
Q18.3594 34.5156 30.6094 34.5156
L43.2188 34.5156
L43.2188 35.4062
Q43.2188 41.6094 39.1406 45
Q35.0625 48.3906 27.6875 48.3906
Q23 48.3906 18.5469 47.2656
Q14.1094 46.1406 10.0156 43.8906
L10.0156 52.2031
Q14.9375 54.1094 19.5781 55.0469
Q24.2188 56 28.6094 56
Q40.4844 56 46.3438 49.8438
Q52.2031 43.7031 52.2031 31.2031" id="BitstreamVeraSans-Roman-61"/>
      <path d="
M30.6094 48.3906
Q23.3906 48.3906 19.1875 42.75
Q14.9844 37.1094 14.9844 27.2969
Q14.9844 17.4844 19.1562 11.8438
Q23.3438 6.20312 30.6094 6.20312
Q37.7969 6.20312 41.9844 11.8594
Q46.1875 17.5312 46.1875 27.2969
Q46.1875 37.0156 41.9844 42.7031
Q37.7969 48.3906 30.6094 48.3906
M30.6094 56
Q42.3281 56 49.0156 48.375
Q55.7188 40.7656 55.7188 27.2969
Q55.7188 13.875 49.0156 6.21875
Q42.3281 -1.42188 30.6094 -1.42188
Q18.8438 -1.42188 12.1719 6.21875
Q5.51562 13.875 5.51562 27.2969
Q5.51562 40.7656 12.1719 48.375
Q18.8438 56 30.6094 56" id="BitstreamVeraSans-Roman-6f"/>
      <path d="
M19.6719 64.7969
L19.6719 37.4062
L32.0781 37.4062
Q38.9688 37.4062 42.7188 40.9688
Q46.4844 44.5312 46.4844 51.125
Q46.4844 57.6719 42.7188 61.2344
Q38.9688 64.7969 32.0781 64.7969
z

M9.8125 72.9062
L32.0781 72.9062
Q44.3438 72.9062 50.6094 67.3594
Q56.8906 61.8125 56.8906 51.125
Q56.8906 40.3281 50.6094 34.8125
Q44.3438 29.2969 32.0781 29.2969
L19.6719 29.2969
L19.6719 0
L9.8125 0
z
" id="BitstreamVeraSans-Roman-50"/>
      <path d="
M64.4062 67.2812
L64.4062 56.8906
Q59.4219 61.5312 53.7812 63.8125
Q48.1406 66.1094 41.7969 66.1094
Q29.2969 66.1094 22.6562 58.4688
Q16.0156 50.8281 16.0156 36.375
Q16.0156 21.9688 22.6562 14.3281
Q29.2969 6.6875 41.7969 6.6875
Q48.1406 6.6875 53.7812 8.98438
Q59.4219 11.2812 64.4062 15.9219
L64.4062 5.60938
Q59.2344 2.09375 53.4375 0.328125
Q47.6562 -1.42188 41.2188 -1.42188
Q24.6562 -1.42188 15.125 8.70312
Q5.60938 18.8438 5.60938 36.375
Q5.60938 53.9531 15.125 64.0781
Q24.6562 74.2188 41.2188 74.2188
Q47.75 74.2188 53.5312 72.4844
Q59.3281 70.75 64.4062 67.2812" id="BitstreamVeraSans-Roman-43"/>
      <path d="
M4.20312 54.6875
L13.1875 54.6875
L24.4219 12.0156
L35.5938 54.6875
L46.1875 54.6875
L57.4219 12.0156
L68.6094 54.6875
L77.5938 54.6875
L63.2812 0
L52.6875 0
L40.9219 44.8281
L29.1094 0
L18.5 0
z
" id="BitstreamVeraSans-Roman-77"/>
      <path d="
M18.3125 70.2188
L18.3125 54.6875
L36.8125 54.6875
L36.8125 47.7031
L18.3125 47.7031
L18.3125 18.0156
Q18.3125 11.3281 20.1406 9.42188
Q21.9688 7.51562 27.5938 7.51562
L36.8125 7.51562
L36.8125 0
L27.5938 0
Q17.1875 0 13.2344 3.875
Q9.28125 7.76562 9.28125 18.0156
L9.28125 47.7031
L2.6875 47.7031
L2.6875 54.6875
L9.28125 54.6875
L9.28125 70.2188
z
" id="BitstreamVeraSans-Roman-74"/>
      <path d="
M8.5 21.5781
L8.5 54.6875
L17.4844 54.6875
L17.4844 21.9219
Q17.4844 14.1562 20.5 10.2656
Q23.5312 6.39062 29.5938 6.39062
Q36.8594 6.39062 41.0781 11.0312
Q45.3125 15.6719 45.3125 23.6875
L45.3125 54.6875
L54.2969 54.6875
L54.2969 0
L45.3125 0
L45.3125 8.40625
Q42.0469 3.42188 37.7188 1
Q33.4062 -1.42188 27.6875 -1.42188
Q18.2656 -1.42188 13.375 4.4375
Q8.5 10.2969 8.5 21.5781" id="BitstreamVeraSans-Roman-75"/>
      <path d="
M41.1094 46.2969
Q39.5938 47.1719 37.8125 47.5781
Q36.0312 48 33.8906 48
Q26.2656 48 22.1875 43.0469
Q18.1094 38.0938 18.1094 28.8125
L18.1094 0
L9.07812 0
L9.07812 54.6875
L18.1094 54.6875
L18.1094 46.1875
Q20.9531 51.1719 25.4844 53.5781
Q30.0312 56 36.5312 56
Q37.4531 56 38.5781 55.875
Q39.7031 55.7656 41.0625 55.5156
z
" id="BitstreamVeraSans-Roman-72"/>
      <path d="
M18.1094 8.20312
L18.1094 -20.7969
L9.07812 -20.7969
L9.07812 54.6875
L18.1094 54.6875
L18.1094 46.3906
Q20.9531 51.2656 25.2656 53.625
Q29.5938 56 35.5938 56
Q45.5625 56 51.7812 48.0938
Q58.0156 40.1875 58.0156 27.2969
Q58.0156 14.4062 51.7812 6.48438
Q45.5625 -1.42188 35.5938 -1.42188
Q29.5938 -1.42188 25.2656 0.953125
Q20.9531 3.32812 18.1094 8.20312
M48.6875 27.2969
Q48.6875 37.2031 44.6094 42.8438
Q40.5312 48.4844 33.4062 48.4844
Q26.2656 48.4844 22.1875 42.8438
Q18.1094 37.2031 18.1094 27.2969
Q18.1094 17.3906 22.1875 11.75
Q26.2656 6.10938 33.4062 6.10938
Q40.5312 6.10938 44.6094 11.75
Q48.6875 17.3906 48.6875 27.2969" id="BitstreamVeraSans-Roman-70"/>
     </defs>
     <g style="fill:#ff0000;" transform="translate(25.7678125 309.94125)rotate(-90.0)scale(0.16 -0.16)">
      <use xlink:href="#BitstreamVeraSans-Roman-50"/>
      <use x="56.677734375" xlink:href="#BitstreamVeraSans-Roman-6f"/>
      <use x="117.859375" xlink:href="#BitstreamVeraSans-Roman-77"/>
      <use x="199.646484375" xlink:href="#BitstreamVeraSans-Roman-65"/>
      <use x="261.169921875" xlink:href="#BitstreamVeraSans-Roman-72"/>
      <use x="302.283203125" xlink:href="#BitstreamVeraSans-Roman-20"/>
      <use x="334.0703125" xlink:href="#BitstreamVeraSans-Roman-43"/>
      <use x="403.89453125" xlink:href="#BitstreamVeraSans-Roman-6f"/>
      <use x="465.076171875" xlink:href="#BitstreamVeraSans-Roman-6e"/>
      <use x="528.455078125" xlink:href="#BitstreamVeraSans-Roman-73"/>
      <use x="580.5546875" xlink:href="#BitstreamVeraSans-Roman-75"/>
      <use x="643.93359375" xlink:href="#BitstreamVeraSans-Roman-6d"/>
      <use x="741.345703125" xlink:href="#BitstreamVeraSans-Roman-70"/>
      <use x="804.822265625" xlink:href="#BitstreamVeraSans-Roman-74"/>
      <use x="844.03125" xlink:href="#BitstreamVeraSans-Roman-69"/>
      <use x="871.814453125" xlink:href="#BitstreamVeraSans-Roman-6f"/>
      <use x="932.99609375" xlink:href="#BitstreamVeraSans-Roman-6e"/>
      <use x="996.375" xlink:href="#BitstreamVeraSans-Roman-20"/>
      <use x="1028.16210938" xlink:href="#BitstreamVeraSans-Roman-28"/>
      <use x="1067.17578125" xlink:href="#BitstreamVeraSans-Roman-77"/>
      <use x="1148.96289062" xlink:href="#BitstreamVeraSans-Roman-61"/>
      <use x="1210.2421875" xlink:href="#BitstreamVeraSans-Roman-74"/>
      <use x="1249.45117188" xlink:href="#BitstreamVeraSans-Roman-74"/>
      <use x="1288.66015625" xlink:href="#BitstreamVeraSans-Roman-73"/>
      <use x="1340.75976562" xlink:href="#BitstreamVeraSans-Roman-29"/>
     </g>
    </g>
   </g>
   <g id="patch_3">
    <path d="
M59.3241 19.26
L505.595 19.26" style="fill:none;stroke:#000000;"/>
   </g>
   <g id="patch_4">
    <path d="
M505.595 381.24
L505.595 19.26" style="fill:none;stroke:#000000;"/>
   </g>
   <g id="patch_5">
    <path d="
M59.3241 381.24
L505.595 381.24" style="fill:none;stroke:#000000;"/>
   </g>
   <g id="patch_6">
    <path d="
M59.3241 381.24
L59.3241 19.26" style="fill:none;stroke:#000000;"/>
   </g>
  </g>
  <g id="axes_2">
   <g id="line2d_22">
    <path clip-path="url(#p938fe646c7)" d="
M59.3241 381.24
L66.7619 19.26
L74.1998 19.26
L81.6376 19.26
L89.0754 109.755
L96.5133 19.26
L103.951 19.26
L111.389 19.26
L118.827 19.26
L126.265 109.755
L133.703 19.26
L141.14 109.755
L148.578 19.26
L156.016 19.26
L163.454 19.26
L170.892 19.26
L178.33 109.755
L185.767 19.26
L193.205 109.755
L200.643 19.26
L208.081 19.26
L215.519 19.26
L222.957 19.26
L230.394 19.26
L237.832 19.26
L245.27 109.755
L252.708 19.26
L260.146 19.26
L267.584 19.26
L275.022 19.26
L282.459 19.26
L289.897 19.26
L297.335 19.26
L304.773 19.26
L312.211 19.26
L319.649 109.755
L327.086 19.26
L334.524 19.26
L341.962 19.26
L349.4 19.26
L356.838 19.26
L364.276 19.26
L371.714 19.26
L379.151 19.26
L386.589 19.26
L394.027 19.26
L401.465 19.26
L408.903 19.26
L416.341 19.26
L423.778 19.26
L431.216 19.26
L438.654 19.26
L446.092 19.26
L453.53 19.26
L460.968 109.755
L468.405 19.26
L475.843 19.26" style="fill:none;stroke:#008000;stroke-linecap:square;"/>
    <defs>
     <path d="
M0 3
C0.795609 3 1.55874 2.6839 2.12132 2.12132
C2.6839 1.55874 3 0.795609 3 0
C3 -0.795609 2.6839 -1.55874 2.12132 -2.12132
C1.55874 -2.6839 0.795609 -3 0 -3
C-0.795609 -3 -1.55874 -2.6839 -2.12132 -2.12132
C-2.6839 -1.55874 -3 -0.795609 -3 0
C-3 0.795609 -2.6839 1.55874 -2.12132 2.12132
C-1.55874 2.6839 -0.795609 3 0 3
z
" id="mbbe02196b1" style="stroke:#000000;stroke-width:0.5;"/>
    </defs>
    <g clip-path="url(#p938fe646c7)">
     <use style="fill:#008000;stroke:#000000;stroke-width:0.5;" x="59.3240625" xlink:href="#mbbe02196b1" y="381.24"/>
     <use style="fill:#008000;stroke:#000000;stroke-width:0.5;" x="66.76190625" xlink:href="#mbbe02196b1" y="19.26"/>
     <use style="fill:#008000;stroke:#000000;stroke-width:0.5;" x="74.19975" xlink:href="#mbbe02196b1" y="19.26"/>
     <use style="fill:#008000;stroke:#000000;stroke-width:0.5;" x="81.63759375" xlink:href="#mbbe02196b1" y="19.26"/>
     <use style="fill:#008000;stroke:#000000;stroke-width:0.5;" x="89.0754375" xlink:href="#mbbe02196b1" y="109.755"/>
     <use style="fill:#008000;stroke:#000000;stroke-width:0.5;" x="96.51328125" xlink:href="#mbbe02196b1" y="19.26"/>
     <use style="fill:#008000;stroke:#000000;stroke-width:0.5;" x="103.951125" xlink:href="#mbbe02196b1" y="19.26"/>
     <use style="fill:#008000;stroke:#000000;stroke-width:0.5;" x="111.38896875" xlink:href="#mbbe02196b1" y="19.26"/>
     <use style="fill:#008000;stroke:#000000;stroke-width:0.5;" x="118.8268125" xlink:href="#mbbe02196b1" y="19.26"/>
     <use style="fill:#008000;stroke:#000000;stroke-width:0.5;" x="126.26465625" xlink:href="#mbbe02196b1" y="109.755"/>
     <use style="fill:#008000;stroke:#000000;stroke-width:0.5;" x="133.7025" xlink:href="#mbbe02196b1" y="19.26"/>
     <use style="fill:#008000;stroke:#000000;stroke-width:0.5;" x="141.14034375" xlink:href="#mbbe02196b1" y="109.755"/>
     <use style="fill:#008000;stroke:#000000;stroke-width:0.5;" x="148.5781875" xlink:href="#mbbe02196b1" y="19.26"/>
     <use style="fill:#008000;stroke:#000000;stroke-width:0.5;" x="156.01603125" xlink:href="#mbbe02196b1" y="19.26"/>
     <use style="fill:#008000;stroke:#000000;stroke-width:0.5;" x="163.453875" xlink:href="#mbbe02196b1" y="19.26"/>
     <use style="fill:#008000;stroke:#000000;stroke-width:0.5;" x="170.89171875" xlink:href="#mbbe02196b1" y="19.26"/>
     <use style="fill:#008000;stroke:#000000;stroke-width:0.5;" x="178.3295625" xlink:href="#mbbe02196b1" y="109.755"/>
     <use style="fill:#008000;stroke:#000000;stroke-width:0.5;" x="185.76740625" xlink:href="#mbbe02196b1" y="19.26"/>
     <use style="fill:#008000;stroke:#000000;stroke-width:0.5;" x="193.20525" xlink:href="#mbbe02196b1" y="109.755"/>
     <use style="fill:#008000;stroke:#000000;stroke-width:0.5;" x="200.64309375" xlink:href="#mbbe02196b1" y="19.26"/>
     <use style="fill:#008000;stroke:#000000;stroke-width:0.5;" x="208.0809375" xlink:href="#mbbe02196b1" y="19.26"/>
     <use style="fill:#008000;stroke:#000000;stroke-width:0.5;" x="215.51878125" xlink:href="#mbbe02196b1" y="19.26"/>
     <use style="fill:#008000;stroke:#000000;stroke-width:0.5;" x="222.956625" xlink:href="#mbbe02196b1" y="19.26"/>
     <use style="fill:#008000;stroke:#000000;stroke-width:0.5;" x="230.39446875" xlink:href="#mbbe02196b1" y="19.26"/>
     <use style="fill:#008000;stroke:#000000;stroke-width:0.5;" x="237.8323125" xlink:href="#mbbe02196b1" y="19.26"/>
     <use style="fill:#008000;stroke:#000000;stroke-width:0.5;" x="245.27015625" xlink:href="#mbbe02196b1" y="109.755"/>
     <use style="fill:#008000;stroke:#000000;stroke-width:0.5;" x="252.708" xlink:href="#mbbe02196b1" y="19.26"/>
     <use style="fill:#008000;stroke:#000000;stroke-width:0.5;" x="260.14584375" xlink:href="#mbbe02196b1" y="19.26"/>
     <use style="fill:#008000;stroke:#000000;stroke-width:0.5;" x="267.5836875" xlink:href="#mbbe02196b1" y="19.26"/>
     <use style="fill:#008000;stroke:#000000;stroke-width:0.5;" x="275.02153125" xlink:href="#mbbe02196b1" y="19.26"/>
     <use style="fill:#008000;stroke:#000000;stroke-width:0.5;" x="282.459375" xlink:href="#mbbe02196b1" y="19.26"/>
     <use style="fill:#008000;stroke:#000000;stroke-width:0.5;" x="289.89721875" xlink:href="#mbbe02196b1" y="19.26"/>
     <use style="fill:#008000;stroke:#000000;stroke-width:0.5;" x="297.3350625" xlink:href="#mbbe02196b1" y="19.26"/>
     <use style="fill:#008000;stroke:#000000;stroke-width:0.5;" x="304.77290625" xlink:href="#mbbe02196b1" y="19.26"/>
     <use style="fill:#008000;stroke:#000000;stroke-width:0.5;" x="312.21075" xlink:href="#mbbe02196b1" y="19.26"/>
     <use style="fill:#008000;stroke:#000000;stroke-width:0.5;" x="319.64859375" xlink:href="#mbbe02196b1" y="109.755"/>
     <use style="fill:#008000;stroke:#000000;stroke-width:0.5;" x="327.0864375" xlink:href="#mbbe02196b1" y="19.26"/>
     <use style="fill:#008000;stroke:#000000;stroke-width:0.5;" x="334.52428125" xlink:href="#mbbe02196b1" y="19.26"/>
     <use style="fill:#008000;stroke:#000000;stroke-width:0.5;" x="341.962125" xlink:href="#mbbe02196b1" y="19.26"/>
     <use style="fill:#008000;stroke:#000000;stroke-width:0.5;" x="349.39996875" xlink:href="#mbbe02196b1" y="19.26"/>
     <use style="fill:#008000;stroke:#000000;stroke-width:0.5;" x="356.8378125" xlink:href="#mbbe02196b1" y="19.26"/>
     <use style="fill:#008000;stroke:#000000;stroke-width:0.5;" x="364.27565625" xlink:href="#mbbe02196b1" y="19.26"/>
     <use style="fill:#008000;stroke:#000000;stroke-width:0.5;" x="371.7135" xlink:href="#mbbe02196b1" y="19.26"/>
     <use style="fill:#008000;stroke:#000000;stroke-width:0.5;" x="379.15134375" xlink:href="#mbbe02196b1" y="19.26"/>
     <use style="fill:#008000;stroke:#000000;stroke-width:0.5;" x="386.5891875" xlink:href="#mbbe02196b1" y="19.26"/>
     <use style="fill:#008000;stroke:#000000;stroke-width:0.5;" x="394.02703125" xlink:href="#mbbe02196b1" y="19.26"/>
     <use style="fill:#008000;stroke:#000000;stroke-width:0.5;" x="401.464875" xlink:href="#mbbe02196b1" y="19.26"/>
     <use style="fill:#008000;stroke:#000000;stroke-width:0.5;" x="408.90271875" xlink:href="#mbbe02196b1" y="19.26"/>
     <use style="fill:#008000;stroke:#000000;stroke-width:0.5;" x="416.3405625" xlink:href="#mbbe02196b1" y="19.26"/>
     <use style="fill:#008000;stroke:#000000;stroke-width:0.5;" x="423.77840625" xlink:href="#mbbe02196b1" y="19.26"/>
     <use style="fill:#008000;stroke:#000000;stroke-width:0.5;" x="431.21625" xlink:href="#mbbe02196b1" y="19.26"/>
     <use style="fill:#008000;stroke:#000000;stroke-width:0.5;" x="438.65409375" xlink:href="#mbbe02196b1" y="19.26"/>
     <use style="fill:#008000;stroke:#000000;stroke-width:0.5;" x="446.0919375" xlink:href="#mbbe02196b1" y="19.26"/>
     <use style="fill:#008000;stroke:#000000;stroke-width:0.5;" x="453.52978125" xlink:href="#mbbe02196b1" y="19.26"/>
     <use style="fill:#008000;stroke:#000000;stroke-width:0.5;" x="460.967625" xlink:href="#mbbe02196b1" y="109.755"/>
     <use style="fill:#008000;stroke:#000000;stroke-width:0.5;" x="468.40546875" xlink:href="#mbbe02196b1" y="19.26"/>
     <use style="fill:#008000;stroke:#000000;stroke-width:0.5;" x="475.8433125" xlink:href="#mbbe02196b1" y="19.26"/>
    </g>
   </g>
   <g id="matplotlib.axis_3">
    <g id="ytick_7">
     <g id="line2d_23">
      <defs>
       <path d="
M0 0
L-4 0" id="mcb0005524f" style="stroke:#000000;stroke-width:0.5;"/>
      </defs>
      <g>
       <use style="stroke:#000000;stroke-width:0.5;" x="505.5946875" xlink:href="#mcb0005524f" y="381.24"/>
      </g>
     </g>
     <g id="text_16">
      <!-- 96.0 -->
      <defs>
       <path d="
M10.9844 1.51562
L10.9844 10.5
Q14.7031 8.73438 18.5 7.8125
Q22.3125 6.89062 25.9844 6.89062
Q35.75 6.89062 40.8906 13.4531
Q46.0469 20.0156 46.7812 33.4062
Q43.9531 29.2031 39.5938 26.9531
Q35.25 24.7031 29.9844 24.7031
Q19.0469 24.7031 12.6719 31.3125
Q6.29688 37.9375 6.29688 49.4219
Q6.29688 60.6406 12.9375 67.4219
Q19.5781 74.2188 30.6094 74.2188
Q43.2656 74.2188 49.9219 64.5156
Q56.5938 54.8281 56.5938 36.375
Q56.5938 19.1406 48.4062 8.85938
Q40.2344 -1.42188 26.4219 -1.42188
Q22.7031 -1.42188 18.8906 -0.6875
Q15.0938 0.046875 10.9844 1.51562
M30.6094 32.4219
Q37.25 32.4219 41.125 36.9531
Q45.0156 41.5 45.0156 49.4219
Q45.0156 57.2812 41.125 61.8438
Q37.25 66.4062 30.6094 66.4062
Q23.9688 66.4062 20.0938 61.8438
Q16.2188 57.2812 16.2188 49.4219
Q16.2188 41.5 20.0938 36.9531
Q23.9688 32.4219 30.6094 32.4219" id="BitstreamVeraSans-Roman-39"/>
       <path d="
M10.6875 12.4062
L21 12.4062
L21 0
L10.6875 0
z
" id="BitstreamVeraSans-Roman-2e"/>
      </defs>
      <g transform="translate(509.5946875 384.55125)scale(0.12 -0.12)">
       <use xlink:href="#BitstreamVeraSans-Roman-39"/>
       <use x="63.623046875" xlink:href="#BitstreamVeraSans-Roman-36"/>
       <use x="127.24609375" xlink:href="#BitstreamVeraSans-Roman-2e"/>
       <use x="159.033203125" xlink:href="#BitstreamVeraSans-Roman-30"/>
      </g>
     </g>
    </g>
    <g id="ytick_8">
     <g id="line2d_24">
      <g>
       <use style="stroke:#000000;stroke-width:0.5;" x="505.5946875" xlink:href="#mcb0005524f" y="335.9925"/>
      </g>
     </g>
     <g id="text_17">
      <!-- 96.5 -->
      <g transform="translate(509.5946875 339.30375)scale(0.12 -0.12)">
       <use xlink:href="#BitstreamVeraSans-Roman-39"/>
       <use x="63.623046875" xlink:href="#BitstreamVeraSans-Roman-36"/>
       <use x="127.24609375" xlink:href="#BitstreamVeraSans-Roman-2e"/>
       <use x="159.033203125" xlink:href="#BitstreamVeraSans-Roman-35"/>
      </g>
     </g>
    </g>
    <g id="ytick_9">
     <g id="line2d_25">
      <g>
       <use style="stroke:#000000;stroke-width:0.5;" x="505.5946875" xlink:href="#mcb0005524f" y="290.745"/>
      </g>
     </g>
     <g id="text_18">
      <!-- 97.0 -->
      <defs>
       <path d="
M8.20312 72.9062
L55.0781 72.9062
L55.0781 68.7031
L28.6094 0
L18.3125 0
L43.2188 64.5938
L8.20312 64.5938
z
" id="BitstreamVeraSans-Roman-37"/>
      </defs>
      <g transform="translate(509.5946875 294.05625)scale(0.12 -0.12)">
       <use xlink:href="#BitstreamVeraSans-Roman-39"/>
       <use x="63.623046875" xlink:href="#BitstreamVeraSans-Roman-37"/>
       <use x="127.24609375" xlink:href="#BitstreamVeraSans-Roman-2e"/>
       <use x="159.033203125" xlink:href="#BitstreamVeraSans-Roman-30"/>
      </g>
     </g>
    </g>
    <g id="ytick_10">
     <g id="line2d_26">
      <g>
       <use style="stroke:#000000;stroke-width:0.5;" x="505.5946875" xlink:href="#mcb0005524f" y="245.4975"/>
      </g>
     </g>
     <g id="text_19">
      <!-- 97.5 -->
      <g transform="translate(509.5946875 248.80875)scale(0.12 -0.12)">
       <use xlink:href="#BitstreamVeraSans-Roman-39"/>
       <use x="63.623046875" xlink:href="#BitstreamVeraSans-Roman-37"/>
       <use x="127.24609375" xlink:href="#BitstreamVeraSans-Roman-2e"/>
       <use x="159.033203125" xlink:href="#BitstreamVeraSans-Roman-35"/>
      </g>
     </g>
    </g>
    <g id="ytick_11">
     <g id="line2d_27">
      <g>
       <use style="stroke:#000000;stroke-width:0.5;" x="505.5946875" xlink:href="#mcb0005524f" y="200.25"/>
      </g>
     </g>
     <g id="text_20">
      <!-- 98.0 -->
      <defs>
       <path d="
M31.7812 34.625
Q24.75 34.625 20.7188 30.8594
Q16.7031 27.0938 16.7031 20.5156
Q16.7031 13.9219 20.7188 10.1562
Q24.75 6.39062 31.7812 6.39062
Q38.8125 6.39062 42.8594 10.1719
Q46.9219 13.9688 46.9219 20.5156
Q46.9219 27.0938 42.8906 30.8594
Q38.875 34.625 31.7812 34.625
M21.9219 38.8125
Q15.5781 40.375 12.0312 44.7188
Q8.5 49.0781 8.5 55.3281
Q8.5 64.0625 14.7188 69.1406
Q20.9531 74.2188 31.7812 74.2188
Q42.6719 74.2188 48.875 69.1406
Q55.0781 64.0625 55.0781 55.3281
Q55.0781 49.0781 51.5312 44.7188
Q48 40.375 41.7031 38.8125
Q48.8281 37.1562 52.7969 32.3125
Q56.7812 27.4844 56.7812 20.5156
Q56.7812 9.90625 50.3125 4.23438
Q43.8438 -1.42188 31.7812 -1.42188
Q19.7344 -1.42188 13.25 4.23438
Q6.78125 9.90625 6.78125 20.5156
Q6.78125 27.4844 10.7812 32.3125
Q14.7969 37.1562 21.9219 38.8125
M18.3125 54.3906
Q18.3125 48.7344 21.8438 45.5625
Q25.3906 42.3906 31.7812 42.3906
Q38.1406 42.3906 41.7188 45.5625
Q45.3125 48.7344 45.3125 54.3906
Q45.3125 60.0625 41.7188 63.2344
Q38.1406 66.4062 31.7812 66.4062
Q25.3906 66.4062 21.8438 63.2344
Q18.3125 60.0625 18.3125 54.3906" id="BitstreamVeraSans-Roman-38"/>
      </defs>
      <g transform="translate(509.5946875 203.56125)scale(0.12 -0.12)">
       <use xlink:href="#BitstreamVeraSans-Roman-39"/>
       <use x="63.623046875" xlink:href="#BitstreamVeraSans-Roman-38"/>
       <use x="127.24609375" xlink:href="#BitstreamVeraSans-Roman-2e"/>
       <use x="159.033203125" xlink:href="#BitstreamVeraSans-Roman-30"/>
      </g>
     </g>
    </g>
    <g id="ytick_12">
     <g id="line2d_28">
      <g>
       <use style="stroke:#000000;stroke-width:0.5;" x="505.5946875" xlink:href="#mcb0005524f" y="155.0025"/>
      </g>
     </g>
     <g id="text_21">
      <!-- 98.5 -->
      <g transform="translate(509.5946875 158.31375)scale(0.12 -0.12)">
       <use xlink:href="#BitstreamVeraSans-Roman-39"/>
       <use x="63.623046875" xlink:href="#BitstreamVeraSans-Roman-38"/>
       <use x="127.24609375" xlink:href="#BitstreamVeraSans-Roman-2e"/>
       <use x="159.033203125" xlink:href="#BitstreamVeraSans-Roman-35"/>
      </g>
     </g>
    </g>
    <g id="ytick_13">
     <g id="line2d_29">
      <g>
       <use style="stroke:#000000;stroke-width:0.5;" x="505.5946875" xlink:href="#mcb0005524f" y="109.755"/>
      </g>
     </g>
     <g id="text_22">
      <!-- 99.0 -->
      <g transform="translate(509.5946875 113.06625)scale(0.12 -0.12)">
       <use xlink:href="#BitstreamVeraSans-Roman-39"/>
       <use x="63.623046875" xlink:href="#BitstreamVeraSans-Roman-39"/>
       <use x="127.24609375" xlink:href="#BitstreamVeraSans-Roman-2e"/>
       <use x="159.033203125" xlink:href="#BitstreamVeraSans-Roman-30"/>
      </g>
     </g>
    </g>
    <g id="ytick_14">
     <g id="line2d_30">
      <g>
       <use style="stroke:#000000;stroke-width:0.5;" x="505.5946875" xlink:href="#mcb0005524f" y="64.5075"/>
      </g>
     </g>
     <g id="text_23">
      <!-- 99.5 -->
      <g transform="translate(509.5946875 67.81875)scale(0.12 -0.12)">
       <use xlink:href="#BitstreamVeraSans-Roman-39"/>
       <use x="63.623046875" xlink:href="#BitstreamVeraSans-Roman-39"/>
       <use x="127.24609375" xlink:href="#BitstreamVeraSans-Roman-2e"/>
       <use x="159.033203125" xlink:href="#BitstreamVeraSans-Roman-35"/>
      </g>
     </g>
    </g>
    <g id="ytick_15">
     <g id="line2d_31">
      <g>
       <use style="stroke:#000000;stroke-width:0.5;" x="505.5946875" xlink:href="#mcb0005524f" y="19.26"/>
      </g>
     </g>
     <g id="text_24">
      <!-- 100.0 -->
      <g transform="translate(509.5946875 22.57125)scale(0.12 -0.12)">
       <use xlink:href="#BitstreamVeraSans-Roman-31"/>
       <use x="63.623046875" xlink:href="#BitstreamVeraSans-Roman-30"/>
       <use x="127.24609375" xlink:href="#BitstreamVeraSans-Roman-30"/>
       <use x="190.869140625" xlink:href="#BitstreamVeraSans-Roman-2e"/>
       <use x="222.65625" xlink:href="#BitstreamVeraSans-Roman-30"/>
      </g>
     </g>
    </g>
    <g id="text_25">
     <!-- GPU Utilization (%) -->
     <defs>
      <path d="
M59.5156 10.4062
L59.5156 29.9844
L43.4062 29.9844
L43.4062 38.0938
L69.2812 38.0938
L69.2812 6.78125
Q63.5781 2.73438 56.6875 0.65625
Q49.8125 -1.42188 42 -1.42188
Q24.9062 -1.42188 15.25 8.5625
Q5.60938 18.5625 5.60938 36.375
Q5.60938 54.25 15.25 64.2344
Q24.9062 74.2188 42 74.2188
Q49.125 74.2188 55.5469 72.4531
Q61.9688 70.7031 67.3906 67.2812
L67.3906 56.7812
Q61.9219 61.4219 55.7656 63.7656
Q49.6094 66.1094 42.8281 66.1094
Q29.4375 66.1094 22.7188 58.6406
Q16.0156 51.1719 16.0156 36.375
Q16.0156 21.625 22.7188 14.1562
Q29.4375 6.6875 42.8281 6.6875
Q48.0469 6.6875 52.1406 7.59375
Q56.25 8.5 59.5156 10.4062" id="BitstreamVeraSans-Roman-47"/>
      <path d="
M72.7031 32.0781
Q68.4531 32.0781 66.0312 28.4688
Q63.625 24.8594 63.625 18.4062
Q63.625 12.0625 66.0312 8.42188
Q68.4531 4.78125 72.7031 4.78125
Q76.8594 4.78125 79.2656 8.42188
Q81.6875 12.0625 81.6875 18.4062
Q81.6875 24.8125 79.2656 28.4375
Q76.8594 32.0781 72.7031 32.0781
M72.7031 38.2812
Q80.4219 38.2812 84.9531 32.9062
Q89.5 27.5469 89.5 18.4062
Q89.5 9.28125 84.9375 3.92188
Q80.375 -1.42188 72.7031 -1.42188
Q64.8906 -1.42188 60.3438 3.92188
Q55.8125 9.28125 55.8125 18.4062
Q55.8125 27.5938 60.375 32.9375
Q64.9375 38.2812 72.7031 38.2812
M22.3125 68.0156
Q18.1094 68.0156 15.6875 64.375
Q13.2812 60.75 13.2812 54.3906
Q13.2812 47.9531 15.6719 44.3281
Q18.0625 40.7188 22.3125 40.7188
Q26.5625 40.7188 28.9688 44.3281
Q31.3906 47.9531 31.3906 54.3906
Q31.3906 60.6875 28.9531 64.3438
Q26.5156 68.0156 22.3125 68.0156
M66.4062 74.2188
L74.2188 74.2188
L28.6094 -1.42188
L20.7969 -1.42188
z

M22.3125 74.2188
Q30.0312 74.2188 34.6094 68.875
Q39.2031 63.5312 39.2031 54.3906
Q39.2031 45.1719 34.6406 39.8438
Q30.0781 34.5156 22.3125 34.5156
Q14.5469 34.5156 10.0312 39.8594
Q5.51562 45.2188 5.51562 54.3906
Q5.51562 63.4844 10.0469 68.8438
Q14.5938 74.2188 22.3125 74.2188" id="BitstreamVeraSans-Roman-25"/>
      <path d="
M8.6875 72.9062
L18.6094 72.9062
L18.6094 28.6094
Q18.6094 16.8906 22.8438 11.7344
Q27.0938 6.59375 36.625 6.59375
Q46.0938 6.59375 50.3438 11.7344
Q54.5938 16.8906 54.5938 28.6094
L54.5938 72.9062
L64.5 72.9062
L64.5 27.3906
Q64.5 13.1406 57.4375 5.85938
Q50.3906 -1.42188 36.625 -1.42188
Q22.7969 -1.42188 15.7344 5.85938
Q8.6875 13.1406 8.6875 27.3906
z
" id="BitstreamVeraSans-Roman-55"/>
      <path d="
M9.42188 75.9844
L18.4062 75.9844
L18.4062 0
L9.42188 0
z
" id="BitstreamVeraSans-Roman-6c"/>
      <path d="
M5.51562 54.6875
L48.1875 54.6875
L48.1875 46.4844
L14.4062 7.17188
L48.1875 7.17188
L48.1875 0
L4.29688 0
L4.29688 8.20312
L38.0938 47.5156
L5.51562 47.5156
z
" id="BitstreamVeraSans-Roman-7a"/>
     </defs>
     <g style="fill:#008000;" transform="translate(558.9909375 275.4525)rotate(-90.0)scale(0.16 -0.16)">
      <use xlink:href="#BitstreamVeraSans-Roman-47"/>
      <use x="77.490234375" xlink:href="#BitstreamVeraSans-Roman-50"/>
      <use x="137.79296875" xlink:href="#BitstreamVeraSans-Roman-55"/>
      <use x="210.986328125" xlink:href="#BitstreamVeraSans-Roman-20"/>
      <use x="242.7734375" xlink:href="#BitstreamVeraSans-Roman-55"/>
      <use x="315.966796875" xlink:href="#BitstreamVeraSans-Roman-74"/>
      <use x="355.17578125" xlink:href="#BitstreamVeraSans-Roman-69"/>
      <use x="382.958984375" xlink:href="#BitstreamVeraSans-Roman-6c"/>
      <use x="410.7421875" xlink:href="#BitstreamVeraSans-Roman-69"/>
      <use x="438.525390625" xlink:href="#BitstreamVeraSans-Roman-7a"/>
      <use x="491.015625" xlink:href="#BitstreamVeraSans-Roman-61"/>
      <use x="552.294921875" xlink:href="#BitstreamVeraSans-Roman-74"/>
      <use x="591.50390625" xlink:href="#BitstreamVeraSans-Roman-69"/>
      <use x="619.287109375" xlink:href="#BitstreamVeraSans-Roman-6f"/>
      <use x="680.46875" xlink:href="#BitstreamVeraSans-Roman-6e"/>
      <use x="743.84765625" xlink:href="#BitstreamVeraSans-Roman-20"/>
      <use x="775.634765625" xlink:href="#BitstreamVeraSans-Roman-28"/>
      <use x="814.6484375" xlink:href="#BitstreamVeraSans-Roman-25"/>
      <use x="909.66796875" xlink:href="#BitstreamVeraSans-Roman-29"/>
     </g>
    </g>
   </g>
  </g>
 </g>
 <defs>
  <clipPath id="p938fe646c7">
   <rect height="361.98" width="446.270625" x="59.3240625" y="19.26"/>
  </clipPath>
 </defs>
</svg>
