<?xml version="1.0" encoding="utf-8" standalone="no"?>
<!DOCTYPE svg PUBLIC "-//W3C//DTD SVG 1.1//EN"
  "http://www.w3.org/Graphics/SVG/1.1/DTD/svg11.dtd">
<!-- Created with matplotlib (https://matplotlib.org/) -->
<svg height="345.6pt" version="1.1" viewBox="0 0 460.8 345.6" width="460.8pt" xmlns="http://www.w3.org/2000/svg" xmlns:xlink="http://www.w3.org/1999/xlink">
 <defs>
  <style type="text/css">
*{stroke-linecap:butt;stroke-linejoin:round;}
  </style>
 </defs>
 <g id="figure_1">
  <g id="patch_1">
   <path d="M 0 345.6 
L 460.8 345.6 
L 460.8 0 
L 0 0 
z
" style="fill:#ffffff;"/>
  </g>
  <g id="axes_1">
   <g id="patch_2">
    <path d="M 57.6 307.584 
L 414.72 307.584 
L 414.72 41.472 
L 57.6 41.472 
z
" style="fill:#eaeaf2;"/>
   </g>
   <g id="matplotlib.axis_1">
    <g id="xtick_1">
     <g id="line2d_1">
      <path clip-path="url(#p0d0ce97728)" d="M 57.6 307.584 
L 57.6 41.472 
" style="fill:none;stroke:#ffffff;stroke-linecap:round;stroke-width:0.8;"/>
     </g>
     <g id="line2d_2"/>
     <g id="text_1">
      <!-- $\mathdefault{10^{2}}$ -->
      <defs>
       <path d="M 6.296875 0 
L 6.296875 10.203125 
L 23.34375 10.203125 
L 23.34375 57.125 
L 6.84375 46.828125 
L 6.84375 57.625 
L 24.078125 68.796875 
L 37.0625 68.796875 
L 37.0625 10.203125 
L 52.828125 10.203125 
L 52.828125 0 
z
" id="LiberationSans-Bold-49"/>
       <path d="M 51.515625 34.421875 
Q 51.515625 24.5625 49.703125 17.796875 
Q 47.90625 11.03125 44.703125 6.859375 
Q 41.5 2.6875 37.125 0.84375 
Q 32.765625 -0.984375 27.59375 -0.984375 
Q 22.40625 -0.984375 18.0625 0.828125 
Q 13.71875 2.640625 10.59375 6.8125 
Q 7.46875 10.984375 5.703125 17.75 
Q 3.953125 24.515625 3.953125 34.421875 
Q 3.953125 44.828125 5.6875 51.640625 
Q 7.421875 58.453125 10.59375 62.5 
Q 13.765625 66.546875 18.1875 68.1875 
Q 22.609375 69.828125 27.984375 69.828125 
Q 33.015625 69.828125 37.328125 68.1875 
Q 41.65625 66.546875 44.796875 62.5 
Q 47.953125 58.453125 49.734375 51.640625 
Q 51.515625 44.828125 51.515625 34.421875 
z
M 37.75 34.421875 
Q 37.75 41.703125 37.203125 46.453125 
Q 36.671875 51.21875 35.5 54.03125 
Q 34.328125 56.84375 32.4375 57.953125 
Q 30.5625 59.078125 27.875 59.078125 
Q 25 59.078125 23.046875 57.921875 
Q 21.09375 56.78125 19.890625 53.953125 
Q 18.703125 51.125 18.1875 46.359375 
Q 17.671875 41.609375 17.671875 34.421875 
Q 17.671875 27.34375 18.203125 22.609375 
Q 18.75 17.875 19.921875 15.015625 
Q 21.09375 12.15625 23 10.984375 
Q 24.90625 9.8125 27.6875 9.8125 
Q 30.375 9.8125 32.28125 10.984375 
Q 34.1875 12.15625 35.40625 15.015625 
Q 36.625 17.875 37.1875 22.609375 
Q 37.75 27.34375 37.75 34.421875 
z
" id="LiberationSans-Bold-48"/>
       <path d="M 3.46875 0 
L 3.46875 9.515625 
Q 5.8125 14.65625 9.171875 18.78125 
Q 12.546875 22.90625 16.234375 26.34375 
Q 19.921875 29.78125 23.5625 32.734375 
Q 27.203125 35.6875 30.109375 38.453125 
Q 33.015625 41.21875 34.8125 44 
Q 36.625 46.78125 36.625 49.90625 
Q 36.625 54.5 34.328125 56.6875 
Q 32.03125 58.890625 27.59375 58.890625 
Q 23.1875 58.890625 20.875 56.515625 
Q 18.5625 54.15625 17.875 49.421875 
L 4.046875 50.203125 
Q 4.546875 54.25 6.046875 57.8125 
Q 7.5625 61.375 10.375 64.0625 
Q 13.1875 66.75 17.40625 68.28125 
Q 21.625 69.828125 27.484375 69.828125 
Q 33.0625 69.828125 37.359375 68.53125 
Q 41.65625 67.234375 44.578125 64.734375 
Q 47.515625 62.25 49.015625 58.65625 
Q 50.53125 55.078125 50.53125 50.484375 
Q 50.53125 45.65625 48.625 41.75 
Q 46.734375 37.84375 43.75 34.546875 
Q 40.765625 31.25 37.125 28.359375 
Q 33.5 25.484375 30.078125 22.75 
Q 26.65625 20.015625 23.84375 17.234375 
Q 21.046875 14.453125 19.671875 11.28125 
L 51.609375 11.28125 
L 51.609375 0 
z
" id="LiberationSans-Bold-50"/>
      </defs>
      <g style="fill:#262626;" transform="translate(43.74 324.128375)scale(0.18 -0.18)">
       <use transform="translate(0 0.140625)" xlink:href="#LiberationSans-Bold-49"/>
       <use transform="translate(55.615234 0.140625)" xlink:href="#LiberationSans-Bold-48"/>
       <use transform="translate(112.154961 37.120312)scale(0.7)" xlink:href="#LiberationSans-Bold-50"/>
      </g>
     </g>
    </g>
    <g id="xtick_2">
     <g id="line2d_3">
      <path clip-path="url(#p0d0ce97728)" d="M 117.12 307.584 
L 117.12 41.472 
" style="fill:none;stroke:#ffffff;stroke-linecap:round;stroke-width:0.8;"/>
     </g>
     <g id="line2d_4"/>
     <g id="text_2">
      <!-- $\mathdefault{10^{3}}$ -->
      <defs>
       <path d="M 52 19.09375 
Q 52 14.40625 50.453125 10.671875 
Q 48.921875 6.9375 45.84375 4.296875 
Q 42.78125 1.65625 38.203125 0.265625 
Q 33.640625 -1.125 27.59375 -1.125 
Q 20.84375 -1.125 16.234375 0.578125 
Q 11.625 2.296875 8.671875 5.09375 
Q 5.71875 7.90625 4.21875 11.46875 
Q 2.734375 15.046875 2.296875 18.703125 
L 16.265625 19.921875 
Q 16.546875 17.71875 17.359375 15.890625 
Q 18.171875 14.0625 19.53125 12.734375 
Q 20.90625 11.421875 22.875 10.71875 
Q 24.859375 10.015625 27.546875 10.015625 
Q 32.46875 10.015625 35.203125 12.453125 
Q 37.9375 14.890625 37.9375 19.921875 
Q 37.9375 23 36.640625 24.84375 
Q 35.359375 26.703125 33.375 27.703125 
Q 31.390625 28.71875 29.09375 29.046875 
Q 26.8125 29.390625 24.75 29.390625 
L 19.96875 29.390625 
L 19.96875 40.484375 
L 24.46875 40.484375 
Q 26.515625 40.484375 28.640625 40.875 
Q 30.765625 41.265625 32.46875 42.28125 
Q 34.1875 43.3125 35.25 45.140625 
Q 36.328125 46.96875 36.328125 49.8125 
Q 36.328125 54.046875 33.953125 56.46875 
Q 31.59375 58.890625 27.046875 58.890625 
Q 22.796875 58.890625 20.1875 56.546875 
Q 17.578125 54.203125 17.1875 49.90625 
L 3.46875 50.875 
Q 4.046875 55.71875 6.125 59.28125 
Q 8.203125 62.84375 11.34375 65.1875 
Q 14.5 67.53125 18.59375 68.671875 
Q 22.703125 69.828125 27.296875 69.828125 
Q 33.34375 69.828125 37.6875 68.359375 
Q 42.046875 66.890625 44.828125 64.40625 
Q 47.609375 61.921875 48.921875 58.59375 
Q 50.25 55.28125 50.25 51.515625 
Q 50.25 48.484375 49.359375 45.875 
Q 48.484375 43.265625 46.703125 41.1875 
Q 44.921875 39.109375 42.140625 37.625 
Q 39.359375 36.140625 35.546875 35.40625 
L 35.546875 35.203125 
Q 39.796875 34.71875 42.921875 33.28125 
Q 46.046875 31.84375 48.046875 29.6875 
Q 50.046875 27.546875 51.015625 24.828125 
Q 52 22.125 52 19.09375 
z
" id="LiberationSans-Bold-51"/>
      </defs>
      <g style="fill:#262626;" transform="translate(103.26 324.128375)scale(0.18 -0.18)">
       <use transform="translate(0 0.140625)" xlink:href="#LiberationSans-Bold-49"/>
       <use transform="translate(55.615234 0.140625)" xlink:href="#LiberationSans-Bold-48"/>
       <use transform="translate(112.154961 37.120312)scale(0.7)" xlink:href="#LiberationSans-Bold-51"/>
      </g>
     </g>
    </g>
    <g id="xtick_3">
     <g id="line2d_5">
      <path clip-path="url(#p0d0ce97728)" d="M 176.64 307.584 
L 176.64 41.472 
" style="fill:none;stroke:#ffffff;stroke-linecap:round;stroke-width:0.8;"/>
     </g>
     <g id="line2d_6"/>
     <g id="text_3">
      <!-- $\mathdefault{10^{4}}$ -->
      <defs>
       <path d="M 45.90625 14.015625 
L 45.90625 0 
L 32.8125 0 
L 32.8125 14.015625 
L 1.515625 14.015625 
L 1.515625 24.3125 
L 30.5625 68.796875 
L 45.90625 68.796875 
L 45.90625 24.21875 
L 55.078125 24.21875 
L 55.078125 14.015625 
z
M 32.8125 46.734375 
Q 32.8125 47.5625 32.828125 48.90625 
Q 32.859375 50.25 32.9375 51.65625 
Q 33.015625 53.078125 33.078125 54.375 
Q 33.15625 55.671875 33.25 56.390625 
Q 33.015625 55.859375 32.46875 54.859375 
Q 31.9375 53.859375 31.265625 52.703125 
Q 30.609375 51.5625 29.90625 50.4375 
Q 29.203125 49.3125 28.65625 48.484375 
L 12.703125 24.21875 
L 32.8125 24.21875 
z
" id="LiberationSans-Bold-52"/>
      </defs>
      <g style="fill:#262626;" transform="translate(162.78 324.128375)scale(0.18 -0.18)">
       <use transform="translate(0 0.8625)" xlink:href="#LiberationSans-Bold-49"/>
       <use transform="translate(55.615234 0.8625)" xlink:href="#LiberationSans-Bold-48"/>
       <use transform="translate(112.154961 37.842188)scale(0.7)" xlink:href="#LiberationSans-Bold-52"/>
      </g>
     </g>
    </g>
    <g id="xtick_4">
     <g id="line2d_7">
      <path clip-path="url(#p0d0ce97728)" d="M 236.16 307.584 
L 236.16 41.472 
" style="fill:none;stroke:#ffffff;stroke-linecap:round;stroke-width:0.8;"/>
     </g>
     <g id="line2d_8"/>
     <g id="text_4">
      <!-- $\mathdefault{10^{5}}$ -->
      <defs>
       <path d="M 52.828125 22.90625 
Q 52.828125 17.71875 51.1875 13.34375 
Q 49.5625 8.984375 46.328125 5.78125 
Q 43.109375 2.59375 38.34375 0.796875 
Q 33.59375 -0.984375 27.34375 -0.984375 
Q 21.578125 -0.984375 17.28125 0.40625 
Q 12.984375 1.8125 10.03125 4.265625 
Q 7.078125 6.734375 5.390625 10.046875 
Q 3.71875 13.375 3.078125 17.1875 
L 16.796875 18.3125 
Q 17.1875 16.703125 17.890625 15.1875 
Q 18.609375 13.671875 19.875 12.5 
Q 21.140625 11.328125 23 10.609375 
Q 24.859375 9.90625 27.484375 9.90625 
Q 32.625 9.90625 35.671875 13.171875 
Q 38.71875 16.453125 38.71875 22.609375 
Q 38.71875 25.34375 37.953125 27.53125 
Q 37.203125 29.734375 35.8125 31.296875 
Q 34.421875 32.859375 32.390625 33.6875 
Q 30.375 34.515625 27.78125 34.515625 
Q 24.359375 34.515625 22.15625 33.21875 
Q 19.96875 31.9375 18.453125 30.078125 
L 5.078125 30.078125 
L 7.46875 68.796875 
L 48.828125 68.796875 
L 48.828125 58.59375 
L 19.921875 58.59375 
L 18.796875 41.21875 
Q 20.84375 43.015625 23.96875 44.3125 
Q 27.09375 45.609375 31.25 45.609375 
Q 36.328125 45.609375 40.328125 43.9375 
Q 44.34375 42.28125 47.125 39.296875 
Q 49.90625 36.328125 51.359375 32.15625 
Q 52.828125 27.984375 52.828125 22.90625 
z
" id="LiberationSans-Bold-53"/>
      </defs>
      <g style="fill:#262626;" transform="translate(222.3 324.128375)scale(0.18 -0.18)">
       <use transform="translate(0 0.8625)" xlink:href="#LiberationSans-Bold-49"/>
       <use transform="translate(55.615234 0.8625)" xlink:href="#LiberationSans-Bold-48"/>
       <use transform="translate(112.154961 37.842188)scale(0.7)" xlink:href="#LiberationSans-Bold-53"/>
      </g>
     </g>
    </g>
    <g id="xtick_5">
     <g id="line2d_9">
      <path clip-path="url(#p0d0ce97728)" d="M 295.68 307.584 
L 295.68 41.472 
" style="fill:none;stroke:#ffffff;stroke-linecap:round;stroke-width:0.8;"/>
     </g>
     <g id="line2d_10"/>
     <g id="text_5">
      <!-- $\mathdefault{10^{6}}$ -->
      <defs>
       <path d="M 52 22.515625 
Q 52 17.328125 50.53125 13 
Q 49.078125 8.6875 46.171875 5.578125 
Q 43.265625 2.484375 38.921875 0.75 
Q 34.578125 -0.984375 28.859375 -0.984375 
Q 16.703125 -0.984375 10.171875 7.53125 
Q 3.65625 16.0625 3.65625 32.8125 
Q 3.65625 51.21875 10.265625 60.515625 
Q 16.890625 69.828125 29.203125 69.828125 
Q 33.296875 69.828125 36.671875 68.96875 
Q 40.046875 68.109375 42.671875 66.203125 
Q 45.3125 64.3125 47.171875 61.296875 
Q 49.03125 58.296875 50.140625 54 
L 37.203125 52.203125 
Q 36.234375 55.8125 34.03125 57.390625 
Q 31.84375 58.984375 28.90625 58.984375 
Q 23.390625 58.984375 20.234375 53.46875 
Q 17.09375 47.953125 17.09375 36.71875 
Q 19.28125 40.375 23.1875 42.328125 
Q 27.09375 44.28125 32.03125 44.28125 
Q 36.578125 44.28125 40.265625 42.796875 
Q 43.953125 41.3125 46.5625 38.5 
Q 49.171875 35.6875 50.578125 31.640625 
Q 52 27.59375 52 22.515625 
z
M 38.234375 22.125 
Q 38.234375 24.90625 37.59375 27.125 
Q 36.96875 29.34375 35.671875 30.90625 
Q 34.375 32.46875 32.46875 33.328125 
Q 30.5625 34.1875 28.078125 34.1875 
Q 26.265625 34.1875 24.453125 33.59375 
Q 22.65625 33.015625 21.234375 31.71875 
Q 19.828125 30.421875 18.9375 28.421875 
Q 18.0625 26.421875 18.0625 23.578125 
Q 18.0625 20.65625 18.796875 18.109375 
Q 19.53125 15.578125 20.875 13.6875 
Q 22.21875 11.8125 24.125 10.765625 
Q 26.03125 9.71875 28.421875 9.71875 
Q 33.0625 9.71875 35.640625 13.015625 
Q 38.234375 16.3125 38.234375 22.125 
z
" id="LiberationSans-Bold-54"/>
      </defs>
      <g style="fill:#262626;" transform="translate(281.82 324.128375)scale(0.18 -0.18)">
       <use transform="translate(0 0.140625)" xlink:href="#LiberationSans-Bold-49"/>
       <use transform="translate(55.615234 0.140625)" xlink:href="#LiberationSans-Bold-48"/>
       <use transform="translate(112.154961 37.120312)scale(0.7)" xlink:href="#LiberationSans-Bold-54"/>
      </g>
     </g>
    </g>
    <g id="xtick_6">
     <g id="line2d_11">
      <path clip-path="url(#p0d0ce97728)" d="M 355.2 307.584 
L 355.2 41.472 
" style="fill:none;stroke:#ffffff;stroke-linecap:round;stroke-width:0.8;"/>
     </g>
     <g id="line2d_12"/>
     <g id="text_6">
      <!-- $\mathdefault{10^{7}}$ -->
      <defs>
       <path d="M 51.21875 57.90625 
Q 46.578125 50.59375 42.453125 43.703125 
Q 38.328125 36.8125 35.25 29.859375 
Q 32.171875 22.90625 30.390625 15.546875 
Q 28.609375 8.203125 28.609375 0 
L 14.3125 0 
Q 14.3125 8.15625 16.234375 15.5 
Q 18.171875 22.859375 21.484375 29.828125 
Q 24.8125 36.8125 29.203125 43.625 
Q 33.59375 50.4375 38.484375 57.515625 
L 4.296875 57.515625 
L 4.296875 68.796875 
L 51.21875 68.796875 
z
" id="LiberationSans-Bold-55"/>
      </defs>
      <g style="fill:#262626;" transform="translate(341.34 324.128375)scale(0.18 -0.18)">
       <use transform="translate(0 0.8625)" xlink:href="#LiberationSans-Bold-49"/>
       <use transform="translate(55.615234 0.8625)" xlink:href="#LiberationSans-Bold-48"/>
       <use transform="translate(112.154961 37.842188)scale(0.7)" xlink:href="#LiberationSans-Bold-55"/>
      </g>
     </g>
    </g>
    <g id="xtick_7">
     <g id="line2d_13">
      <path clip-path="url(#p0d0ce97728)" d="M 414.72 307.584 
L 414.72 41.472 
" style="fill:none;stroke:#ffffff;stroke-linecap:round;stroke-width:0.8;"/>
     </g>
     <g id="line2d_14"/>
     <g id="text_7">
      <!-- $\mathdefault{10^{8}}$ -->
      <defs>
       <path d="M 52.546875 19.390625 
Q 52.546875 14.9375 51.078125 11.203125 
Q 49.609375 7.46875 46.578125 4.75 
Q 43.5625 2.046875 38.921875 0.53125 
Q 34.28125 -0.984375 27.875 -0.984375 
Q 21.53125 -0.984375 16.859375 0.53125 
Q 12.203125 2.046875 9.15625 4.75 
Q 6.109375 7.46875 4.640625 11.171875 
Q 3.171875 14.890625 3.171875 19.28125 
Q 3.171875 23.046875 4.34375 25.953125 
Q 5.515625 28.859375 7.46875 30.953125 
Q 9.421875 33.0625 11.953125 34.296875 
Q 14.5 35.546875 17.1875 35.984375 
L 17.1875 36.1875 
Q 14.3125 36.8125 12.015625 38.28125 
Q 9.71875 39.75 8.109375 41.796875 
Q 6.5 43.84375 5.640625 46.359375 
Q 4.78125 48.875 4.78125 51.609375 
Q 4.78125 55.71875 6.265625 59.078125 
Q 7.765625 62.453125 10.640625 64.84375 
Q 13.53125 67.234375 17.796875 68.53125 
Q 22.078125 69.828125 27.6875 69.828125 
Q 33.6875 69.828125 38.0625 68.484375 
Q 42.4375 67.140625 45.265625 64.71875 
Q 48.09375 62.3125 49.453125 58.9375 
Q 50.828125 55.5625 50.828125 51.515625 
Q 50.828125 48.828125 49.96875 46.3125 
Q 49.125 43.796875 47.515625 41.75 
Q 45.90625 39.703125 43.578125 38.28125 
Q 41.265625 36.859375 38.328125 36.28125 
L 38.328125 36.078125 
Q 41.359375 35.59375 43.96875 34.296875 
Q 46.578125 33.015625 48.484375 30.9375 
Q 50.390625 28.859375 51.46875 25.953125 
Q 52.546875 23.046875 52.546875 19.390625 
z
M 36.71875 50.78125 
Q 36.71875 52.828125 36.28125 54.5625 
Q 35.84375 56.296875 34.8125 57.546875 
Q 33.796875 58.796875 32.0625 59.5 
Q 30.328125 60.203125 27.6875 60.203125 
Q 25.140625 60.203125 23.4375 59.5 
Q 21.734375 58.796875 20.703125 57.546875 
Q 19.671875 56.296875 19.234375 54.5625 
Q 18.796875 52.828125 18.796875 50.78125 
Q 18.796875 48.96875 19.15625 47.203125 
Q 19.53125 45.453125 20.5 44.0625 
Q 21.484375 42.671875 23.234375 41.796875 
Q 25 40.921875 27.78125 40.921875 
Q 30.71875 40.921875 32.5 41.796875 
Q 34.28125 42.671875 35.203125 44.09375 
Q 36.140625 45.515625 36.421875 47.265625 
Q 36.71875 49.03125 36.71875 50.78125 
z
M 38.328125 20.515625 
Q 38.328125 22.609375 37.859375 24.5625 
Q 37.40625 26.515625 36.203125 28 
Q 35.015625 29.5 32.90625 30.390625 
Q 30.8125 31.296875 27.59375 31.296875 
Q 24.65625 31.296875 22.671875 30.390625 
Q 20.703125 29.5 19.5 27.984375 
Q 18.3125 26.46875 17.796875 24.484375 
Q 17.28125 22.515625 17.28125 20.3125 
Q 17.28125 17.71875 17.796875 15.5625 
Q 18.3125 13.421875 19.546875 11.890625 
Q 20.796875 10.359375 22.84375 9.515625 
Q 24.90625 8.6875 27.984375 8.6875 
Q 31.0625 8.6875 33.0625 9.546875 
Q 35.0625 10.40625 36.234375 11.96875 
Q 37.40625 13.53125 37.859375 15.703125 
Q 38.328125 17.875 38.328125 20.515625 
z
" id="LiberationSans-Bold-56"/>
      </defs>
      <g style="fill:#262626;" transform="translate(400.86 324.128375)scale(0.18 -0.18)">
       <use transform="translate(0 0.140625)" xlink:href="#LiberationSans-Bold-49"/>
       <use transform="translate(55.615234 0.140625)" xlink:href="#LiberationSans-Bold-48"/>
       <use transform="translate(112.154961 37.120312)scale(0.7)" xlink:href="#LiberationSans-Bold-56"/>
      </g>
     </g>
    </g>
    <g id="text_8">
     <!-- Array Size (B) -->
     <defs>
      <path d="M 56.984375 0 
L 49.125 20.125 
L 17.78125 20.125 
L 9.859375 0 
L 0.203125 0 
L 28.265625 68.796875 
L 38.875 68.796875 
L 66.5 0 
z
M 37.5 50.09375 
Q 36.71875 52.046875 36 54.046875 
Q 35.296875 56.0625 34.765625 57.6875 
Q 34.234375 59.328125 33.859375 60.421875 
Q 33.5 61.53125 33.453125 61.765625 
Q 33.34375 61.53125 33 60.40625 
Q 32.671875 59.28125 32.109375 57.609375 
Q 31.546875 55.953125 30.828125 53.953125 
Q 30.125 51.953125 29.390625 50 
L 20.609375 27.390625 
L 46.34375 27.390625 
z
" id="LiberationSans-65"/>
      <path d="M 6.9375 0 
L 6.9375 40.53125 
Q 6.9375 42.1875 6.90625 43.921875 
Q 6.890625 45.65625 6.828125 47.265625 
Q 6.78125 48.875 6.734375 50.28125 
Q 6.6875 51.703125 6.640625 52.828125 
L 14.9375 52.828125 
Q 14.984375 51.703125 15.0625 50.265625 
Q 15.140625 48.828125 15.203125 47.3125 
Q 15.28125 45.796875 15.296875 44.40625 
Q 15.328125 43.015625 15.328125 42.046875 
L 15.53125 42.046875 
Q 16.453125 45.0625 17.5 47.28125 
Q 18.5625 49.515625 19.96875 50.953125 
Q 21.390625 52.390625 23.34375 53.09375 
Q 25.296875 53.8125 28.078125 53.8125 
Q 29.15625 53.8125 30.125 53.640625 
Q 31.109375 53.46875 31.640625 53.328125 
L 31.640625 45.265625 
Q 30.765625 45.515625 29.59375 45.625 
Q 28.421875 45.75 26.953125 45.75 
Q 23.921875 45.75 21.796875 44.375 
Q 19.671875 43.015625 18.328125 40.59375 
Q 17 38.1875 16.359375 34.84375 
Q 15.71875 31.5 15.71875 27.546875 
L 15.71875 0 
z
" id="LiberationSans-114"/>
      <path d="M 20.21875 -0.984375 
Q 12.25 -0.984375 8.25 3.21875 
Q 4.25 7.421875 4.25 14.75 
Q 4.25 19.96875 6.21875 23.3125 
Q 8.203125 26.65625 11.390625 28.5625 
Q 14.59375 30.46875 18.6875 31.203125 
Q 22.796875 31.9375 27.046875 32.03125 
L 38.921875 32.234375 
L 38.921875 35.109375 
Q 38.921875 38.375 38.234375 40.671875 
Q 37.546875 42.96875 36.125 44.375 
Q 34.71875 45.796875 32.59375 46.453125 
Q 30.46875 47.125 27.59375 47.125 
Q 25.046875 47.125 23 46.75 
Q 20.953125 46.390625 19.4375 45.4375 
Q 17.921875 44.484375 16.984375 42.84375 
Q 16.0625 41.21875 15.765625 38.71875 
L 6.59375 39.546875 
Q 7.078125 42.671875 8.4375 45.28125 
Q 9.8125 47.90625 12.328125 49.796875 
Q 14.84375 51.703125 18.625 52.75 
Q 22.40625 53.8125 27.78125 53.8125 
Q 37.75 53.8125 42.765625 49.234375 
Q 47.796875 44.671875 47.796875 36.03125 
L 47.796875 13.28125 
Q 47.796875 9.375 48.828125 7.390625 
Q 49.859375 5.421875 52.734375 5.421875 
Q 53.46875 5.421875 54.203125 5.515625 
Q 54.9375 5.609375 55.609375 5.765625 
L 55.609375 0.296875 
Q 53.953125 -0.09375 52.3125 -0.28125 
Q 50.6875 -0.484375 48.828125 -0.484375 
Q 46.34375 -0.484375 44.5625 0.171875 
Q 42.78125 0.828125 41.65625 2.171875 
Q 40.53125 3.515625 39.9375 5.484375 
Q 39.359375 7.46875 39.203125 10.109375 
L 38.921875 10.109375 
Q 37.5 7.5625 35.8125 5.515625 
Q 34.125 3.46875 31.875 2.03125 
Q 29.640625 0.59375 26.78125 -0.1875 
Q 23.921875 -0.984375 20.21875 -0.984375 
z
M 22.21875 5.609375 
Q 26.421875 5.609375 29.5625 7.140625 
Q 32.71875 8.6875 34.78125 11.078125 
Q 36.859375 13.484375 37.890625 16.3125 
Q 38.921875 19.140625 38.921875 21.734375 
L 38.921875 26.078125 
L 29.296875 25.875 
Q 26.078125 25.828125 23.171875 25.40625 
Q 20.265625 25 18.0625 23.78125 
Q 15.875 22.5625 14.578125 20.359375 
Q 13.28125 18.171875 13.28125 14.59375 
Q 13.28125 10.296875 15.59375 7.953125 
Q 17.921875 5.609375 22.21875 5.609375 
z
" id="LiberationSans-97"/>
      <path d="M 29.5 0 
Q 27.640625 -4.78125 25.703125 -8.609375 
Q 23.78125 -12.453125 21.390625 -15.15625 
Q 19 -17.875 16.0625 -19.3125 
Q 13.140625 -20.75 9.328125 -20.75 
Q 7.671875 -20.75 6.25 -20.65625 
Q 4.828125 -20.5625 3.265625 -20.21875 
L 3.265625 -13.625 
Q 4.203125 -13.765625 5.375 -13.84375 
Q 6.546875 -13.921875 7.375 -13.921875 
Q 11.234375 -13.921875 14.546875 -11.03125 
Q 17.875 -8.15625 20.359375 -1.859375 
L 21.1875 0.25 
L 0.25 52.828125 
L 9.625 52.828125 
L 20.75 23.640625 
Q 21.234375 22.3125 21.984375 20.109375 
Q 22.75 17.921875 23.5 15.71875 
Q 24.265625 13.53125 24.84375 11.765625 
Q 25.4375 10.015625 25.53125 9.578125 
Q 25.6875 10.109375 26.25 11.6875 
Q 26.8125 13.28125 27.515625 15.234375 
Q 28.21875 17.1875 28.953125 19.1875 
Q 29.6875 21.1875 30.171875 22.65625 
L 40.53125 52.828125 
L 49.8125 52.828125 
z
" id="LiberationSans-121"/>
      <path id="LiberationSans-32"/>
      <path d="M 62.109375 19 
Q 62.109375 14.65625 60.421875 10.984375 
Q 58.734375 7.328125 55.21875 4.65625 
Q 51.703125 2 46.359375 0.5 
Q 41.015625 -0.984375 33.6875 -0.984375 
Q 20.84375 -0.984375 13.671875 3.515625 
Q 6.5 8.015625 4.546875 16.5 
L 13.578125 18.3125 
Q 14.265625 15.625 15.671875 13.421875 
Q 17.09375 11.234375 19.5 9.640625 
Q 21.921875 8.0625 25.484375 7.171875 
Q 29.046875 6.296875 34.03125 6.296875 
Q 38.1875 6.296875 41.65625 7 
Q 45.125 7.71875 47.609375 9.171875 
Q 50.09375 10.640625 51.484375 12.953125 
Q 52.875 15.28125 52.875 18.5 
Q 52.875 21.875 51.34375 23.96875 
Q 49.8125 26.078125 47.015625 27.4375 
Q 44.234375 28.8125 40.375 29.734375 
Q 36.53125 30.671875 31.84375 31.734375 
Q 28.953125 32.375 26.046875 33.125 
Q 23.140625 33.890625 20.484375 34.9375 
Q 17.828125 35.984375 15.484375 37.390625 
Q 13.140625 38.8125 11.421875 40.796875 
Q 9.71875 42.78125 8.734375 45.390625 
Q 7.765625 48 7.765625 51.421875 
Q 7.765625 56.296875 9.734375 59.78125 
Q 11.71875 63.28125 15.234375 65.53125 
Q 18.75 67.78125 23.53125 68.796875 
Q 28.328125 69.828125 33.890625 69.828125 
Q 40.28125 69.828125 44.8125 68.828125 
Q 49.359375 67.828125 52.484375 65.8125 
Q 55.609375 63.8125 57.484375 60.859375 
Q 59.375 57.90625 60.5 54 
L 51.3125 52.390625 
Q 50.640625 54.890625 49.34375 56.84375 
Q 48.046875 58.796875 45.9375 60.109375 
Q 43.84375 61.421875 40.84375 62.109375 
Q 37.84375 62.796875 33.796875 62.796875 
Q 29 62.796875 25.75 61.9375 
Q 22.515625 61.078125 20.53125 59.609375 
Q 18.5625 58.15625 17.703125 56.171875 
Q 16.84375 54.203125 16.84375 51.90625 
Q 16.84375 48.828125 18.375 46.84375 
Q 19.921875 44.875 22.5625 43.546875 
Q 25.203125 42.234375 28.65625 41.359375 
Q 32.125 40.484375 36.03125 39.59375 
Q 39.203125 38.875 42.359375 38.109375 
Q 45.515625 37.359375 48.390625 36.296875 
Q 51.265625 35.25 53.78125 33.828125 
Q 56.296875 32.421875 58.15625 30.375 
Q 60.015625 28.328125 61.0625 25.53125 
Q 62.109375 22.75 62.109375 19 
z
" id="LiberationSans-83"/>
      <path d="M 6.6875 64.0625 
L 6.6875 72.46875 
L 15.484375 72.46875 
L 15.484375 64.0625 
z
M 6.6875 0 
L 6.6875 52.828125 
L 15.484375 52.828125 
L 15.484375 0 
z
" id="LiberationSans-105"/>
      <path d="M 2.390625 0 
L 2.390625 6.6875 
L 34.671875 46.046875 
L 4.34375 46.046875 
L 4.34375 52.828125 
L 44.578125 52.828125 
L 44.578125 46.140625 
L 12.25 6.78125 
L 46.390625 6.78125 
L 46.390625 0 
z
" id="LiberationSans-122"/>
      <path d="M 13.484375 24.5625 
Q 13.484375 20.40625 14.328125 16.90625 
Q 15.1875 13.421875 16.96875 10.90625 
Q 18.75 8.40625 21.53125 7 
Q 24.3125 5.609375 28.21875 5.609375 
Q 33.9375 5.609375 37.375 7.90625 
Q 40.828125 10.203125 42.046875 13.71875 
L 49.75 11.53125 
Q 48.921875 9.328125 47.4375 7.109375 
Q 45.953125 4.890625 43.453125 3.09375 
Q 40.96875 1.3125 37.234375 0.15625 
Q 33.5 -0.984375 28.21875 -0.984375 
Q 16.5 -0.984375 10.375 6 
Q 4.25 12.984375 4.25 26.765625 
Q 4.25 34.1875 6.09375 39.328125 
Q 7.953125 44.484375 11.171875 47.703125 
Q 14.40625 50.921875 18.703125 52.359375 
Q 23 53.8125 27.875 53.8125 
Q 34.515625 53.8125 38.984375 51.65625 
Q 43.453125 49.515625 46.15625 45.71875 
Q 48.875 41.9375 50.015625 36.8125 
Q 51.171875 31.6875 51.171875 25.734375 
L 51.171875 24.5625 
z
M 42.09375 31.296875 
Q 41.359375 39.65625 37.84375 43.484375 
Q 34.328125 47.3125 27.734375 47.3125 
Q 25.53125 47.3125 23.109375 46.609375 
Q 20.703125 45.90625 18.65625 44.09375 
Q 16.609375 42.28125 15.1875 39.171875 
Q 13.765625 36.078125 13.578125 31.296875 
z
" id="LiberationSans-101"/>
      <path d="M 6.203125 25.984375 
Q 6.203125 32.765625 7.21875 38.96875 
Q 8.25 45.171875 10.4375 50.875 
Q 12.640625 56.59375 16.0625 61.953125 
Q 19.484375 67.328125 24.21875 72.46875 
L 32.71875 72.46875 
Q 28.125 67.328125 24.78125 61.9375 
Q 21.4375 56.546875 19.28125 50.796875 
Q 17.140625 45.0625 16.09375 38.859375 
Q 15.046875 32.671875 15.046875 25.875 
Q 15.046875 19.09375 16.09375 12.890625 
Q 17.140625 6.6875 19.28125 0.921875 
Q 21.4375 -4.828125 24.78125 -10.203125 
Q 28.125 -15.578125 32.71875 -20.703125 
L 24.21875 -20.703125 
Q 19.484375 -15.578125 16.0625 -10.203125 
Q 12.640625 -4.828125 10.4375 0.875 
Q 8.25 6.59375 7.21875 12.765625 
Q 6.203125 18.953125 6.203125 25.78125 
z
" id="LiberationSans-40"/>
      <path d="M 61.421875 19.390625 
Q 61.421875 14.15625 59.375 10.46875 
Q 57.328125 6.78125 53.859375 4.46875 
Q 50.390625 2.15625 45.796875 1.078125 
Q 41.21875 0 36.140625 0 
L 8.203125 0 
L 8.203125 68.796875 
L 33.203125 68.796875 
Q 38.921875 68.796875 43.40625 67.84375 
Q 47.90625 66.890625 51.03125 64.84375 
Q 54.15625 62.796875 55.78125 59.640625 
Q 57.421875 56.5 57.421875 52.09375 
Q 57.421875 49.21875 56.609375 46.671875 
Q 55.8125 44.140625 54.171875 42.0625 
Q 52.546875 39.984375 50.078125 38.5 
Q 47.609375 37.015625 44.34375 36.28125 
Q 48.484375 35.796875 51.6875 34.375 
Q 54.890625 32.953125 57.03125 30.75 
Q 59.1875 28.5625 60.296875 25.65625 
Q 61.421875 22.75 61.421875 19.390625 
z
M 48.046875 50.984375 
Q 48.046875 56.546875 44.234375 58.9375 
Q 40.4375 61.328125 33.203125 61.328125 
L 17.53125 61.328125 
L 17.53125 39.546875 
L 33.203125 39.546875 
Q 37.3125 39.546875 40.140625 40.34375 
Q 42.96875 41.15625 44.71875 42.640625 
Q 46.484375 44.140625 47.265625 46.234375 
Q 48.046875 48.34375 48.046875 50.984375 
z
M 52 20.125 
Q 52 23.390625 50.796875 25.6875 
Q 49.609375 27.984375 47.359375 29.4375 
Q 45.125 30.90625 41.96875 31.59375 
Q 38.8125 32.28125 34.90625 32.28125 
L 17.53125 32.28125 
L 17.53125 7.46875 
L 35.640625 7.46875 
Q 39.203125 7.46875 42.203125 8.046875 
Q 45.21875 8.640625 47.390625 10.109375 
Q 49.5625 11.578125 50.78125 14.015625 
Q 52 16.453125 52 20.125 
z
" id="LiberationSans-66"/>
      <path d="M 27.09375 25.78125 
Q 27.09375 18.953125 26.0625 12.765625 
Q 25.046875 6.59375 22.84375 0.875 
Q 20.65625 -4.828125 17.234375 -10.203125 
Q 13.8125 -15.578125 9.078125 -20.703125 
L 0.59375 -20.703125 
Q 5.171875 -15.578125 8.515625 -10.203125 
Q 11.859375 -4.828125 14 0.921875 
Q 16.15625 6.6875 17.203125 12.890625 
Q 18.265625 19.09375 18.265625 25.875 
Q 18.265625 32.671875 17.203125 38.859375 
Q 16.15625 45.0625 14 50.796875 
Q 11.859375 56.546875 8.515625 61.9375 
Q 5.171875 67.328125 0.59375 72.46875 
L 9.078125 72.46875 
Q 13.8125 67.328125 17.234375 61.953125 
Q 20.65625 56.59375 22.84375 50.875 
Q 25.046875 45.171875 26.0625 38.96875 
Q 27.09375 32.765625 27.09375 25.984375 
z
" id="LiberationSans-41"/>
     </defs>
     <g style="fill:#262626;" transform="translate(180.153281 344.90775)scale(0.18 -0.18)">
      <use xlink:href="#LiberationSans-65"/>
      <use x="66.699219" xlink:href="#LiberationSans-114"/>
      <use x="100" xlink:href="#LiberationSans-114"/>
      <use x="133.300781" xlink:href="#LiberationSans-97"/>
      <use x="188.916016" xlink:href="#LiberationSans-121"/>
      <use x="238.916016" xlink:href="#LiberationSans-32"/>
      <use x="266.699219" xlink:href="#LiberationSans-83"/>
      <use x="333.398438" xlink:href="#LiberationSans-105"/>
      <use x="355.615234" xlink:href="#LiberationSans-122"/>
      <use x="405.615234" xlink:href="#LiberationSans-101"/>
      <use x="461.230469" xlink:href="#LiberationSans-32"/>
      <use x="489.013672" xlink:href="#LiberationSans-40"/>
      <use x="522.314453" xlink:href="#LiberationSans-66"/>
      <use x="589.013672" xlink:href="#LiberationSans-41"/>
     </g>
    </g>
   </g>
   <g id="matplotlib.axis_2">
    <g id="ytick_1">
     <g id="line2d_15">
      <path clip-path="url(#p0d0ce97728)" d="M 57.6 307.584 
L 414.72 307.584 
" style="fill:none;stroke:#ffffff;stroke-linecap:round;stroke-width:0.8;"/>
     </g>
     <g id="line2d_16"/>
     <g id="text_9">
      <!-- 0 -->
      <g style="fill:#262626;" transform="translate(44.090313 314.106187)scale(0.18 -0.18)">
       <use xlink:href="#LiberationSans-Bold-48"/>
      </g>
     </g>
    </g>
    <g id="ytick_2">
     <g id="line2d_17">
      <path clip-path="url(#p0d0ce97728)" d="M 57.6 274.32 
L 414.72 274.32 
" style="fill:none;stroke:#ffffff;stroke-linecap:round;stroke-width:0.8;"/>
     </g>
     <g id="line2d_18"/>
     <g id="text_10">
      <!-- 2 -->
      <g style="fill:#262626;" transform="translate(44.090313 280.842187)scale(0.18 -0.18)">
       <use xlink:href="#LiberationSans-Bold-50"/>
      </g>
     </g>
    </g>
    <g id="ytick_3">
     <g id="line2d_19">
      <path clip-path="url(#p0d0ce97728)" d="M 57.6 241.056 
L 414.72 241.056 
" style="fill:none;stroke:#ffffff;stroke-linecap:round;stroke-width:0.8;"/>
     </g>
     <g id="line2d_20"/>
     <g id="text_11">
      <!-- 4 -->
      <g style="fill:#262626;" transform="translate(44.090313 247.578187)scale(0.18 -0.18)">
       <use xlink:href="#LiberationSans-Bold-52"/>
      </g>
     </g>
    </g>
    <g id="ytick_4">
     <g id="line2d_21">
      <path clip-path="url(#p0d0ce97728)" d="M 57.6 207.792 
L 414.72 207.792 
" style="fill:none;stroke:#ffffff;stroke-linecap:round;stroke-width:0.8;"/>
     </g>
     <g id="line2d_22"/>
     <g id="text_12">
      <!-- 6 -->
      <g style="fill:#262626;" transform="translate(44.090313 214.314187)scale(0.18 -0.18)">
       <use xlink:href="#LiberationSans-Bold-54"/>
      </g>
     </g>
    </g>
    <g id="ytick_5">
     <g id="line2d_23">
      <path clip-path="url(#p0d0ce97728)" d="M 57.6 174.528 
L 414.72 174.528 
" style="fill:none;stroke:#ffffff;stroke-linecap:round;stroke-width:0.8;"/>
     </g>
     <g id="line2d_24"/>
     <g id="text_13">
      <!-- 8 -->
      <g style="fill:#262626;" transform="translate(44.090313 181.050187)scale(0.18 -0.18)">
       <use xlink:href="#LiberationSans-Bold-56"/>
      </g>
     </g>
    </g>
    <g id="ytick_6">
     <g id="line2d_25">
      <path clip-path="url(#p0d0ce97728)" d="M 57.6 141.264 
L 414.72 141.264 
" style="fill:none;stroke:#ffffff;stroke-linecap:round;stroke-width:0.8;"/>
     </g>
     <g id="line2d_26"/>
     <g id="text_14">
      <!-- 10 -->
      <g style="fill:#262626;" transform="translate(34.080625 147.786187)scale(0.18 -0.18)">
       <use xlink:href="#LiberationSans-Bold-49"/>
       <use x="55.615234" xlink:href="#LiberationSans-Bold-48"/>
      </g>
     </g>
    </g>
    <g id="ytick_7">
     <g id="line2d_27">
      <path clip-path="url(#p0d0ce97728)" d="M 57.6 108 
L 414.72 108 
" style="fill:none;stroke:#ffffff;stroke-linecap:round;stroke-width:0.8;"/>
     </g>
     <g id="line2d_28"/>
     <g id="text_15">
      <!-- 12 -->
      <g style="fill:#262626;" transform="translate(34.080625 114.522188)scale(0.18 -0.18)">
       <use xlink:href="#LiberationSans-Bold-49"/>
       <use x="55.615234" xlink:href="#LiberationSans-Bold-50"/>
      </g>
     </g>
    </g>
    <g id="ytick_8">
     <g id="line2d_29">
      <path clip-path="url(#p0d0ce97728)" d="M 57.6 74.736 
L 414.72 74.736 
" style="fill:none;stroke:#ffffff;stroke-linecap:round;stroke-width:0.8;"/>
     </g>
     <g id="line2d_30"/>
     <g id="text_16">
      <!-- 14 -->
      <g style="fill:#262626;" transform="translate(34.080625 81.258188)scale(0.18 -0.18)">
       <use xlink:href="#LiberationSans-Bold-49"/>
       <use x="55.615234" xlink:href="#LiberationSans-Bold-52"/>
      </g>
     </g>
    </g>
    <g id="text_17">
     <!-- Bandwidth (GB/s) -->
     <defs>
      <path d="M 40.28125 0 
L 40.28125 33.5 
Q 40.28125 37.359375 39.71875 39.9375 
Q 39.15625 42.53125 37.890625 44.109375 
Q 36.625 45.703125 34.546875 46.359375 
Q 32.46875 47.015625 29.390625 47.015625 
Q 26.265625 47.015625 23.75 45.921875 
Q 21.234375 44.828125 19.453125 42.75 
Q 17.671875 40.671875 16.6875 37.625 
Q 15.71875 34.578125 15.71875 30.609375 
L 15.71875 0 
L 6.9375 0 
L 6.9375 41.546875 
Q 6.9375 43.21875 6.90625 45.046875 
Q 6.890625 46.875 6.828125 48.5 
Q 6.78125 50.140625 6.734375 51.3125 
Q 6.6875 52.484375 6.640625 52.828125 
L 14.9375 52.828125 
Q 14.984375 52.59375 15.03125 51.515625 
Q 15.09375 50.4375 15.15625 49.046875 
Q 15.234375 47.65625 15.28125 46.21875 
Q 15.328125 44.78125 15.328125 43.796875 
L 15.484375 43.796875 
Q 16.75 46.09375 18.265625 47.953125 
Q 19.78125 49.8125 21.78125 51.09375 
Q 23.78125 52.390625 26.359375 53.09375 
Q 28.953125 53.8125 32.375 53.8125 
Q 36.765625 53.8125 39.9375 52.734375 
Q 43.109375 51.65625 45.15625 49.40625 
Q 47.21875 47.171875 48.171875 43.625 
Q 49.125 40.09375 49.125 35.203125 
L 49.125 0 
z
" id="LiberationSans-110"/>
      <path d="M 40.09375 8.5 
Q 37.640625 3.421875 33.609375 1.21875 
Q 29.59375 -0.984375 23.640625 -0.984375 
Q 13.625 -0.984375 8.90625 5.75 
Q 4.203125 12.5 4.203125 26.171875 
Q 4.203125 53.8125 23.640625 53.8125 
Q 29.640625 53.8125 33.640625 51.609375 
Q 37.640625 49.421875 40.09375 44.625 
L 40.1875 44.625 
Q 40.1875 45.125 40.15625 46.171875 
Q 40.140625 47.21875 40.109375 48.359375 
Q 40.09375 49.515625 40.09375 50.53125 
Q 40.09375 51.5625 40.09375 52 
L 40.09375 72.46875 
L 48.875 72.46875 
L 48.875 10.890625 
Q 48.875 8.984375 48.890625 7.21875 
Q 48.921875 5.46875 48.96875 4 
Q 49.03125 2.546875 49.078125 1.484375 
Q 49.125 0.4375 49.171875 0 
L 40.765625 0 
Q 40.671875 0.484375 40.59375 1.390625 
Q 40.53125 2.296875 40.453125 3.46875 
Q 40.375 4.640625 40.328125 5.9375 
Q 40.28125 7.234375 40.28125 8.5 
z
M 13.421875 26.46875 
Q 13.421875 21 14.109375 17.09375 
Q 14.796875 13.1875 16.3125 10.671875 
Q 17.828125 8.15625 20.171875 6.984375 
Q 22.515625 5.8125 25.875 5.8125 
Q 29.34375 5.8125 32 6.9375 
Q 34.671875 8.0625 36.453125 10.578125 
Q 38.234375 13.09375 39.15625 17.140625 
Q 40.09375 21.1875 40.09375 27.046875 
Q 40.09375 32.671875 39.15625 36.546875 
Q 38.234375 40.4375 36.421875 42.828125 
Q 34.625 45.21875 32 46.265625 
Q 29.390625 47.3125 25.984375 47.3125 
Q 22.75 47.3125 20.40625 46.1875 
Q 18.0625 45.0625 16.5 42.578125 
Q 14.9375 40.09375 14.171875 36.109375 
Q 13.421875 32.125 13.421875 26.46875 
z
" id="LiberationSans-100"/>
      <path d="M 57.328125 0 
L 47.125 0 
L 38.671875 34.078125 
Q 38.28125 35.40625 37.859375 37.359375 
Q 37.453125 39.3125 37.0625 41.15625 
Q 36.578125 43.3125 36.140625 45.609375 
Q 35.6875 43.40625 35.203125 41.265625 
Q 34.8125 39.40625 34.34375 37.40625 
Q 33.890625 35.40625 33.5 33.890625 
L 24.8125 0 
L 14.65625 0 
L -0.140625 52.828125 
L 8.546875 52.828125 
L 17.484375 16.9375 
Q 17.828125 15.828125 18.15625 14.1875 
Q 18.5 12.546875 18.84375 10.984375 
Q 19.1875 9.1875 19.578125 7.28125 
Q 19.96875 9.125 20.40625 10.890625 
Q 20.796875 12.40625 21.1875 13.96875 
Q 21.578125 15.53125 21.875 16.546875 
L 31.453125 52.828125 
L 40.875 52.828125 
L 50.09375 16.546875 
Q 50.4375 15.28125 50.828125 13.671875 
Q 51.21875 12.0625 51.5625 10.640625 
Q 51.953125 8.984375 52.34375 7.28125 
Q 52.734375 9.125 53.125 10.890625 
Q 53.46875 12.40625 53.828125 14.03125 
Q 54.203125 15.671875 54.546875 16.9375 
L 63.875 52.828125 
L 72.46875 52.828125 
z
" id="LiberationSans-119"/>
      <path d="M 27.046875 0.390625 
Q 25.046875 -0.140625 22.96875 -0.453125 
Q 20.90625 -0.78125 18.171875 -0.78125 
Q 7.625 -0.78125 7.625 11.1875 
L 7.625 46.4375 
L 1.515625 46.4375 
L 1.515625 52.828125 
L 7.953125 52.828125 
L 10.546875 64.65625 
L 16.40625 64.65625 
L 16.40625 52.828125 
L 26.171875 52.828125 
L 26.171875 46.4375 
L 16.40625 46.4375 
L 16.40625 13.09375 
Q 16.40625 9.28125 17.640625 7.734375 
Q 18.890625 6.203125 21.96875 6.203125 
Q 23.25 6.203125 24.4375 6.390625 
Q 25.640625 6.59375 27.046875 6.890625 
z
" id="LiberationSans-116"/>
      <path d="M 15.484375 43.796875 
Q 16.9375 46.484375 18.640625 48.359375 
Q 20.359375 50.25 22.40625 51.46875 
Q 24.46875 52.6875 26.90625 53.25 
Q 29.34375 53.8125 32.375 53.8125 
Q 37.453125 53.8125 40.703125 52.4375 
Q 43.953125 51.078125 45.828125 48.609375 
Q 47.703125 46.140625 48.40625 42.71875 
Q 49.125 39.3125 49.125 35.203125 
L 49.125 0 
L 40.28125 0 
L 40.28125 33.5 
Q 40.28125 36.859375 39.859375 39.390625 
Q 39.453125 41.9375 38.28125 43.625 
Q 37.109375 45.3125 34.953125 46.15625 
Q 32.8125 47.015625 29.390625 47.015625 
Q 26.265625 47.015625 23.75 45.890625 
Q 21.234375 44.78125 19.453125 42.71875 
Q 17.671875 40.671875 16.6875 37.734375 
Q 15.71875 34.8125 15.71875 31.15625 
L 15.71875 0 
L 6.9375 0 
L 6.9375 72.46875 
L 15.71875 72.46875 
L 15.71875 53.609375 
Q 15.71875 52 15.671875 50.390625 
Q 15.625 48.78125 15.546875 47.40625 
Q 15.484375 46.046875 15.421875 45.09375 
Q 15.375 44.140625 15.328125 43.796875 
z
" id="LiberationSans-104"/>
      <path d="M 5.03125 34.71875 
Q 5.03125 42.78125 7.203125 49.265625 
Q 9.375 55.765625 13.6875 60.328125 
Q 18.015625 64.890625 24.40625 67.359375 
Q 30.8125 69.828125 39.265625 69.828125 
Q 45.609375 69.828125 50.390625 68.703125 
Q 55.171875 67.578125 58.6875 65.46875 
Q 62.203125 63.375 64.640625 60.375 
Q 67.09375 57.375 68.796875 53.609375 
L 59.90625 50.984375 
Q 58.640625 53.515625 56.859375 55.59375 
Q 55.078125 57.671875 52.53125 59.125 
Q 50 60.59375 46.65625 61.390625 
Q 43.3125 62.203125 39.015625 62.203125 
Q 32.765625 62.203125 28.140625 60.25 
Q 23.53125 58.296875 20.5 54.6875 
Q 17.484375 51.078125 15.984375 46 
Q 14.5 40.921875 14.5 34.71875 
Q 14.5 28.515625 16.109375 23.359375 
Q 17.71875 18.21875 20.890625 14.484375 
Q 24.078125 10.75 28.78125 8.671875 
Q 33.5 6.59375 39.703125 6.59375 
Q 43.75 6.59375 47.171875 7.265625 
Q 50.59375 7.953125 53.34375 9.046875 
Q 56.109375 10.15625 58.203125 11.5 
Q 60.296875 12.84375 61.71875 14.203125 
L 61.71875 26.609375 
L 41.15625 26.609375 
L 41.15625 34.421875 
L 70.3125 34.421875 
L 70.3125 10.6875 
Q 68.015625 8.34375 64.90625 6.21875 
Q 61.8125 4.109375 57.953125 2.484375 
Q 54.109375 0.875 49.515625 -0.046875 
Q 44.921875 -0.984375 39.703125 -0.984375 
Q 31 -0.984375 24.5 1.671875 
Q 18.015625 4.34375 13.6875 9.109375 
Q 9.375 13.875 7.203125 20.40625 
Q 5.03125 26.953125 5.03125 34.71875 
z
" id="LiberationSans-71"/>
      <path d="M 0 -0.984375 
L 20.0625 72.46875 
L 27.78125 72.46875 
L 7.90625 -0.984375 
z
" id="LiberationSans-47"/>
      <path d="M 46.390625 14.59375 
Q 46.390625 10.890625 44.9375 7.984375 
Q 43.5 5.078125 40.765625 3.09375 
Q 38.03125 1.125 34.046875 0.0625 
Q 30.078125 -0.984375 24.953125 -0.984375 
Q 20.359375 -0.984375 16.671875 -0.265625 
Q 12.984375 0.4375 10.203125 2 
Q 7.421875 3.5625 5.53125 6.125 
Q 3.65625 8.6875 2.78125 12.40625 
L 10.546875 13.921875 
Q 11.671875 9.671875 15.1875 7.6875 
Q 18.703125 5.71875 24.953125 5.71875 
Q 27.78125 5.71875 30.140625 6.109375 
Q 32.515625 6.5 34.21875 7.453125 
Q 35.9375 8.40625 36.890625 9.984375 
Q 37.84375 11.578125 37.84375 13.921875 
Q 37.84375 16.3125 36.71875 17.84375 
Q 35.59375 19.390625 33.59375 20.40625 
Q 31.59375 21.4375 28.734375 22.1875 
Q 25.875 22.953125 22.46875 23.875 
Q 19.28125 24.703125 16.15625 25.734375 
Q 13.03125 26.765625 10.515625 28.4375 
Q 8.015625 30.125 6.453125 32.609375 
Q 4.890625 35.109375 4.890625 38.875 
Q 4.890625 46.09375 10.03125 49.875 
Q 15.1875 53.65625 25.046875 53.65625 
Q 33.796875 53.65625 38.9375 50.578125 
Q 44.09375 47.515625 45.453125 40.71875 
L 37.546875 39.75 
Q 37.109375 41.796875 35.9375 43.1875 
Q 34.765625 44.578125 33.109375 45.4375 
Q 31.453125 46.296875 29.375 46.65625 
Q 27.296875 47.015625 25.046875 47.015625 
Q 19.09375 47.015625 16.25 45.203125 
Q 13.421875 43.40625 13.421875 39.75 
Q 13.421875 37.59375 14.46875 36.203125 
Q 15.53125 34.8125 17.40625 33.859375 
Q 19.28125 32.90625 21.921875 32.203125 
Q 24.5625 31.5 27.734375 30.71875 
Q 29.828125 30.171875 32.03125 29.5625 
Q 34.234375 28.953125 36.296875 28.09375 
Q 38.375 27.25 40.203125 26.09375 
Q 42.046875 24.953125 43.40625 23.34375 
Q 44.78125 21.734375 45.578125 19.578125 
Q 46.390625 17.4375 46.390625 14.59375 
z
" id="LiberationSans-115"/>
     </defs>
     <g style="fill:#262626;" transform="translate(26.345625 245.052844)rotate(-90)scale(0.18 -0.18)">
      <use xlink:href="#LiberationSans-66"/>
      <use x="66.699219" xlink:href="#LiberationSans-97"/>
      <use x="122.314453" xlink:href="#LiberationSans-110"/>
      <use x="177.929688" xlink:href="#LiberationSans-100"/>
      <use x="233.544922" xlink:href="#LiberationSans-119"/>
      <use x="305.761719" xlink:href="#LiberationSans-105"/>
      <use x="327.978516" xlink:href="#LiberationSans-100"/>
      <use x="383.59375" xlink:href="#LiberationSans-116"/>
      <use x="411.376953" xlink:href="#LiberationSans-104"/>
      <use x="466.992188" xlink:href="#LiberationSans-32"/>
      <use x="494.775391" xlink:href="#LiberationSans-40"/>
      <use x="528.076172" xlink:href="#LiberationSans-71"/>
      <use x="605.859375" xlink:href="#LiberationSans-66"/>
      <use x="672.558594" xlink:href="#LiberationSans-47"/>
      <use x="700.341797" xlink:href="#LiberationSans-115"/>
      <use x="750.341797" xlink:href="#LiberationSans-41"/>
     </g>
    </g>
   </g>
   <g id="PolyCollection_1">
    <path clip-path="url(#p0d0ce97728)" d="M -25.605389 307.576516 
L -25.605389 307.576516 
L -7.688084 307.568582 
L 10.229221 307.553214 
L 28.146527 307.522611 
L 46.063832 307.46109 
L 63.981137 307.338229 
L 81.898443 307.092225 
L 99.815748 306.602695 
L 117.733053 305.68406 
L 135.650359 303.890932 
L 153.567664 300.438202 
L 171.484969 294.407222 
L 189.402275 284.819369 
L 207.31958 266.48976 
L 225.236885 239.304625 
L 243.154191 205.649804 
L 261.071496 174.736265 
L 278.988801 151.168577 
L 296.906107 135.77506 
L 314.823412 126.042253 
L 332.740718 120.833551 
L 350.658023 118.285096 
L 368.575328 116.812134 
L 386.492634 116.082076 
L 404.409939 115.643834 
L 422.327244 115.429914 
L 440.24455 115.340749 
L 458.161855 115.28761 
L 458.161855 115.28761 
L 458.161855 115.28761 
L 440.24455 115.340749 
L 422.327244 115.429914 
L 404.409939 115.61057 
L 386.492634 115.976886 
L 368.575328 116.737753 
L 350.658023 118.218568 
L 332.740718 120.775936 
L 314.823412 125.922318 
L 296.906107 135.562066 
L 278.988801 150.822888 
L 261.071496 174.478604 
L 243.154191 205.095182 
L 225.236885 238.873474 
L 207.31958 266.217482 
L 189.402275 284.588909 
L 171.484969 294.202169 
L 153.567664 300.356723 
L 135.650359 303.833317 
L 117.733053 305.650796 
L 99.815748 306.602695 
L 81.898443 307.092225 
L 63.981137 307.338229 
L 46.063832 307.46109 
L 28.146527 307.522611 
L 10.229221 307.553214 
L -7.688084 307.568582 
L -25.605389 307.576516 
z
" style="fill-opacity:0.3;"/>
   </g>
   <g id="PolyCollection_2">
    <path clip-path="url(#p0d0ce97728)" d="M -25.605389 307.574852 
L -25.605389 307.574852 
L -7.688084 307.565622 
L 10.229221 307.547293 
L 28.146527 307.510603 
L 46.063832 307.437206 
L 63.981137 307.28998 
L 81.898443 307.015319 
L 99.815748 306.438242 
L 117.733053 305.341586 
L 135.650359 303.288004 
L 153.567664 299.444614 
L 171.484969 292.618749 
L 189.402275 283.069741 
L 207.31958 271.262863 
L 225.236885 255.043416 
L 243.154191 240.801018 
L 261.071496 226.728825 
L 278.988801 219.057272 
L 296.906107 213.057196 
L 314.823412 191.726115 
L 332.740718 189.219917 
L 350.658023 146.017646 
L 368.575328 136.679889 
L 386.492634 142.951557 
L 404.409939 143.918307 
L 422.327244 142.515452 
L 440.24455 142.199595 
L 458.161855 141.686627 
L 458.161855 141.442187 
L 458.161855 141.442187 
L 440.24455 141.694026 
L 422.327244 142.374325 
L 404.409939 143.40084 
L 386.492634 142.870078 
L 368.575328 136.605509 
L 350.658023 134.512917 
L 332.740718 145.901427 
L 314.823412 151.817674 
L 296.906107 179.961238 
L 278.988801 189.766285 
L 261.071496 202.361157 
L 243.154191 223.57791 
L 225.236885 243.439428 
L 207.31958 265.795411 
L 189.402275 281.205769 
L 171.484969 292.125364 
L 153.567664 299.299619 
L 135.650359 303.055156 
L 117.733053 305.253578 
L 99.815748 306.391199 
L 81.898443 306.982055 
L 63.981137 307.28998 
L 46.063832 307.437206 
L 28.146527 307.510603 
L 10.229221 307.547293 
L -7.688084 307.565622 
L -25.605389 307.574852 
z
" style="fill-opacity:0.3;"/>
   </g>
   <g id="line2d_31">
    <path clip-path="url(#p0d0ce97728)" d="M -1 307.562846 
L 10.229221 307.553214 
L 28.146527 307.522611 
L 46.063832 307.46109 
L 63.981137 307.338229 
L 81.898443 307.092225 
L 99.815748 306.602695 
L 117.733053 305.667428 
L 135.650359 303.862124 
L 153.567664 300.397462 
L 171.484969 294.304695 
L 189.402275 284.704139 
L 207.31958 266.353621 
L 225.236885 239.08905 
L 243.154191 205.372493 
L 261.071496 174.607434 
L 278.988801 150.995732 
L 296.906107 135.668563 
L 314.823412 125.982286 
L 332.740718 120.804744 
L 350.658023 118.251832 
L 368.575328 116.774943 
L 386.492634 116.029481 
L 404.409939 115.627202 
L 422.327244 115.429914 
L 440.24455 115.340749 
L 458.161855 115.28761 
" style="fill:none;stroke:#000000;stroke-linecap:round;stroke-width:1.5;"/>
   </g>
   <g id="line2d_32">
    <path clip-path="url(#p0d0ce97728)" d="M -1 307.55878 
L 10.229221 307.547293 
L 28.146527 307.510603 
L 46.063832 307.437206 
L 63.981137 307.28998 
L 81.898443 306.998687 
L 99.815748 306.414721 
L 117.733053 305.297582 
L 135.650359 303.17158 
L 153.567664 299.372116 
L 171.484969 292.372057 
L 189.402275 282.137755 
L 207.31958 268.529137 
L 225.236885 249.241422 
L 243.154191 232.189464 
L 261.071496 214.544991 
L 278.988801 204.411779 
L 296.906107 196.509217 
L 314.823412 171.771895 
L 332.740718 167.560672 
L 350.658023 140.265282 
L 368.575328 136.642699 
L 386.492634 142.910817 
L 404.409939 143.659573 
L 422.327244 142.444889 
L 440.24455 141.94681 
L 458.161855 141.564407 
" style="fill:none;stroke:#000000;stroke-dasharray:5.55,2.4;stroke-dashoffset:0;stroke-width:1.5;"/>
   </g>
   <g id="line2d_33">
    <path clip-path="url(#p0d0ce97728)" d="M -1 45.570125 
L 461.8 45.570125 
" style="fill:none;stroke:#ff0000;stroke-dasharray:7.4,3.2;stroke-dashoffset:0;stroke-width:2;"/>
   </g>
   <g id="line2d_34">
    <path clip-path="url(#p0d0ce97728)" d="M -1 174.528 
L 461.8 174.528 
" style="fill:none;stroke:#ff0000;stroke-dasharray:12.8,3.2,2,3.2;stroke-dashoffset:0;stroke-width:2;"/>
   </g>
   <g id="line2d_35">
    <path clip-path="url(#p0d0ce97728)" d="M -1 241.056 
L 461.8 241.056 
" style="fill:none;stroke:#ff0000;stroke-dasharray:2,3.3;stroke-dashoffset:0;stroke-width:2;"/>
   </g>
   <g id="patch_3">
    <path d="M 57.6 307.584 
L 57.6 41.472 
" style="fill:none;"/>
   </g>
   <g id="patch_4">
    <path d="M 414.72 307.584 
L 414.72 41.472 
" style="fill:none;"/>
   </g>
   <g id="patch_5">
    <path d="M 57.6 307.584 
L 414.72 307.584 
" style="fill:none;"/>
   </g>
   <g id="patch_6">
    <path d="M 57.6 41.472 
L 414.72 41.472 
" style="fill:none;"/>
   </g>
   <g id="text_18">
    <!-- Theoretical and Benchmark Bandwidth -->
    <defs>
     <path d="M 37.75 57.671875 
L 37.75 0 
L 23.34375 0 
L 23.34375 57.671875 
L 1.125 57.671875 
L 1.125 68.796875 
L 60.015625 68.796875 
L 60.015625 57.671875 
z
" id="LiberationSans-Bold-84"/>
     <path d="M 20.515625 42.28125 
Q 23.296875 48.34375 27.484375 51.078125 
Q 31.6875 53.8125 37.5 53.8125 
Q 42.28125 53.8125 45.578125 52.25 
Q 48.875 50.6875 50.953125 47.953125 
Q 53.03125 45.21875 53.953125 41.5 
Q 54.890625 37.796875 54.890625 33.5 
L 54.890625 0 
L 41.21875 0 
L 41.21875 29.59375 
Q 41.21875 32.671875 40.71875 35.234375 
Q 40.234375 37.796875 39.109375 39.625 
Q 37.984375 41.453125 36.171875 42.46875 
Q 34.375 43.5 31.78125 43.5 
Q 29.296875 43.5 27.265625 42.40625 
Q 25.25 41.3125 23.78125 39.28125 
Q 22.3125 37.25 21.5 34.4375 
Q 20.703125 31.640625 20.703125 28.265625 
L 20.703125 0 
L 6.984375 0 
L 6.984375 72.46875 
L 20.703125 72.46875 
L 20.703125 52.6875 
Q 20.703125 51.125 20.65625 49.53125 
Q 20.609375 47.953125 20.53125 46.5625 
Q 20.453125 45.171875 20.40625 44.046875 
Q 20.359375 42.921875 20.3125 42.28125 
z
" id="LiberationSans-Bold-104"/>
     <path d="M 28.609375 -0.984375 
Q 22.90625 -0.984375 18.328125 0.703125 
Q 13.765625 2.390625 10.546875 5.828125 
Q 7.328125 9.28125 5.609375 14.46875 
Q 3.90625 19.671875 3.90625 26.65625 
Q 3.90625 34.234375 5.921875 39.40625 
Q 7.953125 44.578125 11.390625 47.78125 
Q 14.84375 50.984375 19.328125 52.390625 
Q 23.828125 53.8125 28.8125 53.8125 
Q 35.0625 53.8125 39.46875 51.640625 
Q 43.890625 49.46875 46.71875 45.5625 
Q 49.5625 41.65625 50.875 36.203125 
Q 52.203125 30.765625 52.203125 24.171875 
L 52.203125 23.78125 
L 18.3125 23.78125 
Q 18.3125 20.453125 18.890625 17.59375 
Q 19.484375 14.75 20.796875 12.671875 
Q 22.125 10.59375 24.21875 9.390625 
Q 26.3125 8.203125 29.296875 8.203125 
Q 32.90625 8.203125 35.203125 9.734375 
Q 37.5 11.28125 38.484375 14.5 
L 51.421875 13.375 
Q 50.53125 11.140625 48.9375 8.59375 
Q 47.359375 6.0625 44.71875 3.9375 
Q 42.09375 1.8125 38.15625 0.40625 
Q 34.234375 -0.984375 28.609375 -0.984375 
z
M 28.609375 45.171875 
Q 26.515625 45.171875 24.6875 44.453125 
Q 22.859375 43.75 21.515625 42.203125 
Q 20.171875 40.671875 19.328125 38.234375 
Q 18.5 35.796875 18.40625 32.375 
L 38.921875 32.375 
Q 38.53125 38.765625 35.84375 41.96875 
Q 33.15625 45.171875 28.609375 45.171875 
z
" id="LiberationSans-Bold-101"/>
     <path d="M 57.171875 26.46875 
Q 57.171875 20.40625 55.484375 15.375 
Q 53.8125 10.359375 50.4375 6.71875 
Q 47.078125 3.078125 42.046875 1.046875 
Q 37.015625 -0.984375 30.328125 -0.984375 
Q 23.875 -0.984375 18.9375 1.015625 
Q 14.015625 3.03125 10.671875 6.640625 
Q 7.328125 10.25 5.609375 15.296875 
Q 3.90625 20.359375 3.90625 26.46875 
Q 3.90625 32.375 5.53125 37.375 
Q 7.171875 42.390625 10.484375 46.046875 
Q 13.8125 49.703125 18.84375 51.75 
Q 23.875 53.8125 30.609375 53.8125 
Q 37.75 53.8125 42.765625 51.75 
Q 47.796875 49.703125 51 46.0625 
Q 54.203125 42.4375 55.6875 37.421875 
Q 57.171875 32.421875 57.171875 26.46875 
z
M 42.828125 26.46875 
Q 42.828125 35.890625 39.75 40.140625 
Q 36.671875 44.390625 30.8125 44.390625 
Q 24.75 44.390625 21.53125 40.09375 
Q 18.3125 35.796875 18.3125 26.46875 
Q 18.3125 21.734375 19.15625 18.3125 
Q 20.015625 14.890625 21.578125 12.6875 
Q 23.140625 10.5 25.34375 9.453125 
Q 27.546875 8.40625 30.171875 8.40625 
Q 33.203125 8.40625 35.5625 9.453125 
Q 37.9375 10.5 39.546875 12.6875 
Q 41.15625 14.890625 41.984375 18.3125 
Q 42.828125 21.734375 42.828125 26.46875 
z
" id="LiberationSans-Bold-111"/>
     <path d="M 6.984375 0 
L 6.984375 40.4375 
Q 6.984375 42.140625 6.953125 44.046875 
Q 6.9375 45.953125 6.859375 47.6875 
Q 6.78125 49.421875 6.734375 50.8125 
Q 6.6875 52.203125 6.59375 52.828125 
L 19.671875 52.828125 
Q 19.78125 52.25 19.875 50.796875 
Q 19.96875 49.359375 20.0625 47.65625 
Q 20.171875 45.953125 20.234375 44.265625 
Q 20.3125 42.578125 20.3125 41.546875 
L 20.515625 41.546875 
Q 21.53125 44.4375 22.546875 46.703125 
Q 23.578125 48.96875 24.96875 50.5625 
Q 26.375 52.15625 28.328125 53 
Q 30.28125 53.859375 33.15625 53.859375 
Q 34.375 53.859375 35.5625 53.640625 
Q 36.765625 53.421875 37.40625 53.125 
L 37.40625 41.65625 
Q 36.078125 41.9375 34.734375 42.15625 
Q 33.40625 42.390625 31.546875 42.390625 
Q 26.421875 42.390625 23.5625 38.234375 
Q 20.703125 34.078125 20.703125 25.921875 
L 20.703125 0 
z
" id="LiberationSans-Bold-114"/>
     <path d="M 20.515625 -0.875 
Q 14.453125 -0.875 11.171875 2.421875 
Q 7.90625 5.71875 7.90625 12.40625 
L 7.90625 43.5625 
L 1.21875 43.5625 
L 1.21875 52.828125 
L 8.59375 52.828125 
L 12.890625 65.234375 
L 21.484375 65.234375 
L 21.484375 52.828125 
L 31.5 52.828125 
L 31.5 43.5625 
L 21.484375 43.5625 
L 21.484375 16.109375 
Q 21.484375 12.25 22.953125 10.421875 
Q 24.421875 8.59375 27.484375 8.59375 
Q 28.765625 8.59375 29.78125 8.78125 
Q 30.8125 8.984375 32.078125 9.28125 
L 32.078125 0.78125 
Q 29.546875 -0.046875 26.703125 -0.453125 
Q 23.875 -0.875 20.515625 -0.875 
z
" id="LiberationSans-Bold-116"/>
     <path d="M 6.984375 62.359375 
L 6.984375 72.46875 
L 20.703125 72.46875 
L 20.703125 62.359375 
z
M 6.984375 0 
L 6.984375 52.828125 
L 20.703125 52.828125 
L 20.703125 0 
z
" id="LiberationSans-Bold-105"/>
     <path d="M 29 -0.984375 
Q 22.703125 -0.984375 17.984375 0.96875 
Q 13.28125 2.9375 10.15625 6.5 
Q 7.03125 10.0625 5.46875 15.0625 
Q 3.90625 20.0625 3.90625 26.125 
Q 3.90625 32.71875 5.609375 37.859375 
Q 7.328125 43.015625 10.546875 46.546875 
Q 13.765625 50.09375 18.46875 51.953125 
Q 23.1875 53.8125 29.203125 53.8125 
Q 34.328125 53.8125 38.296875 52.4375 
Q 42.28125 51.078125 45.15625 48.703125 
Q 48.046875 46.34375 49.828125 43.109375 
Q 51.609375 39.890625 52.296875 36.1875 
L 38.484375 35.5 
Q 37.890625 39.546875 35.546875 41.96875 
Q 33.203125 44.390625 28.90625 44.390625 
Q 23.390625 44.390625 20.84375 39.84375 
Q 18.3125 35.296875 18.3125 26.65625 
Q 18.3125 8.40625 29.109375 8.40625 
Q 33.015625 8.40625 35.640625 10.859375 
Q 38.28125 13.328125 38.921875 18.21875 
L 52.6875 17.578125 
Q 52.203125 13.921875 50.46875 10.578125 
Q 48.734375 7.234375 45.78125 4.65625 
Q 42.828125 2.09375 38.625 0.546875 
Q 34.421875 -0.984375 29 -0.984375 
z
" id="LiberationSans-Bold-99"/>
     <path d="M 19.1875 -0.984375 
Q 15.375 -0.984375 12.375 0.0625 
Q 9.375 1.125 7.265625 3.140625 
Q 5.171875 5.171875 4.046875 8.15625 
Q 2.9375 11.140625 2.9375 14.9375 
Q 2.9375 19.625 4.5625 22.828125 
Q 6.203125 26.03125 9.03125 28 
Q 11.859375 29.984375 15.671875 30.875 
Q 19.484375 31.78125 23.78125 31.84375 
L 35.15625 32.03125 
L 35.15625 34.71875 
Q 35.15625 37.59375 34.640625 39.515625 
Q 34.125 41.453125 33.140625 42.671875 
Q 32.171875 43.890625 30.734375 44.40625 
Q 29.296875 44.921875 27.4375 44.921875 
Q 25.734375 44.921875 24.390625 44.578125 
Q 23.046875 44.234375 22.0625 43.375 
Q 21.09375 42.53125 20.484375 41.09375 
Q 19.875 39.65625 19.625 37.453125 
L 5.328125 38.140625 
Q 5.90625 41.609375 7.46875 44.453125 
Q 9.03125 47.3125 11.78125 49.40625 
Q 14.546875 51.515625 18.578125 52.65625 
Q 22.609375 53.8125 28.03125 53.8125 
Q 32.953125 53.8125 36.8125 52.59375 
Q 40.671875 51.375 43.359375 48.953125 
Q 46.046875 46.53125 47.453125 43.015625 
Q 48.875 39.5 48.875 34.859375 
L 48.875 15.625 
Q 48.875 13.765625 49.046875 12.296875 
Q 49.21875 10.84375 49.671875 9.84375 
Q 50.140625 8.84375 51 8.328125 
Q 51.859375 7.8125 53.21875 7.8125 
Q 54.78125 7.8125 56.25 8.109375 
L 56.25 0.6875 
Q 55.03125 0.390625 54.046875 0.140625 
Q 53.078125 -0.09375 52.09375 -0.234375 
Q 51.125 -0.390625 50.015625 -0.484375 
Q 48.921875 -0.59375 47.46875 -0.59375 
Q 42.28125 -0.59375 39.8125 1.953125 
Q 37.359375 4.5 36.859375 9.421875 
L 36.578125 9.421875 
Q 33.84375 4.5 29.5625 1.75 
Q 25.296875 -0.984375 19.1875 -0.984375 
z
M 35.15625 24.46875 
L 28.125 24.359375 
Q 25.921875 24.265625 23.9375 24 
Q 21.96875 23.734375 20.484375 22.875 
Q 19 22.015625 18.109375 20.40625 
Q 17.234375 18.796875 17.234375 16.015625 
Q 17.234375 12.25 18.96875 10.421875 
Q 20.703125 8.59375 23.578125 8.59375 
Q 26.21875 8.59375 28.359375 9.71875 
Q 30.515625 10.84375 32 12.671875 
Q 33.5 14.5 34.328125 16.890625 
Q 35.15625 19.28125 35.15625 21.78125 
z
" id="LiberationSans-Bold-97"/>
     <path d="M 6.984375 0 
L 6.984375 72.46875 
L 20.703125 72.46875 
L 20.703125 0 
z
" id="LiberationSans-Bold-108"/>
     <path id="LiberationSans-Bold-32"/>
     <path d="M 41.21875 0 
L 41.21875 29.640625 
Q 41.21875 32.71875 40.71875 35.28125 
Q 40.234375 37.84375 39.109375 39.671875 
Q 37.984375 41.5 36.171875 42.53125 
Q 34.375 43.5625 31.78125 43.5625 
Q 29.296875 43.5625 27.265625 42.453125 
Q 25.25 41.359375 23.78125 39.328125 
Q 22.3125 37.3125 21.5 34.5 
Q 20.703125 31.6875 20.703125 28.328125 
L 20.703125 0 
L 6.984375 0 
L 6.984375 41.015625 
Q 6.984375 42.71875 6.953125 44.53125 
Q 6.9375 46.34375 6.859375 47.96875 
Q 6.78125 49.609375 6.734375 50.90625 
Q 6.6875 52.203125 6.59375 52.828125 
L 19.671875 52.828125 
Q 19.78125 52.25 19.875 50.953125 
Q 19.96875 49.65625 20.0625 48.09375 
Q 20.171875 46.53125 20.234375 44.96875 
Q 20.3125 43.40625 20.3125 42.328125 
L 20.515625 42.328125 
Q 23.296875 48.390625 27.484375 51.125 
Q 31.6875 53.859375 37.5 53.859375 
Q 42.28125 53.859375 45.578125 52.296875 
Q 48.875 50.734375 50.953125 48 
Q 53.03125 45.265625 53.953125 41.546875 
Q 54.890625 37.84375 54.890625 33.546875 
L 54.890625 0 
z
" id="LiberationSans-Bold-110"/>
     <path d="M 41.21875 0 
Q 41.109375 0.390625 40.984375 1.390625 
Q 40.875 2.390625 40.75 3.65625 
Q 40.625 4.9375 40.546875 6.25 
Q 40.484375 7.5625 40.484375 8.59375 
L 40.28125 8.59375 
Q 37.890625 3.46875 33.609375 1.234375 
Q 29.34375 -0.984375 23.390625 -0.984375 
Q 18.40625 -0.984375 14.765625 1.0625 
Q 11.140625 3.125 8.765625 6.78125 
Q 6.390625 10.453125 5.25 15.453125 
Q 4.109375 20.453125 4.109375 26.375 
Q 4.109375 32.375 5.296875 37.40625 
Q 6.5 42.4375 8.984375 46.0625 
Q 11.46875 49.703125 15.296875 51.75 
Q 19.140625 53.8125 24.421875 53.8125 
Q 27 53.8125 29.390625 53.265625 
Q 31.78125 52.734375 33.828125 51.609375 
Q 35.890625 50.484375 37.546875 48.71875 
Q 39.203125 46.96875 40.375 44.484375 
L 40.484375 44.484375 
Q 40.484375 44.96875 40.453125 45.921875 
Q 40.4375 46.875 40.4375 48.09375 
Q 40.4375 49.3125 40.40625 50.625 
Q 40.375 51.953125 40.375 53.171875 
L 40.375 72.46875 
L 54.109375 72.46875 
L 54.109375 11.53125 
Q 54.109375 7.671875 54.25 4.65625 
Q 54.390625 1.65625 54.5 0 
z
M 40.578125 26.703125 
Q 40.578125 31.9375 39.59375 35.375 
Q 38.625 38.8125 37.03125 40.84375 
Q 35.453125 42.875 33.421875 43.671875 
Q 31.390625 44.484375 29.296875 44.484375 
Q 26.65625 44.484375 24.625 43.453125 
Q 22.609375 42.4375 21.21875 40.234375 
Q 19.828125 38.03125 19.109375 34.609375 
Q 18.40625 31.203125 18.40625 26.375 
Q 18.40625 8.40625 29.203125 8.40625 
Q 31.25 8.40625 33.296875 9.28125 
Q 35.359375 10.15625 36.96875 12.25 
Q 38.578125 14.359375 39.578125 17.890625 
Q 40.578125 21.4375 40.578125 26.703125 
z
" id="LiberationSans-Bold-100"/>
     <path d="M 67.671875 19.625 
Q 67.671875 14.40625 65.578125 10.671875 
Q 63.484375 6.9375 59.84375 4.5625 
Q 56.203125 2.203125 51.359375 1.09375 
Q 46.53125 0 41.109375 0 
L 6.6875 0 
L 6.6875 68.796875 
L 38.1875 68.796875 
Q 44.28125 68.796875 49.046875 67.75 
Q 53.8125 66.703125 57.078125 64.546875 
Q 60.359375 62.40625 62.03125 59.15625 
Q 63.71875 55.90625 63.71875 51.515625 
Q 63.71875 45.65625 60.46875 41.625 
Q 57.234375 37.59375 50.59375 36.1875 
Q 58.9375 35.203125 63.296875 30.921875 
Q 67.671875 26.65625 67.671875 19.625 
z
M 49.21875 49.5625 
Q 49.21875 54.203125 46.265625 56.15625 
Q 43.3125 58.109375 37.5 58.109375 
L 21.09375 58.109375 
L 21.09375 41.0625 
L 37.59375 41.0625 
Q 43.703125 41.0625 46.453125 43.1875 
Q 49.21875 45.3125 49.21875 49.5625 
z
M 53.21875 20.75 
Q 53.21875 23.484375 52.140625 25.34375 
Q 51.078125 27.203125 49.1875 28.3125 
Q 47.3125 29.4375 44.796875 29.921875 
Q 42.28125 30.421875 39.359375 30.421875 
L 21.09375 30.421875 
L 21.09375 10.6875 
L 39.890625 10.6875 
Q 42.71875 10.6875 45.15625 11.15625 
Q 47.609375 11.625 49.390625 12.765625 
Q 51.171875 13.921875 52.1875 15.875 
Q 53.21875 17.828125 53.21875 20.75 
z
" id="LiberationSans-Bold-66"/>
     <path d="M 38.09375 0 
L 38.09375 29.640625 
Q 38.09375 32.71875 37.671875 35.28125 
Q 37.25 37.84375 36.296875 39.671875 
Q 35.359375 41.5 33.8125 42.53125 
Q 32.28125 43.5625 30.078125 43.5625 
Q 27.984375 43.5625 26.265625 42.453125 
Q 24.5625 41.359375 23.3125 39.328125 
Q 22.078125 37.3125 21.390625 34.5 
Q 20.703125 31.6875 20.703125 28.328125 
L 20.703125 0 
L 6.984375 0 
L 6.984375 41.015625 
Q 6.984375 42.71875 6.953125 44.53125 
Q 6.9375 46.34375 6.859375 47.96875 
Q 6.78125 49.609375 6.734375 50.90625 
Q 6.6875 52.203125 6.59375 52.828125 
L 19.671875 52.828125 
Q 19.78125 52.25 19.875 50.953125 
Q 19.96875 49.65625 20.0625 48.09375 
Q 20.171875 46.53125 20.234375 44.96875 
Q 20.3125 43.40625 20.3125 42.328125 
L 20.515625 42.328125 
Q 23.046875 48.390625 26.828125 51.125 
Q 30.609375 53.859375 35.890625 53.859375 
Q 41.9375 53.859375 45.625 50.90625 
Q 49.3125 47.953125 50.59375 42.328125 
L 50.875 42.328125 
Q 52.296875 45.609375 53.921875 47.796875 
Q 55.5625 50 57.53125 51.34375 
Q 59.515625 52.6875 61.828125 53.265625 
Q 64.15625 53.859375 66.890625 53.859375 
Q 71.234375 53.859375 74.234375 52.296875 
Q 77.25 50.734375 79.125 48 
Q 81 45.265625 81.859375 41.546875 
Q 82.71875 37.84375 82.71875 33.546875 
L 82.71875 0 
L 69.09375 0 
L 69.09375 29.640625 
Q 69.09375 32.71875 68.671875 35.28125 
Q 68.265625 37.84375 67.3125 39.671875 
Q 66.359375 41.5 64.8125 42.53125 
Q 63.28125 43.5625 61.078125 43.5625 
Q 59.03125 43.5625 57.34375 42.5 
Q 55.671875 41.453125 54.421875 39.515625 
Q 53.171875 37.59375 52.484375 34.90625 
Q 51.8125 32.234375 51.703125 28.953125 
L 51.703125 0 
z
" id="LiberationSans-Bold-109"/>
     <path d="M 40.71875 0 
L 26.609375 23.921875 
L 20.703125 19.828125 
L 20.703125 0 
L 6.984375 0 
L 6.984375 72.46875 
L 20.703125 72.46875 
L 20.703125 30.953125 
L 39.546875 52.828125 
L 54.296875 52.828125 
L 35.75 32.234375 
L 55.71875 0 
z
" id="LiberationSans-Bold-107"/>
     <path d="M 21.296875 12.453125 
L 31.5 52.828125 
L 46.1875 52.828125 
L 56.296875 12.453125 
L 65.28125 52.828125 
L 77.984375 52.828125 
L 64.109375 0 
L 49.609375 0 
L 38.921875 43.0625 
L 27.875 0 
L 13.375 0 
L -0.296875 52.828125 
L 12.59375 52.828125 
z
" id="LiberationSans-Bold-119"/>
    </defs>
    <g style="fill:#262626;" transform="translate(69.640312 16.08375)scale(0.18 -0.18)">
     <use xlink:href="#LiberationSans-Bold-84"/>
     <use x="61.083984" xlink:href="#LiberationSans-Bold-104"/>
     <use x="122.167969" xlink:href="#LiberationSans-Bold-101"/>
     <use x="177.783203" xlink:href="#LiberationSans-Bold-111"/>
     <use x="238.867188" xlink:href="#LiberationSans-Bold-114"/>
     <use x="277.783203" xlink:href="#LiberationSans-Bold-101"/>
     <use x="333.398438" xlink:href="#LiberationSans-Bold-116"/>
     <use x="366.699219" xlink:href="#LiberationSans-Bold-105"/>
     <use x="394.482422" xlink:href="#LiberationSans-Bold-99"/>
     <use x="450.097656" xlink:href="#LiberationSans-Bold-97"/>
     <use x="505.712891" xlink:href="#LiberationSans-Bold-108"/>
     <use x="533.496094" xlink:href="#LiberationSans-Bold-32"/>
     <use x="561.279297" xlink:href="#LiberationSans-Bold-97"/>
     <use x="616.894531" xlink:href="#LiberationSans-Bold-110"/>
     <use x="677.978516" xlink:href="#LiberationSans-Bold-100"/>
     <use x="739.0625" xlink:href="#LiberationSans-Bold-32"/>
     <use x="766.845703" xlink:href="#LiberationSans-Bold-66"/>
     <use x="839.0625" xlink:href="#LiberationSans-Bold-101"/>
     <use x="894.677734" xlink:href="#LiberationSans-Bold-110"/>
     <use x="955.761719" xlink:href="#LiberationSans-Bold-99"/>
     <use x="1011.376953" xlink:href="#LiberationSans-Bold-104"/>
     <use x="1072.460938" xlink:href="#LiberationSans-Bold-109"/>
     <use x="1161.376953" xlink:href="#LiberationSans-Bold-97"/>
     <use x="1216.992188" xlink:href="#LiberationSans-Bold-114"/>
     <use x="1255.908203" xlink:href="#LiberationSans-Bold-107"/>
     <use x="1311.523438" xlink:href="#LiberationSans-Bold-32"/>
     <use x="1339.306641" xlink:href="#LiberationSans-Bold-66"/>
     <use x="1411.523438" xlink:href="#LiberationSans-Bold-97"/>
     <use x="1467.138672" xlink:href="#LiberationSans-Bold-110"/>
     <use x="1528.222656" xlink:href="#LiberationSans-Bold-100"/>
     <use x="1589.306641" xlink:href="#LiberationSans-Bold-119"/>
     <use x="1667.089844" xlink:href="#LiberationSans-Bold-105"/>
     <use x="1694.873047" xlink:href="#LiberationSans-Bold-100"/>
     <use x="1755.957031" xlink:href="#LiberationSans-Bold-116"/>
     <use x="1789.257812" xlink:href="#LiberationSans-Bold-104"/>
    </g>
    <!--  -->
    <g style="fill:#262626;" transform="translate(236.16 35.472)scale(0.18 -0.18)"/>
   </g>
   <g id="legend_1">
    <g id="line2d_36">
     <path d="M 68.4 56.76825 
L 92.4 56.76825 
" style="fill:none;stroke:#000000;stroke-linecap:round;stroke-width:1.5;"/>
    </g>
    <g id="line2d_37"/>
    <g id="text_19">
     <!-- Pinned Benchmark -->
     <defs>
      <path d="M 63.28125 47.015625 
Q 63.28125 42.578125 61.78125 38.453125 
Q 60.296875 34.328125 57.21875 31.15625 
Q 54.15625 27.984375 49.40625 26.09375 
Q 44.671875 24.21875 38.1875 24.21875 
L 21.09375 24.21875 
L 21.09375 0 
L 6.6875 0 
L 6.6875 68.796875 
L 37.59375 68.796875 
Q 44.1875 68.796875 49.015625 67.203125 
Q 53.859375 65.625 57.03125 62.734375 
Q 60.203125 59.859375 61.734375 55.859375 
Q 63.28125 51.859375 63.28125 47.015625 
z
M 48.78125 46.78125 
Q 48.78125 52.09375 45.578125 54.859375 
Q 42.390625 57.625 35.984375 57.625 
L 21.09375 57.625 
L 21.09375 35.296875 
L 36.375 35.296875 
Q 39.59375 35.296875 41.90625 36.125 
Q 44.234375 36.96875 45.765625 38.46875 
Q 47.3125 39.984375 48.046875 42.109375 
Q 48.78125 44.234375 48.78125 46.78125 
z
" id="LiberationSans-Bold-80"/>
     </defs>
     <g style="fill:#262626;" transform="translate(102 60.96825)scale(0.12 -0.12)">
      <use xlink:href="#LiberationSans-Bold-80"/>
      <use x="66.699219" xlink:href="#LiberationSans-Bold-105"/>
      <use x="94.482422" xlink:href="#LiberationSans-Bold-110"/>
      <use x="155.566406" xlink:href="#LiberationSans-Bold-110"/>
      <use x="216.650391" xlink:href="#LiberationSans-Bold-101"/>
      <use x="272.265625" xlink:href="#LiberationSans-Bold-100"/>
      <use x="333.349609" xlink:href="#LiberationSans-Bold-32"/>
      <use x="361.132812" xlink:href="#LiberationSans-Bold-66"/>
      <use x="433.349609" xlink:href="#LiberationSans-Bold-101"/>
      <use x="488.964844" xlink:href="#LiberationSans-Bold-110"/>
      <use x="550.048828" xlink:href="#LiberationSans-Bold-99"/>
      <use x="605.664062" xlink:href="#LiberationSans-Bold-104"/>
      <use x="666.748047" xlink:href="#LiberationSans-Bold-109"/>
      <use x="755.664062" xlink:href="#LiberationSans-Bold-97"/>
      <use x="811.279297" xlink:href="#LiberationSans-Bold-114"/>
      <use x="850.195312" xlink:href="#LiberationSans-Bold-107"/>
     </g>
    </g>
    <g id="line2d_38">
     <path d="M 68.4 73.9545 
L 92.4 73.9545 
" style="fill:none;stroke:#000000;stroke-dasharray:5.55,2.4;stroke-dashoffset:0;stroke-width:1.5;"/>
    </g>
    <g id="line2d_39"/>
    <g id="text_20">
     <!-- Pageable Benchmark -->
     <defs>
      <path d="M 29.109375 -21.1875 
Q 23.875 -21.1875 19.890625 -20.140625 
Q 15.921875 -19.09375 13.109375 -17.203125 
Q 10.296875 -15.328125 8.609375 -12.71875 
Q 6.9375 -10.109375 6.296875 -6.984375 
L 20.015625 -5.375 
Q 20.75 -8.546875 23.171875 -10.34375 
Q 25.59375 -12.15625 29.5 -12.15625 
Q 31.9375 -12.15625 33.953125 -11.46875 
Q 35.984375 -10.796875 37.421875 -9.15625 
Q 38.875 -7.515625 39.671875 -4.828125 
Q 40.484375 -2.15625 40.484375 1.8125 
Q 40.484375 3.171875 40.484375 4.578125 
Q 40.484375 6 40.53125 7.171875 
Q 40.578125 8.546875 40.578125 9.8125 
L 40.484375 9.8125 
Q 38.09375 4.6875 33.765625 2.390625 
Q 29.4375 0.09375 23.484375 0.09375 
Q 18.453125 0.09375 14.8125 2.0625 
Q 11.1875 4.046875 8.78125 7.59375 
Q 6.390625 11.140625 5.25 16.046875 
Q 4.109375 20.953125 4.109375 26.859375 
Q 4.109375 32.953125 5.328125 37.90625 
Q 6.546875 42.875 9.0625 46.4375 
Q 11.578125 50 15.40625 51.921875 
Q 19.234375 53.859375 24.515625 53.859375 
Q 29.78125 53.859375 33.953125 51.609375 
Q 38.140625 49.359375 40.484375 44.34375 
L 40.71875 44.34375 
Q 40.71875 45.359375 40.796875 46.703125 
Q 40.875 48.046875 40.96875 49.28125 
Q 41.0625 50.53125 41.1875 51.5 
Q 41.3125 52.484375 41.40625 52.828125 
L 54.390625 52.828125 
Q 54.296875 51.078125 54.203125 47.90625 
Q 54.109375 44.734375 54.109375 40.625 
L 54.109375 1.609375 
Q 54.109375 -4.15625 52.4375 -8.421875 
Q 50.78125 -12.703125 47.578125 -15.53125 
Q 44.390625 -18.359375 39.71875 -19.765625 
Q 35.0625 -21.1875 29.109375 -21.1875 
z
M 40.578125 27.15625 
Q 40.578125 32.125 39.59375 35.4375 
Q 38.625 38.765625 37.0625 40.765625 
Q 35.5 42.78125 33.46875 43.609375 
Q 31.453125 44.4375 29.390625 44.4375 
Q 26.765625 44.4375 24.734375 43.40625 
Q 22.703125 42.390625 21.28125 40.234375 
Q 19.875 38.09375 19.140625 34.765625 
Q 18.40625 31.453125 18.40625 26.859375 
Q 18.40625 18.3125 21.140625 13.96875 
Q 23.875 9.625 29.296875 9.625 
Q 31.34375 9.625 33.375 10.421875 
Q 35.40625 11.234375 37.015625 13.25 
Q 38.625 15.28125 39.59375 18.640625 
Q 40.578125 22.015625 40.578125 27.15625 
z
" id="LiberationSans-Bold-103"/>
      <path d="M 56.984375 26.609375 
Q 56.984375 20.609375 55.78125 15.546875 
Q 54.59375 10.5 52.09375 6.8125 
Q 49.609375 3.125 45.765625 1.0625 
Q 41.9375 -0.984375 36.71875 -0.984375 
Q 34.375 -0.984375 32.03125 -0.484375 
Q 29.6875 0 27.578125 1.125 
Q 25.484375 2.25 23.71875 4.046875 
Q 21.96875 5.859375 20.703125 8.5 
L 20.609375 8.5 
Q 20.609375 7.46875 20.53125 6.140625 
Q 20.453125 4.828125 20.359375 3.578125 
Q 20.265625 2.34375 20.140625 1.359375 
Q 20.015625 0.390625 19.921875 0 
L 6.59375 0 
Q 6.734375 1.703125 6.859375 4.859375 
Q 6.984375 8.015625 6.984375 12.0625 
L 6.984375 72.46875 
L 20.703125 72.46875 
L 20.703125 52.25 
Q 20.703125 50.6875 20.671875 49.1875 
Q 20.65625 47.703125 20.609375 46.4375 
Q 20.5625 44.96875 20.515625 43.65625 
L 20.703125 43.65625 
Q 23.1875 49.125 27.53125 51.46875 
Q 31.890625 53.8125 37.59375 53.8125 
Q 42.671875 53.8125 46.328125 51.78125 
Q 50 49.75 52.359375 46.109375 
Q 54.734375 42.484375 55.859375 37.5 
Q 56.984375 32.515625 56.984375 26.609375 
z
M 42.671875 26.609375 
Q 42.671875 35.59375 40.03125 39.9375 
Q 37.40625 44.28125 31.890625 44.28125 
Q 29.78125 44.28125 27.734375 43.453125 
Q 25.6875 42.625 24.078125 40.546875 
Q 22.46875 38.484375 21.484375 34.984375 
Q 20.515625 31.5 20.515625 26.171875 
Q 20.515625 21 21.484375 17.578125 
Q 22.46875 14.15625 24.03125 12.109375 
Q 25.59375 10.0625 27.640625 9.234375 
Q 29.6875 8.40625 31.78125 8.40625 
Q 37.015625 8.40625 39.84375 12.71875 
Q 42.671875 17.046875 42.671875 26.609375 
z
" id="LiberationSans-Bold-98"/>
     </defs>
     <g style="fill:#262626;" transform="translate(102 78.1545)scale(0.12 -0.12)">
      <use xlink:href="#LiberationSans-Bold-80"/>
      <use x="66.699219" xlink:href="#LiberationSans-Bold-97"/>
      <use x="122.314453" xlink:href="#LiberationSans-Bold-103"/>
      <use x="183.398438" xlink:href="#LiberationSans-Bold-101"/>
      <use x="239.013672" xlink:href="#LiberationSans-Bold-97"/>
      <use x="294.628906" xlink:href="#LiberationSans-Bold-98"/>
      <use x="355.712891" xlink:href="#LiberationSans-Bold-108"/>
      <use x="383.496094" xlink:href="#LiberationSans-Bold-101"/>
      <use x="439.111328" xlink:href="#LiberationSans-Bold-32"/>
      <use x="466.894531" xlink:href="#LiberationSans-Bold-66"/>
      <use x="539.111328" xlink:href="#LiberationSans-Bold-101"/>
      <use x="594.726562" xlink:href="#LiberationSans-Bold-110"/>
      <use x="655.810547" xlink:href="#LiberationSans-Bold-99"/>
      <use x="711.425781" xlink:href="#LiberationSans-Bold-104"/>
      <use x="772.509766" xlink:href="#LiberationSans-Bold-109"/>
      <use x="861.425781" xlink:href="#LiberationSans-Bold-97"/>
      <use x="917.041016" xlink:href="#LiberationSans-Bold-114"/>
      <use x="955.957031" xlink:href="#LiberationSans-Bold-107"/>
     </g>
    </g>
    <g id="line2d_40">
     <path d="M 68.4 91.19325 
L 92.4 91.19325 
" style="fill:none;stroke:#ff0000;stroke-dasharray:7.4,3.2;stroke-dashoffset:0;stroke-width:2;"/>
    </g>
    <g id="line2d_41"/>
    <g id="text_21">
     <!-- Gen3 Theoretical Peak -->
     <defs>
      <path d="M 39.359375 10.296875 
Q 42.484375 10.296875 45.359375 10.78125 
Q 48.25 11.28125 50.703125 12.078125 
Q 53.171875 12.890625 55.140625 13.9375 
Q 57.125 14.984375 58.40625 16.109375 
L 58.40625 25.640625 
L 41.609375 25.640625 
L 41.609375 36.28125 
L 71.578125 36.28125 
L 71.578125 10.984375 
Q 69.234375 8.59375 65.90625 6.421875 
Q 62.59375 4.25 58.4375 2.609375 
Q 54.296875 0.984375 49.390625 0 
Q 44.484375 -0.984375 38.96875 -0.984375 
Q 29.828125 -0.984375 23.234375 1.671875 
Q 16.65625 4.34375 12.40625 9.109375 
Q 8.15625 13.875 6.125 20.40625 
Q 4.109375 26.953125 4.109375 34.71875 
Q 4.109375 42.78125 6.25 49.265625 
Q 8.40625 55.765625 12.765625 60.328125 
Q 17.140625 64.890625 23.75 67.359375 
Q 30.375 69.828125 39.3125 69.828125 
Q 45.796875 69.828125 50.84375 68.546875 
Q 55.90625 67.28125 59.6875 64.9375 
Q 63.484375 62.59375 66.046875 59.296875 
Q 68.609375 56 70.125 51.90625 
L 56.84375 47.90625 
Q 55.953125 50.046875 54.484375 51.96875 
Q 53.03125 53.90625 50.859375 55.34375 
Q 48.6875 56.78125 45.828125 57.640625 
Q 42.96875 58.5 39.3125 58.5 
Q 33.9375 58.5 30.03125 56.8125 
Q 26.125 55.125 23.578125 52 
Q 21.046875 48.875 19.828125 44.5 
Q 18.609375 40.140625 18.609375 34.71875 
Q 18.609375 29.34375 19.84375 24.84375 
Q 21.09375 20.359375 23.65625 17.140625 
Q 26.21875 13.921875 30.125 12.109375 
Q 34.03125 10.296875 39.359375 10.296875 
z
" id="LiberationSans-Bold-71"/>
     </defs>
     <g style="fill:#262626;" transform="translate(102 95.39325)scale(0.12 -0.12)">
      <use xlink:href="#LiberationSans-Bold-71"/>
      <use x="77.783203" xlink:href="#LiberationSans-Bold-101"/>
      <use x="133.398438" xlink:href="#LiberationSans-Bold-110"/>
      <use x="194.482422" xlink:href="#LiberationSans-Bold-51"/>
      <use x="250.097656" xlink:href="#LiberationSans-Bold-32"/>
      <use x="277.880859" xlink:href="#LiberationSans-Bold-84"/>
      <use x="338.964844" xlink:href="#LiberationSans-Bold-104"/>
      <use x="400.048828" xlink:href="#LiberationSans-Bold-101"/>
      <use x="455.664062" xlink:href="#LiberationSans-Bold-111"/>
      <use x="516.748047" xlink:href="#LiberationSans-Bold-114"/>
      <use x="555.664062" xlink:href="#LiberationSans-Bold-101"/>
      <use x="611.279297" xlink:href="#LiberationSans-Bold-116"/>
      <use x="644.580078" xlink:href="#LiberationSans-Bold-105"/>
      <use x="672.363281" xlink:href="#LiberationSans-Bold-99"/>
      <use x="727.978516" xlink:href="#LiberationSans-Bold-97"/>
      <use x="783.59375" xlink:href="#LiberationSans-Bold-108"/>
      <use x="811.376953" xlink:href="#LiberationSans-Bold-32"/>
      <use x="839.160156" xlink:href="#LiberationSans-Bold-80"/>
      <use x="905.859375" xlink:href="#LiberationSans-Bold-101"/>
      <use x="961.474609" xlink:href="#LiberationSans-Bold-97"/>
      <use x="1017.089844" xlink:href="#LiberationSans-Bold-107"/>
     </g>
    </g>
    <g id="line2d_42">
     <path d="M 68.4 108.3795 
L 92.4 108.3795 
" style="fill:none;stroke:#ff0000;stroke-dasharray:12.8,3.2,2,3.2;stroke-dashoffset:0;stroke-width:2;"/>
    </g>
    <g id="line2d_43"/>
    <g id="text_22">
     <!-- Gen2 Theoretical Peak -->
     <g style="fill:#262626;" transform="translate(102 112.5795)scale(0.12 -0.12)">
      <use xlink:href="#LiberationSans-Bold-71"/>
      <use x="77.783203" xlink:href="#LiberationSans-Bold-101"/>
      <use x="133.398438" xlink:href="#LiberationSans-Bold-110"/>
      <use x="194.482422" xlink:href="#LiberationSans-Bold-50"/>
      <use x="250.097656" xlink:href="#LiberationSans-Bold-32"/>
      <use x="277.880859" xlink:href="#LiberationSans-Bold-84"/>
      <use x="338.964844" xlink:href="#LiberationSans-Bold-104"/>
      <use x="400.048828" xlink:href="#LiberationSans-Bold-101"/>
      <use x="455.664062" xlink:href="#LiberationSans-Bold-111"/>
      <use x="516.748047" xlink:href="#LiberationSans-Bold-114"/>
      <use x="555.664062" xlink:href="#LiberationSans-Bold-101"/>
      <use x="611.279297" xlink:href="#LiberationSans-Bold-116"/>
      <use x="644.580078" xlink:href="#LiberationSans-Bold-105"/>
      <use x="672.363281" xlink:href="#LiberationSans-Bold-99"/>
      <use x="727.978516" xlink:href="#LiberationSans-Bold-97"/>
      <use x="783.59375" xlink:href="#LiberationSans-Bold-108"/>
      <use x="811.376953" xlink:href="#LiberationSans-Bold-32"/>
      <use x="839.160156" xlink:href="#LiberationSans-Bold-80"/>
      <use x="905.859375" xlink:href="#LiberationSans-Bold-101"/>
      <use x="961.474609" xlink:href="#LiberationSans-Bold-97"/>
      <use x="1017.089844" xlink:href="#LiberationSans-Bold-107"/>
     </g>
    </g>
    <g id="line2d_44">
     <path d="M 68.4 125.56575 
L 92.4 125.56575 
" style="fill:none;stroke:#ff0000;stroke-dasharray:2,3.3;stroke-dashoffset:0;stroke-width:2;"/>
    </g>
    <g id="line2d_45"/>
    <g id="text_23">
     <!-- Gen1 Theoretical Peak -->
     <g style="fill:#262626;" transform="translate(102 129.76575)scale(0.12 -0.12)">
      <use xlink:href="#LiberationSans-Bold-71"/>
      <use x="77.783203" xlink:href="#LiberationSans-Bold-101"/>
      <use x="133.398438" xlink:href="#LiberationSans-Bold-110"/>
      <use x="194.482422" xlink:href="#LiberationSans-Bold-49"/>
      <use x="250.097656" xlink:href="#LiberationSans-Bold-32"/>
      <use x="277.880859" xlink:href="#LiberationSans-Bold-84"/>
      <use x="338.964844" xlink:href="#LiberationSans-Bold-104"/>
      <use x="400.048828" xlink:href="#LiberationSans-Bold-101"/>
      <use x="455.664062" xlink:href="#LiberationSans-Bold-111"/>
      <use x="516.748047" xlink:href="#LiberationSans-Bold-114"/>
      <use x="555.664062" xlink:href="#LiberationSans-Bold-101"/>
      <use x="611.279297" xlink:href="#LiberationSans-Bold-116"/>
      <use x="644.580078" xlink:href="#LiberationSans-Bold-105"/>
      <use x="672.363281" xlink:href="#LiberationSans-Bold-99"/>
      <use x="727.978516" xlink:href="#LiberationSans-Bold-97"/>
      <use x="783.59375" xlink:href="#LiberationSans-Bold-108"/>
      <use x="811.376953" xlink:href="#LiberationSans-Bold-32"/>
      <use x="839.160156" xlink:href="#LiberationSans-Bold-80"/>
      <use x="905.859375" xlink:href="#LiberationSans-Bold-101"/>
      <use x="961.474609" xlink:href="#LiberationSans-Bold-97"/>
      <use x="1017.089844" xlink:href="#LiberationSans-Bold-107"/>
     </g>
    </g>
   </g>
  </g>
 </g>
 <defs>
  <clipPath id="p0d0ce97728">
   <rect height="266.112" width="357.12" x="57.6" y="41.472"/>
  </clipPath>
 </defs>
</svg>
